<svg xmlns="http://www.w3.org/2000/svg" width="500" height="500"><path d="m249.063 42.75 2.114-.003c18.997.018 37.545 1.919 55.823 7.253l3.016.758C353.806 62.565 392.859 93.73 419 130l1.336 1.822c5.404 7.374 9.746 14.922 13.664 23.178a655.18 655.18 0 0 0 1.934 3.781c6.288 12.225 11.821 24.217 14.418 37.824.632 3.312 1.403 6.56 2.21 9.833 2.965 12.961 3.764 25.547 3.699 38.795-.01 2.566 0 5.132.012 7.699.014 14.386-.85 28.73-4.273 42.756l-.5 2.177c-6.92 29.708-21.298 57.69-40.207 81.456-1.164 1.511-2.235 3.092-3.293 4.679h-2l-.738 1.7c-2.574 4.693-6.623 8.414-10.262 12.3l-1.797 1.926c-4.685 4.852-9.875 8.953-15.203 13.074l-3.355 2.719c-30.144 23.997-67.369 37.232-105.533 40.118-1.88.145-3.758.32-5.635.499-38.21 3.634-81.996-5.263-114.711-25.633-2.316-1.426-4.642-2.709-7.04-3.988-4.895-2.701-9.218-5.947-13.601-9.402l-4.43-3.45-1.937-1.522c-1.54-1.175-3.145-2.266-4.758-3.341v-2l-1.633-.676c-3.136-1.754-5.63-4.076-8.242-6.512l-1.606-1.488C101.715 394.761 98.176 391.146 95 387v-2h-2a147.801 147.801 0 0 1-5.625-7.188l-1.645-2.226C70.393 354.6 57.42 330.25 51 305l-.523-1.996C47.707 292.39 46.02 281.914 45 271l-.34-3.254c-.923-9.898-.848-19.817-.66-29.746l.038-2.122c.287-11.89 2.474-23.284 4.962-34.878l.449-2.172C53.142 181.17 60.663 164.896 69 149l1.344-2.766C77.654 131.704 88.65 118.547 100 107l1.801-1.859c1.913-1.972 3.835-3.933 5.761-5.891l1.844-1.884C110.9 95.871 112.446 94.43 114 93h2v-2c1.31-1.218 1.31-1.218 3.148-2.574l2.032-1.513 2.195-1.6 2.23-1.642c1.469-1.078 2.94-2.153 4.413-3.225a421.976 421.976 0 0 0 4.779-3.548c5.617-4.127 11.588-7.276 17.851-10.285a238.674 238.674 0 0 0 7.977-4.05c11.262-5.604 23.172-10.595 35.55-12.993 2.927-.548 2.927-.548 6.13-1.543 4.147-1.153 8.263-1.904 12.507-2.59l2.252-.38c10.672-1.756 21.185-2.296 31.999-2.307z" fill="#185BB5"/><path d="M377 89c2.468 1.152 4.048 2.048 6 4v4l2.313-.188C388 97 388 97 389.813 98.376 391 100 391 100 391 102l3 1-2 4 2 2 1 2 2-1-.313 3.313L397 117c2.34 1.754 2.34 1.754 5 3 1.313 2.188 1.313 2.188 2 4l3-1v-8c17.316 17.986 29.082 40.923 38 64l1.59 3.559c1.383 3.375 2.207 6.493 2.91 10.066a339.502 339.502 0 0 0 3.063 13.813c2.963 12.962 3.763 25.546 3.698 38.795-.01 2.566 0 5.132.012 7.699.014 14.386-.85 28.73-4.273 42.756l-.5 2.177c-6.92 29.708-21.298 57.69-40.207 81.456-1.164 1.511-2.235 3.092-3.293 4.679h-2l-.738 1.7c-2.574 4.693-6.623 8.414-10.262 12.3l-1.797 1.926c-4.685 4.852-9.875 8.953-15.203 13.074l-3.355 2.719c-30.144 23.997-67.369 37.232-105.533 40.118-1.88.145-3.758.32-5.635.499-38.21 3.634-81.996-5.263-114.711-25.633-2.316-1.426-4.642-2.709-7.04-3.988-4.895-2.701-9.218-5.947-13.601-9.402l-4.43-3.45-1.937-1.522c-1.54-1.175-3.145-2.266-4.758-3.341v-2l-1.633-.676c-3.136-1.754-5.63-4.076-8.242-6.512l-1.606-1.488C101.715 394.761 98.176 391.146 95 387v-2h-2a139.366 139.366 0 0 1-5.125-6.5l-1.418-1.879A964.624 964.624 0 0 1 83 372h3c2.282 2.282 3.905 4.76 5.684 7.441 1.334 1.854 1.334 1.854 4.316 2.559l1-2-3-1 1-6-3-1-.438-1.938c-.363-2.265-.363-2.265-2.624-3.312L87 366l1-8 2 1 .406 1.746c2.405 9.13 13.39 21.113 20.719 26.942 2.513 2.02 4.32 3.924 6.375 6.375 2.89 3.405 5.655 5.686 9.5 7.937 3.582-1.461 5.221-3.287 7.5-6.375 10.843-13.696 21.286-20.633 36.972-28.362 11.4-5.697 20.145-13.87 29.063-22.802 9.253-9.238 19.071-17.136 29.676-24.774 8.224-6.006 8.224-6.006 14.789-13.687-.069-2.103-.069-2.103-1-4-2.789-2.286-2.789-2.286-5.805-1.875-3.762 1.03-6.16 2.594-9.32 4.875l-1.679 1.2c-5.007 3.597-9.931 7.31-14.833 11.05-3.706 2.745-5.778 2.85-10.363 2.75-.668-2.273-.668-2.273-1-5 1.012-1.852 1.012-1.852 2.688-3.625l1.98-2.098c3.049-2.977 6.18-5.854 9.349-8.704 6.353-5.741 12.341-11.849 18.361-17.935 2.2-2.221 4.41-4.43 6.622-6.638 1.312-1.098 1.312-1.098 1.25-3.813-.276-3.515-.636-4.844-3.25-7.187-3.335-.513-4.626-.269-7.395 1.723l-2.417 2.34-2.645 2.503L223 274a376.157 376.157 0 0 1-4 3.5 522.745 522.745 0 0 0-8.813 7.875A1827.497 1827.497 0 0 1 205 290l-2.906 2.61-2.906 2.515-2.645 2.32C194 299 194 299 191.176 298.742L189 298c2.64-7.739 8.772-13.945 14.563-19.563 3.337-3.238 6.18-6.748 9.046-10.406 3.609-4.575 7.308-9.076 10.999-13.585l1.634-2.005 1.465-1.79c1.171-1.496 2.24-3.07 3.293-4.651h4v2l5-3v2l1.813.375C243 248 243 248 246 250c4.272-.247 6.243-1.754 9.18-4.754l2.316-2.342 2.379-2.466 2.355-2.385a281.527 281.527 0 0 0 12.144-13.202c2.501-2.847 5.137-5.546 7.813-8.226l1.538-1.574c4.847-4.866 4.847-4.866 8.275-6.051 2.75.375 2.75.375 5 1-.384 5.51-2.673 8.664-6.125 12.75-1.016 1.247-2.03 2.496-3.043 3.746l-1.49 1.828c-2.28 2.847-4.333 5.836-6.393 8.844a548.084 548.084 0 0 1-4.867 6.945l-1.598 2.25a2765.731 2765.731 0 0 1-3.134 4.398c-2.453 3.458-4.864 6.942-7.182 10.493l-1.226 1.87c-1.747 3.48-1.526 6.05-.942 9.876 2.119 2.51 3.314 2.933 6.563 3.25 2.574-.175 2.574-.175 5.437-1.25a67.341 67.341 0 0 0 2-4 173.197 173.197 0 0 1 3.75-5.125l1.162-1.537c4.272-5.627 8.634-11.185 12.988-16.748 3.276-4.198 6.46-8.432 9.538-12.778 6.787-9.403 6.787-9.403 10.562-11.812 2.203.328 2.203.328 4 1-.163 7.33-4.017 12.067-8 18a367.918 367.918 0 0 0-2.938 4.875 350.081 350.081 0 0 1-4.968 8.148c-3.613 5.74-7.042 11.516-10.156 17.54l-1.786 3.44c-1.334 2.82-1.334 2.82-.96 5.274.784 1.925.784 1.925 2.808 3.723 3.284.92 3.284.92 7 0 2.94-2.56 4.896-5.742 7-9l1.121-1.723c4.44-6.855 8.644-13.842 12.739-20.908C330.148 233.901 330.148 233.901 336 230c3.517.517 3.517.517 5 2-.237 8.004-3.512 14.99-6.5 22.313a3007.46 3007.46 0 0 0-1.55 3.86c-.943 2.35-1.89 4.698-2.843 7.043-1.99 5.004-2.28 8.448-2.107 13.784.983 1.206.983 1.206 2.848 1.098L337 280l.75-2c1.25-3 1.25-3 3.016-6.453 1.67-3.316 3.168-6.673 4.609-10.094 6.97-16.528 15.055-31.698 25.438-46.328 6.524-9.285 10.938-18.45 13.75-29.375 3.29-12.68 9.564-21.265 19.437-29.75h2l.625-1.688c1.925-3.237 4.414-4.994 7.375-7.312-.552-3.758-1.495-6.134-3.738-9.188l-1.719-2.348-1.856-2.464-1.902-2.55c-5.496-7.262-11.348-14.013-17.785-20.45l-2.383-2.383c-2.63-2.55-2.63-2.55-5.617-4.617-8.9.548-19.385 12.472-26 18-.687-2.49-1-4.379-1-7l6 1v-2c1.426-1.508 1.426-1.508 3.313-3.125l1.863-1.633C365 107 365 107 368 107v-3l6-1v-3l3-2c1.205-2.552 1.205-2.552 2-5l-2-1v-3z" fill="#185AB5"/><path d="M377.953 102.184c4.034 1.608 6.919 4.883 10.047 7.816l1.84 1.645c6.739 6.31 12.085 13.856 17.576 21.24 1.09 1.455 2.192 2.9 3.306 4.335l1.657 2.147 1.502 1.925C415 143 415 143 415.313 145.625c-1.677 3.034-3.804 4.768-6.493 6.918-2.468 1.975-4.612 4.196-6.82 6.457l-2.098 1.89c-8.161 7.576-12.159 15.592-14.777 26.36-3.152 12.62-9.477 23.138-16.914 33.695-9.04 12.852-15.836 26.15-21.887 40.645-6.947 16.492-6.947 16.492-11.324 19.41-3.125.375-3.125.375-6 0-2-2-2-2-2.39-5.383.153-5.888 2.487-11.085 4.64-16.492.396-1.025.791-2.05 1.2-3.105 1.535-3.963 3.083-7.916 4.74-11.83l1.107-2.635.995-2.305c.794-2.522.834-4.622.708-7.25-1.725-.955-1.725-.955-4-1-3.91 3.42-6.72 7.304-9.438 11.688l-1.192 1.887c-2.588 4.116-5.091 8.279-7.577 12.456-2.562 4.242-5.17 8.453-7.793 12.656l-1.511 2.45c-6.52 10.398-6.52 10.398-10.489 13.863-4.132.784-5.973.667-9.5-1.625-1.5-2.375-1.5-2.375-1.387-4.977 1.175-4.5 3.255-8.14 5.575-12.148l1.384-2.435c1.3-2.277 2.612-4.547 3.928-6.815l1.645-2.871c3.4-5.81 7.148-11.386 10.93-16.954 4.552-6.536 4.552-6.536 5.425-14.175-5.702.996-9.142 5.36-12.363 9.938-.935 1.455-1.867 2.912-2.797 4.37-2.782 4.07-5.913 7.843-9.019 11.668-4.398 5.439-8.6 11.007-12.724 16.657-2.772 3.759-5.531 7.31-9.097 10.367-3.52 0-5.85-.369-8.938-2.063-1.845-3.365-1.88-6.295-1.062-9.937 1.92-3.962 4.423-7.44 7-11l1.298-1.797c2.338-3.227 4.698-6.437 7.073-9.637 2.682-3.62 5.245-7.314 7.797-11.027a143.569 143.569 0 0 1 4.445-5.828l1.383-1.738c.896-1.119 1.8-2.23 2.717-3.333 2.793-3.496 3.927-6.182 4.287-10.64-6.483.162-9.612 3.71-14 8l-2.71 2.629c-4.013 3.933-7.962 7.9-11.603 12.184-3.477 4.017-7.08 7.908-10.75 11.75l-1.788 1.954c-1.65 1.7-3.17 3.18-5.149 4.483-4.078.049-5.403-.464-8.438-3.188-1.982-3.568-1.577-4.919-.562-8.812 1.496-2.387 1.496-2.387 3.438-4.688l2.187-2.609c3.242-3.69 6.553-7.315 9.879-10.93 3.154-3.505 6.113-7.144 9.07-10.816 2.295-2.798 4.648-5.53 7.026-8.258 4.366-5.016 8.561-9.964 12.091-15.62a77.168 77.168 0 0 1 2.961-4.345c3.633-5.026 5.122-8.509 5.348-14.734-7.764-.583-13.506.867-20.625 3.875-20.892 8.569-20.892 8.569-31.438 5.125-2.462-2.541-2.832-4.446-3.382-7.867.731-3.505 2.724-4.909 5.445-7.133a67.894 67.894 0 0 1 7.313-2.688c7.273-2.4 14.366-5.117 21.437-8.062l3.085-1.282a308.791 308.791 0 0 0 17.463-8.033C302.1 136.07 311.253 132.943 322 131c13.257-2.438 24.648-4.743 34.91-14.152 3.012-2.663 6.176-5.12 9.34-7.598l1.865-1.468c7.433-5.825 7.433-5.825 9.838-5.598z" fill="#F8FAFA"/><path d="M199.5 220.125c2.633.922 4.386 2.074 6.5 3.875-.48 5.188-1.56 8.566-4.375 12.938l-1.057 1.653A371.446 371.446 0 0 1 197 244l-1.325 1.978c-4.575 6.79-9.256 13.492-14.113 20.084-5.644 7.261-5.644 7.261-7.562 15.938 4.297-.489 6.002-1.575 8.75-4.875l2.102-2.484a1184.81 1184.81 0 0 0 4.171-5.157c5.617-6.973 11.582-13.5 17.723-20.011a273.44 273.44 0 0 0 8.922-9.957c3.912-4.452 3.912-4.452 7.207-4.953 3.941.551 5.51 1.437 8.125 4.437.59 4.405.326 6.47-2.02 10.29a141.983 141.983 0 0 1-2.792 3.335l-1.496 1.813A520.295 520.295 0 0 1 220 260c-.98 1.17-1.957 2.343-2.934 3.516-5.668 6.78-11.415 13.5-17.386 20.015l-2.43 2.656-2.234 2.418c-3.687 4.2-3.687 4.2-5.016 9.395 6.257-.23 9.052-3.315 13.25-7.5l3.988-3.848 1.948-1.899c3.83-3.702 7.83-7.219 11.814-10.753l2.246-1.996c8.868-7.827 8.868-7.827 12.254-8.504 2.5.5 2.5.5 4.813 2.625 2.016 3.435 2.406 4.96 1.687 8.875-2.49 3.657-5.304 6.305-8.656 9.16-4.496 3.91-8.671 8.091-12.844 12.34-4.79 4.877-9.61 9.583-14.854 13.975-1.88 1.622-1.88 1.622-3.646 4.525v4c4.574.302 6.86-.093 10.5-2.875l2.574-1.914L218 312c2.428-1.764 4.87-3.506 7.313-5.25l1.777-1.285c9.035-6.5 9.035-6.5 13.035-6.34 4.32 1.315 4.32 1.315 5.875 3.875-.573 6.2-4.492 9.122-9 13-2.459 1.84-4.964 3.58-7.508 5.3-7.007 4.779-13.445 10.292-19.888 15.793-2.402 2.051-4.812 4.07-7.303 6.012-2.1 1.73-3.675 3.403-5.363 5.52-9.217 10.536-19.511 16.605-31.953 22.733-8.687 4.303-15.699 9.065-22.548 15.954l-1.408 1.416c-3.546 3.626-6.653 7.464-9.591 11.592C130 402 130 402 127 403c-6.023-3.398-10.705-8.626-15.078-13.887-1.884-2.195-1.884-2.195-4.313-3.957-3.222-2.663-5.582-5.659-8.109-8.969l-1.395-1.79c-.92-1.19-1.833-2.385-2.738-3.587-.936-1.24-1.89-2.465-2.86-3.679-3.564-4.615-3.564-4.615-3.283-7.155 1.506-3.833 4.733-6.74 7.475-9.76 6.857-7.776 9.985-14.221 9.926-24.654.047-1.967.102-3.935.164-5.902l.09-2.925c.67-15.213 5.57-29.598 10.062-44.024 2.153-6.943 3.999-13.674 4.934-20.899.75-4.563 1.306-7.842 5.125-10.812 2.875-.75 2.875-.75 6 0 2.938 1.856 4.528 3.858 6 7 1.31 8.229-.248 16.3-1.925 24.353-1.032 5.016-1.348 9.547-1.075 14.647 8.645-1.316 14.453-7.506 19.547-14.285 2.14-2.955 4.197-5.964 6.25-8.98 1.826-2.635 3.764-5.182 5.703-7.735a369.033 369.033 0 0 0 8.13-11.163c3.875-5.525 7.899-10.86 12.245-16.024l1.37-1.639c6.207-7.251 6.207-7.251 10.255-7.049z" fill="#F8F9FA"/><path d="M297 210c-.384 5.51-2.673 8.664-6.125 12.75-1.016 1.247-2.03 2.496-3.043 3.746l-1.49 1.828c-2.28 2.847-4.333 5.836-6.393 8.844a548.084 548.084 0 0 1-4.867 6.945l-1.598 2.25a2765.731 2765.731 0 0 1-3.134 4.398c-2.453 3.459-4.868 6.943-7.194 10.489l-1.232 1.867c-1.65 3.364-1.305 6.203-.924 9.883l1 2-3-1-1-12h3l-.75-3.188c-.25-3.812-.25-3.812 1.5-6.75C264 250 264 250 267 250v-4l-3 1-3-1c-2.638.394-2.638.394-5 1l-1 3-4-1 1.541-1.525c2.343-2.323 4.682-4.649 7.022-6.975l2.423-2.398c4.305-4.288 8.438-8.647 12.399-13.253 2.491-2.852 5.127-5.545 7.803-8.224l1.537-1.574c4.482-4.5 6.955-6.807 13.275-5.051z" fill="#1D59AB"/><path d="M206 231c1.534 3.069.55 5.7 0 9h4l1-2v2h3l1-3h2l1-3c3.473-1.158 6.36-1.069 10-1l1 3 1.984.867C233 238 233 238 233.828 240.383l.422 2.742c.15.91.3 1.82.453 2.758L235 248l-1-2h-3l-.25-3.313c-.423-3.634-.423-3.634-2.438-5.625-3.279-1.506-4.719-1.822-8.312-1.062-3.003 2.367-5.48 5.134-8 8l-1.715 1.926a440.316 440.316 0 0 0-3.379 3.887c-2.215 2.542-4.497 5.018-6.781 7.5a262.114 262.114 0 0 0-9.813 11.375l-2.214 2.722a869.62 869.62 0 0 0-4.04 5.024l-1.808 2.191-1.547 1.914c-2.152 1.847-3.927 2.112-6.703 2.461-1.099-3.302-1.157-4.653.3-7.875.665-1.031 1.329-2.063 2.012-3.125l1.101-1.724c2.932-4.504 6.21-8.693 9.577-12.88 4.617-5.896 8.295-12.356 11.988-18.857l1.456-2.523 1.283-2.273C203 232 203 232 206 231z" fill="#1E5BAE"/><path d="M338.25 230.188C340 231 340 231 341 232c-.237 8.004-3.512 14.99-6.5 22.313a3007.46 3007.46 0 0 0-1.55 3.86c-.943 2.35-1.89 4.698-2.843 7.043-1.99 5.004-2.28 8.448-2.107 13.784.983 1.206.983 1.206 2.848 1.098L337 280l.813-2.313c1.131-2.56 2.1-3.884 4.187-5.687v5h-2l-2 5h-3l-1 5h-4l-.75-2.938L328 281c-2.026-.736-2.026-.736-4-1 .141-1.459.288-2.917.438-4.375.08-.812.162-1.624.246-2.46C325 271 325 271 326 269h-2v4h-2v-3h-3l-2-3-2.813 1.875L308 273c1.682-4.846 4.307-8.982 7-13.313l1.471-2.377c1.009-1.629 2.019-3.257 3.03-4.884a694.64 694.64 0 0 0 4.272-7.024l2.602-4.277 1.188-1.997c5.743-9.352 5.743-9.352 10.687-8.94z" fill="#1D5BB0"/><path d="m88 358 2 1 .406 1.746c2.405 9.13 13.39 21.113 20.719 26.942 2.513 2.02 4.32 3.924 6.375 6.375 2.89 3.405 5.655 5.686 9.5 7.937 3.817-1.555 6.192-4.036 9-7l-.938 2.313A110.556 110.556 0 0 0 133 403c-6.539 1.132-6.539 1.132-9.188.375L122 403a125.01 125.01 0 0 0-4 3c-5.138 0-6.888-2.186-10.375-5.563l-1.749-1.657C101.984 395.052 98.27 391.296 95 387v-2h-2a139.366 139.366 0 0 1-5.125-6.5l-1.418-1.879A964.624 964.624 0 0 1 83 372h3c2.282 2.282 3.905 4.76 5.684 7.441 1.334 1.854 1.334 1.854 4.316 2.559l1-2-3-1 1-6-3-1-.438-1.938c-.363-2.265-.363-2.265-2.624-3.312L87 366l1-8z" fill="#1B5BB3"/><path d="m224 254 2 1-2 3 3 1-5 3h2l1 4h5c-4.826 5.969-10.222 10.96-16 16l-2.07 1.813a738.235 738.235 0 0 1-3.86 3.351 165.708 165.708 0 0 0-4.578 4.234l-2.617 2.477-2.383 2.305c-2.876 2.1-4.981 2.505-8.492 2.82l-1-3c3.011-5.668 8.146-10.456 12.441-15.164A504.568 504.568 0 0 0 224 254z" fill="#1F5AAC"/><path d="M315.203 223.328 317 224c-.163 7.33-4.017 12.067-8 18a367.918 367.918 0 0 0-2.938 4.875 801.634 801.634 0 0 1-7.187 11.813c-2.711 4.393-5.359 8.804-7.875 13.312l-2-4 2-2c-.322-3.1-.322-3.1-1-6h3l2-3 2 1v-4l-1 2c-2.063.625-2.063.625-4 1l-1-2h-2l-1 6-3 1c-1.893 2.087-1.893 2.087-3.688 4.563l-1.886 2.503L278 271l-2-1c5.406-7.623 11.084-15.005 16.848-22.358 3.295-4.215 6.5-8.463 9.59-12.83 8.723-12.086 8.723-12.086 12.765-11.484z" fill="#245DA9"/><path d="M377 89c2.468 1.152 4.048 2.048 6 4v4l2.313-.188C388 97 388 97 389.813 98.376 391 100 391 100 391 102l3 1-2 4 2 2 1 2 2-1-.313 3.313L397 117c2.34 1.754 2.34 1.754 5 3 1.313 2.188 1.313 2.188 2 4l3-1v-8c6.392 6.815 11.665 14.357 17 22l-1 2-2.047-2.703c-.9-1.183-1.802-2.365-2.703-3.547l-1.344-1.777c-2.457-3.217-4.953-6.185-7.906-8.973l1 4h-2l.5 3.313C409 133 409 133 409 136l-2.02-2.64C394.674 116.346 394.674 116.346 379 103c-8.886.528-19.397 12.482-26 18-.687-2.49-1-4.379-1-7l6 1v-2c1.426-1.508 1.426-1.508 3.313-3.125l1.863-1.633C365 107 365 107 368 107v-3l6-1v-3l3-2c1.205-2.552 1.205-2.552 2-5l-2-1v-3z" fill="#195BB4"/><path d="m249.063 42.75 2.114-.003c19.017.018 37.51 1.98 55.823 7.253 1.332.34 2.664.677 4 1v2l-5 1v-2c-2.81-.636-5.623-1.258-8.438-1.875l-2.314-.527c-14.269-3.095-28.5-3.95-43.059-3.914-2.621.003-5.242-.02-7.863-.045-12.159-.045-24.69.482-36.326 4.361-1.89.22-3.779.44-5.672.621-3.198.52-6.223 1.457-9.328 2.379l-3.48.973c-14.084 4.14-27.957 9.75-40.352 17.691-2.425 1.494-4.915 2.725-7.48 3.961C138.05 77.389 135.1 79.384 132 82h-2v2l-3-1c9.299-7.202 18.3-13.039 29-18 1.544-.808 3.086-1.62 4.625-2.438 11.262-5.603 23.172-10.594 35.55-12.992 2.927-.548 2.927-.548 6.13-1.543 4.147-1.153 8.263-1.904 12.507-2.59l2.252-.38c10.672-1.756 21.185-2.296 31.999-2.307z" fill="#194A84"/><path d="M235 298c8.193-.473 8.193-.473 11.563 1.5C248 301 248 301 248 304.563c-.475 3.952-1.746 5.56-4.75 8.125A7623.066 7623.066 0 0 1 239 316c-.955.962-1.895 1.94-2.813 2.938C234 321 234 321 231 321l-1 3a89.47 89.47 0 0 1-4 2l-1 2-6 3-1 2h-3l-.875 2.875C213 339 213 339 211 341l-2.188.188c-4.394 1.269-7.024 4.27-9.812 7.812-1.268 3.134-1.268 3.134-2 6-1.828 2.694-2.97 2.992-6.188 3.813-4.784 1.49-7.989 4.03-11.812 7.187v-3a87.43 87.43 0 0 1 6-4.625c5.028-3.697 9.163-7.507 13.195-12.3 2.957-3.4 6.36-6.188 9.805-9.075l2.938-2.563c5.395-4.686 10.821-9.063 16.75-13.062 10.493-6.451 10.493-6.451 17.078-16.14L245 303c-2.55-2.354-3.71-2.983-7.25-3.188L235 300v-2z" fill="#2B5B9E"/><path d="M83 371c4.697 1.483 4.697 1.483 6.063 3.813L90 377l2.125 2.625C94 382 94 382 94 384h2c2.382 2.784 4.58 5.686 6.809 8.594L105 395h3l3 1 1-5c4.377 1.9 7.354 4.977 10.781 8.223 2.296 2.092 2.296 2.092 6.219 2.777l6-7c0 3.204-.743 5.094-2 8-6.539 1.132-6.539 1.132-9.188.375L122 403a125.01 125.01 0 0 0-4 3c-5.138 0-6.888-2.186-10.375-5.563l-1.749-1.657C101.984 395.052 98.27 391.296 95 387v-2h-2a132.53 132.53 0 0 1-5.125-6.438l-1.418-1.853C83 372.149 83 372.149 83 371z" fill="#184E97"/><path d="M240.438 298.938c4.137 1.715 4.137 1.715 5.562 4.062-.356 4.284-1.733 6.211-4.813 9.125l-2.082 2.008c-4.049 3.59-4.049 3.59-6.105 4.867l-3-1 1-2.313c1.174-2.678 1.174-2.678 1-5.687l2-1 1-3h-7l-1 3-5 1c4.725-5.354 11.052-10.928 18.438-11.063z" fill="#F1F7FA"/><path d="M453 213h1c1.79 10.794 2.315 21.304 2.26 32.233-.01 2.566 0 5.132.013 7.699.014 14.386-.85 28.73-4.273 42.756l-.5 2.177a192.46 192.46 0 0 1-5.125 18.072c-.26.773-.52 1.545-.79 2.34-.192.569-.386 1.137-.585 1.723l-2-2c.182-.583.364-1.165.55-1.766 3.927-11.913 3.927-11.913 5.45-24.234h2l.181-2.212c.431-5.218.874-10.434 1.354-15.647 1.59-17.493 1.637-34.116.089-51.623l-.284-3.295-.27-2.977L452 214l1-1z" fill="#103E7E"/><path d="M224 292c0 3.32-.437 4.025-2.313 6.625l-1.3 1.852C219 302 219 302 216 303l-1 3c-2.21 1.622-4.523 2.989-6.871 4.402-2.273 1.706-3.097 2.986-4.129 5.598h7l.375-1.75c.631-2.273 1.514-4.175 2.625-6.25l6 1 1-5 5 1 1-3h5c-3.992 3.198-7.99 6.388-12 9.563l-1.828 1.458c-9.427 7.45-9.427 7.45-16.172 6.979-.668-2.273-.668-2.273-1-5 1.012-1.852 1.012-1.852 2.688-3.625l1.937-2.055c3.783-3.696 7.668-7.273 11.605-10.804 2.328-2.114 4.571-4.27 6.77-6.516z" fill="#245CA4"/><path d="M288 213h4c.625 1.813.625 1.813 1 4l-2 3h-2v3l-4-1-1 7-4 1-1 6-2-2c-2.83.363-5.29 1.097-8 2l1-4h2l1-2c6.27-8.913 6.27-8.913 10-12h3l2-5z" fill="#185AB4"/><path d="M297 210c-.384 5.51-2.672 8.665-6.125 12.75-1 1.225-2 2.451-2.996 3.68l-1.484 1.819c-3.003 3.769-5.7 7.76-8.395 11.751l-2-3h3l1-7 3-1c1.23-3.512 1.23-3.512 2-7l4 1v-3l1.5-1.438c1.962-1.682 1.962-1.682 1.5-5.562h-4l-.688 2.313c-1.611 3.3-3.137 3.948-6.312 5.687a89.165 89.165 0 0 0-4 4l-2-1c2.077-2.131 4.161-4.255 6.25-6.375l1.777-1.828 1.739-1.758 1.587-1.619c3.676-3.17 5.963-3.721 10.647-2.42z" fill="#2C60A4"/><path d="M346 434c-26.234 12.959-54.28 22.656-84 22 2.963-2.963 6.38-2.563 10.375-2.875 21.742-2.015 42.945-7.198 62.7-16.586l2.988-1.414 2.66-1.305C343 433 343 433 346 434z" fill="#104077"/><path d="m182 234 2 1-1.871 2.387c-5.337 6.851-10.403 13.803-15.219 21.031C165 261 165 261 162 263v-5h-2v-2h2l.25-1.75c.998-2.995 2.231-4.36 4.75-6.25 2.75.25 2.75.25 5 1l-2-7 2.875-.813c3.644-1.384 4.422-2.78 6.125-6.187l3-1z" fill="#1F5AAC"/><path d="M313 223c2.18.348 2.18.348 4 1-.172 7.724-4.502 14.297-9.727 19.828L306 245l-1-6h2l.375-1.688c.685-2.533 1.616-4.891 2.625-7.312-2.809 2.581-4.846 4.693-6.563 8.125-1.48 2.963-2.663 4.153-5.437 5.875l-2-1 2.125-2.5c2.038-2.435 3.942-4.934 5.813-7.5 2.781-3.711 5.515-6.992 9.062-10z" fill="#2259A6"/><path d="M308 230h2c-.476 1.48-.956 2.96-1.438 4.438l-.808 2.496C307 239 307 239 306 240l.063 2.875C306 246 306 246 304 249h-3v2l-3 1v-2l-1.375 1.5C295 253 295 253 293 253c.557-3.34 1.088-6.178 3-9l2.875-1.75c3.539-2.548 4.586-4.54 6.266-8.445C306 232 306 232 308 230z" fill="#1A5AB3"/><path d="m88 358 2 1 .406 1.746C93.136 371.11 105.502 383.681 114 390l-3 2-2-1v-3l-1.813-.875c-3.711-1.909-5.538-3.32-7.187-7.125h-3l-3-1 1-6-3-1-.438-1.938c-.363-2.265-.363-2.265-2.624-3.312L87 366l1-8z" fill="#2B5CA3"/><path d="M406 115c5.151 3.531 8.28 8.21 11.813 13.25l1.81 2.547c1.465 2.063 2.924 4.13 4.377 6.203l-1 2-2.047-2.703c-.9-1.183-1.802-2.365-2.703-3.547l-1.344-1.777c-2.457-3.217-4.953-6.185-7.906-8.973l1 4h-2l.5 3.313C409 133 409 133 409 136c-1.793-2.27-3.584-4.54-5.375-6.813l-1.54-1.947-1.483-1.885-1.365-1.73c-1.14-1.497-2.193-3.06-3.237-4.625l3-1c3.875 3.75 3.875 3.75 5 6l3-1c.082-3.044-.024-5.072-1-8z" fill="#1C4E93"/><path d="m282 143 4 1c-4.705 3.803-10.08 5.76-15.625 8.063l-3.16 1.353c-6.342 2.648-12.413 4.56-19.215 5.584l1-2c2.563-.625 2.563-.625 5-1v-2l-2-1 4-2 1 3 3.125-1.875c3.198-1.832 6.33-3.078 9.875-4.125l3-1c1.56-.369 3.122-.722 4.688-1.063l2.449-.535L282 145v-2z" fill="#255BA5"/><path d="M186 259c0 3.96-1.187 6.504-3 10-2.188.938-2.188.938-4 1v7h3l1-4 3 1a247.428 247.428 0 0 1-3.188 3.938l-1.792 2.214c-2.345 2.145-3.904 2.509-7.02 2.848-1.203-3.473-1.125-4.736.477-8.121l2.148-3.317 1.113-1.735c2.51-3.856 5.16-7.434 8.262-10.827z" fill="#2259A7"/><path d="M198 259c0 3.204-.743 5.094-2 8l2 1c-1.938.563-1.938.563-4 1l-1-1-.883 1.504c-7.105 11.775-7.105 11.775-12.742 14.996-2.535.534-3.965.393-6.375-.5l1-2 2.328-.383c3.332-.77 4.254-1.889 6.422-4.492l2.055-2.434L187 272l2.445-2.973c1.564-1.908 3.122-3.822 4.672-5.742C196 261 196 261 198 259z" fill="#E5F4FB"/><path d="m374 100 9 1-1 3-2.61-.777c-4.456-.293-6.417 1.456-9.64 4.215l-1.69 1.374c-1.142.93-2.277 1.867-3.407 2.812-2.454 2.043-4.962 4.018-7.466 6.001A2414.948 2414.948 0 0 0 353 121c-.687-2.49-1-4.379-1-7l6 1v-2c1.426-1.508 1.426-1.508 3.313-3.125l1.863-1.633C365 107 365 107 368 107v-3l6-1v-3z" fill="#265AA2"/><path d="M396 164c0 3.598-.895 4.222-3 7l-.5 2.063c-.62 2.4-1.772 3.209-3.5 4.937-1.04 3.113-1.105 5.985-1.063 9.25l.028 2.703L388 192h-3l-.25 2.563c-.907 4.158-2.515 6.833-4.75 10.437l-2-1c.315-.692.63-1.384.953-2.098 2.529-5.78 4.504-11.388 5.985-17.527 1.995-7.9 5.05-14.738 11.062-20.375z" fill="#2E60A0"/><path d="M54 183c1.131 3.879 2.025 7.948 2 12a71.492 71.492 0 0 1-3 4c-.25 3.667-.25 3.667 0 7h-2l-.621 2.703-.816 3.547-.81 3.516A360.669 360.669 0 0 1 47 223l-2-1c5.98-32.962 5.98-32.962 9-39z" fill="#174C8C"/><path d="m442 321 2 1c-5.143 11.586-10.3 23.15-16.438 34.25l-1.212 2.214c-2.086 3.693-4.133 6.693-7.35 9.536.647-3.47 2.05-5.912 3.938-8.875 2.262-3.658 3.76-7.018 5.062-11.125l1.427-1.423c1.704-1.708 2.53-3.199 3.546-5.378l1.037-2.213 1.053-2.298c.35-.748.702-1.495 1.064-2.264A108.676 108.676 0 0 0 441 322l1-1z" fill="#133C78"/><path d="M240 263c2.75 2.978 4.748 6.138 6 10-.79 2.203-.79 2.203-2 4l-1 2-3 1-2.438 2.5c-2.399 2.34-3.333 3.141-6.562 3.5 2.778-3.602 5.74-6.829 9-10 1.312-1.098 1.312-1.098 1.25-3.813-.276-3.515-.636-4.844-3.25-7.187-3.14-.393-4.98-.007-8 1v-2c3.358-1.68 6.456-2.144 10-1z" fill="#295CA2"/><path d="m340 231 1 1a176.79 176.79 0 0 1-1 7h-1l-1-6-3 2h-3v9l-7 1c1.339-3.775 3.016-6.614 5.5-9.75l1.844-2.36c2.651-3.026 3.96-3.083 7.656-1.89z" fill="#2258A5"/><path d="m258 210 6 2c-4.565 6.409-9.67 12.219-15 18l-2-4c1.813-2.5 1.813-2.5 4-5h3v-2h3l1-9z" fill="#255CA4"/><path d="M339 124h5v3c-10.927 2.897-21.844 5.177-33 7l-1-2 6.055-1.367c2.152-.538 2.152-.538 3.945-2.633v2c2.982-.615 5.96-1.241 8.938-1.875l2.576-.527 2.45-.528 2.27-.476c1.98-.435 1.98-.435 2.766-2.594z" fill="#2D5DA2"/><path d="m382 104 1.875 1.063L386 106l2-1v2l6 1 1 3 2-1v9c-5.27-4.392-10.353-8.943-15-14v-1z" fill="#1C57A4"/><path d="M224 292c0 3.32-.437 4.025-2.313 6.625l-1.3 1.852C219 302 219 302 216 303l-1 3c-2.214 1.586-4.523 2.925-6.871 4.305-2.516 2.003-3.188 3.661-4.129 6.695l-3-1c1.952-3.51 3.958-6.163 6.906-8.883l2.254-2.097 2.34-2.145 4.594-4.258 2.052-1.887A162.658 162.658 0 0 0 224 292z" fill="#305FA0"/><path d="m228 233 1 3 1.984.867C233 238 233 238 233.828 240.383l.422 2.742c.15.91.3 1.82.453 2.758L235 248l-1-2h-3l-.25-3.313c-.423-3.634-.423-3.634-2.438-5.625-3.117-1.432-4.907-1.607-8.312-1.062-2.268 1.484-4.022 3.116-6 5l1-4h2l1-3c3.473-1.158 6.36-1.069 10-1z" fill="#295A9D"/><path d="M378 88c4.043 1.646 6.935 4.488 10.063 7.438l1.71 1.594C395.308 102.227 400.68 107.584 406 113l-1 2h-2l-1.188-2.063c-2.008-3.255-4.304-5.587-7.046-8.226-1.52-1.473-2.964-3.023-4.391-4.586-2.192-2.332-2.192-2.332-5.063-2.625L383 97c-1.125-2.313-1.125-2.313-2-5a70.29 70.29 0 0 0-3-4z" fill="#123C74"/><path d="M277 45c10.523.329 19.904 2.215 30 5 1.332.338 2.665.675 4 1v2l-5 1v-2c-14.383-3.24-14.383-3.24-29-5v-2z" fill="#144885"/><path d="m61 330 1.375 1.875C64.528 334.69 65.581 335.86 69 337h3l-1.063 1.563c-1.975 5.135.251 10.484 2.063 15.437-2.378-2.174-3.819-4.252-5.262-7.125l-1.2-2.39c-.405-.82-.81-1.64-1.225-2.485l-1.26-2.484-1.19-2.391-1.084-2.18C61 333 61 333 61 330z" fill="#184992"/><path d="M230 286c0 3.147-.6 4.288-2 7v2l7 2-1 5h-2l-2-5h-5l-1 4h-2c-.688-1.813-.688-1.813-1-4 1.25-1.438 1.25-1.438 3-3l1.5-2.5c1.333-2.222 2.594-3.775 4.5-5.5z" fill="#1F5BA8"/><path d="m224 254 2 1-2 3 3 1-1.68.734-2.195 1.016-2.18.984c-2.311 1.504-2.857 2.776-3.945 5.266l-4 4-1 2.188c-1 1.812-1 1.812-3.125 2.562L207 276c2.384-4.308 5.291-7.864 8.5-11.563 4.398-5.098 4.398-5.098 8.5-10.437z" fill="#285B9F"/><path d="M135 395c0 3.204-.743 5.094-2 8-6.539 1.132-6.539 1.132-9.188.375L122 403c-1.348.98-2.682 1.98-4 3l-3-1 4-6c3.558.61 6.683 1.578 10 3l6-7z" fill="#215DB0"/><path d="m321 251 2 1-1.438 2.25c-1.34 2.36-2.074 4.116-2.562 6.75h-3l-.063 3.188c-1.14 4.64-2.555 5.533-6.44 7.964L308 273c1.671-4.851 4.327-8.948 7.063-13.25l1.392-2.219c3.39-5.376 3.39-5.376 4.545-6.531z" fill="#2759A2"/><path d="M264 236c0 7.273 0 7.273-2 10-3.125.75-3.125.75-6 1l-1 3-4-1 13-13z" fill="#275FA6"/><path d="m281 235 2 2-1.5 1.625c-1.875 2.969-1.735 4.928-1.5 8.375h-4c-2.25 1.917-2.25 1.917-4 4l-2-1 3.813-5.25 2.144-2.953A539.88 539.88 0 0 1 281 235z" fill="#EDF8FA"/><path d="M222.938 234.5c3.873.632 5.48 1.539 8.062 4.5.563 3.5.563 3.5 0 7-2 2.438-2 2.438-4 4l.438-1.688c.59-2.426 1.085-4.861 1.562-7.312-1.637-1.689-1.637-1.689-4-3-3.063.247-3.063.247-6 1h-3c2.233-2.748 3.39-3.896 6.938-4.5z" fill="#DEF4FD"/><path d="M164 372c-1 3-1 3-2.926 4.063l-2.387.937c-4.678 1.945-4.678 1.945-8.687 5l-1 3c-2.438 1.75-2.438 1.75-5 3l-2-1c13.5-15 13.5-15 22-15z" fill="#25599C"/><path d="M77 361c2.813.188 2.813.188 6 1 2.822 3.406 3.496 6.664 4 11-4.656-2.752-7.273-5.175-10-10v-2z" fill="#194F9E"/><path d="m208 281 4 2a1071.854 1071.854 0 0 1-4.875 5l-2.742 2.813C202 293 202 293 200 293c.432-4.752 1.328-6.92 5-10v2l4-1-1-3z" fill="#285CA5"/><path d="m168 256 2 1-1.715 2.117-2.222 2.758-2.215 2.742c-1.852 2.228-1.852 2.228-2.848 4.383l2 1-1 2h-4v3l-4 1c1.579-3.459 3.626-6.378 5.875-9.438l2.055-2.808c1.974-2.627 4.002-5.2 6.07-7.754z" fill="#E0F1FA"/><path d="m450 293 2 1c-1.687 8.917-4.08 17.413-7 26l-2-2 .516-1.66c2.362-7.728 4.431-15.526 6.484-23.34z" fill="#072A6A"/><path d="M136 275h1v9l7-1v-2l4 1c-6.074 4.902-6.074 4.902-9.938 5.313L136 287c-1.495-2.99-1.116-5.7-1-9l1-3z" fill="#3363A1"/><path d="m316 223 3 1c-.904 7.606-3.047 12.227-8 18a358.549 358.549 0 0 0-3 4l-2-1 1.934-2.816c.835-1.249 1.67-2.497 2.503-3.746l1.276-1.846C314.624 232.19 316 228.42 316 223z" fill="#E2F4FC"/><path d="m220 251 6 1c-3.388 4.692-6.782 9.03-11 13 .717-3.232 1.813-6.187 3.063-9.25l1.097-2.703L220 251z" fill="#E6F3FC"/><path d="m293 166 1 5-1-3-3.688.5c-3.128.395-6.154.599-9.312.5v2h-6c6.166-5.024 11.287-5.27 19-5z" fill="#23569F"/><path d="M175 365c1.208 3.623.543 4.641-1 8h-2l-1 3-2-1 1-4-6 1c3.457-2.765 7.143-4.85 11-7z" fill="#2159AA"/><path d="M160 264c0 3.953-1.423 5.34-3.75 8.5l-2.11 2.906c-1.914 2.32-3.653 3.936-6.14 5.594v-4l3-1a70.134 70.134 0 0 0 1-4l2-1 1.438-2.438C157 266 157 266 160 264z" fill="#2B5A9E"/><path d="M380 204c1.46 2.647 2 3.894 2 7-3.75 2-3.75 2-6 2l-3 1c1.394-4.435 3.606-6.874 7-10z" fill="#1E5AA8"/><path d="M289 168h4c.853 2.417 1.12 3.64.293 6.105l-1.106 2.083-1.082 2.105C290 180 290 180 288 181v-3h-2l1-2h3l1-2h-3l1-6z" fill="#215BAB"/><path d="m197 350 2 1c-2.654 4.977-4.503 6.493-9.828 8.145-3.88 1.528-6.974 4.227-10.172 6.855 0-3 0-3 1.758-4.79 4.554-3.531 7.474-5.386 13.242-6.21 1.917-2.443 1.917-2.443 3-5z" fill="#245CA3"/><path d="M289 253c1 2 1 2 .25 5.063L288 261l-3 1c-1.893 2.087-1.893 2.087-3.688 4.563l-1.886 2.503L278 271l-2-1c4.17-5.815 8.317-11.586 13-17z" fill="#27579F"/><path d="M293 267h2c-.47 2.192-.98 3.963-2.063 5.938-1.128 2.481-1.087 4.366-.937 7.062l-3 1-1 2c-1.253-2.951-1.01-3.974.215-7.016l1.723-3.234 1.714-3.266L293 267z" fill="#DDEFF9"/><path d="m111 288 2 2a91.758 91.758 0 0 1-1.875 8.125l-.605 2.285A634.187 634.187 0 0 1 109 306h-2c-.252-5.792.273-11.436 2-17l2-1z" fill="#2A5BA4"/><path d="M377.875 102.063c3.043 1.342 4.892 3.518 7.125 5.937l-3.5-.563c-4.364-.56-8.167-.133-12.5.563 5.837-6.039 5.837-6.039 8.875-5.938z" fill="#E1F0F9"/><path d="m196 246 4 1 1 4-2 1c-.656 2.527-.656 2.527-1 5h-2c-1.625-2-1.625-2-3-4l3-1-.563-1.875C195 248 195 248 196 246z" fill="#1B5AB9"/><path d="M409 122c3.404 1.135 4.217 1.968 6 5l-1 3h-4l-1 4c-1.16-4.256-.762-7.684 0-12z" fill="#1B5CBA"/><path d="M386 109c7.483 6.15 7.483 6.15 10 10l-5 1-.813-1.875C389.045 115.7 389.045 115.7 386 114c-.188-2.625-.188-2.625 0-5z" fill="#E1ECF9"/><path d="M117 394h3v2h3l1.438 2 1.562 2h4v-2h2l1-3 2 1-6 7c-4.908-1.487-8.405-4.446-12-8v-1z" fill="#DEEFFC"/><path d="M341 272h1v5h-2l-.688 2.438L338 282c-2.625.813-2.625.813-5 1v2h-2l-2-4 8-1 .875-2.313C339 275 339 275 341 272z" fill="#275AA1"/><path d="m328 268 2 1-.625 3.375L329 276c1.898 2.35 1.898 2.35 5.125 2.125L337 278v2c-2.763 1.381-4.947 1.19-8 1-2-2-2-2-2.188-5.938.026-2.738.301-4.402 1.188-7.062z" fill="#DDF1FB"/><path d="m202 222 4 2c-.284 6.674-3.078 10.71-7 16l-2-3 3-1c1.15-2.247 1.15-2.247 2-5l1.125-3.313L204 225h-2v-3z" fill="#DEF1FC"/><path d="M233 264c2.25-.313 2.25-.313 5 0 2.995 2.753 3.942 4.227 4.25 8.313L242 275h-1l-1-5-6 2v-4h3c-.959-2.33-.959-2.33-4-4z" fill="#E4F4FB"/><path d="M105 388h4c2 2 2 2 2.125 5.125L111 396l-4 1c-1.858-3.135-2.201-5.375-2-9z" fill="#155DB8"/><path d="m372 214 1 4h-2l-.875 2.75c-.89 2.572-1.84 4.863-3.125 7.25l-4-1 9-13z" fill="#295AA3"/><path d="m244 235 1 3-1 2c-.85 3.317-1.107 4.678 0 8l2 1c-3 0-3 0-4.75-1.625-1.705-3.239-1.262-4.906-.25-8.375 1.563-2.375 1.563-2.375 3-4z" fill="#D8ECF9"/><path d="m130 240.688 3 .312 2 3-1.934.367-2.504.508-2.496.492L126 246l-1 2h-2c2.522-6.846 2.522-6.846 7-7.313z" fill="#DEF4F9"/><path d="M338.25 230.188C340 231 340 231 341 232a176.79 176.79 0 0 1-1 7h-1l-1-6-3 2c-2.188-.375-2.188-.375-4-1 4.417-4.049 4.417-4.049 7.25-3.813z" fill="#3964A1"/><path d="M256 221c1 3 1 3 .063 5.188L255 228h-2v2h-2l-1 2c-2.063.625-2.063.625-4 1 6.15-8.446 6.15-8.446 10-12z" fill="#E1F2FB"/><path d="m92 356 2 1-1 5 2 1v5h-2c-4.05-5.092-4.05-5.092-3.875-8.25C90 358 90 358 92 356z" fill="#DCF0F9"/><path d="M192 224c0 4.14-2.168 6.456-4.5 9.688l-1.3 1.837A805.262 805.262 0 0 1 183 240l-2-1c1.628-3.757 4.014-6.617 6.625-9.75l2.477-2.984L192 224z" fill="#E2F0FC"/><path d="m292 220 1 3-1 2h-2l1 3-2.438 1.375c-2.65 1.372-2.65 1.372-3.562 3.625h-2c1.49-3.283 3.386-5.93 5.625-8.75l1.914-2.422L292 220z" fill="#E2F1FB"/><path d="m176 273 1 2c-.938 2.625-.938 2.625-2 5l7-2c-2.25 2.563-2.25 2.563-5 5-2.313-.188-2.313-.188-4-1 .498-3.735.875-5.812 3-9z" fill="#305C94"/><path d="M307 273h1c.368 3.283.323 4.587-1.75 7.238l-2.25 2.075-2.25 2.113L300 286l-2-1 1.46-1.863 1.915-2.45 1.898-2.425A100.773 100.773 0 0 0 307 273z" fill="#2D5BA0"/><path d="m182 234 2 1-9 12-1-4 2-1 .5-2.5.5-2.5 2-1 3-2z" fill="#3060A2"/><path d="m211 332 3 1-11 10-1-4h2v-2c4.385-3 4.385-3 7-3v-2z" fill="#E3F4FD"/><path d="m287 212 1 3c-2.161 3.242-3.72 4.048-7 6a89.165 89.165 0 0 0-4 4l-2-1 12-12z" fill="#26589B"/><path d="m365 110 1 4c-5.292 4.923-5.292 4.923-8.875 5.313L355 119c3.147-3.268 6.494-6.131 10-9z" fill="#DFEEF8"/><path d="M122 249h1c.221 2.124.427 4.249.625 6.375l.352 3.586L124 262l-2 2c-.643 2.069-.643 2.069-1 4h-2l3-19z" fill="#D7E8F5"/><path d="M301 254c1.125 1.75 1.125 1.75 2 4-.5 2.125-.5 2.125-2 4-3.125 1.25-3.125 1.25-6 2 .81-1.48 1.623-2.96 2.438-4.438l1.37-2.496C300 255 300 255 301 254z" fill="#E4F1FA"/><path d="m306 230 2 1-1.875 2.75c-2.075 2.997-2.075 2.997-3.125 5.438-1.263 2.288-2.847 3.377-5 4.812l-2-1 2.188-2.563c2.8-3.351 5.308-6.86 7.812-10.437z" fill="#315E9D"/><path d="M237 299c5.538.615 5.538.615 7.875 2.563L246 303l-1 3-2-3c-3.084-.25-3.084-.25-6 0l-1-2 1-2z" fill="#D9EBF7"/><path d="M186 259c0 3.96-1.187 6.504-3 10-2.188.938-2.188.938-4 1v2l-2-1c1.311-1.813 2.624-3.626 3.938-5.438l2.214-3.058C185 260 185 260 186 259z" fill="#2A5C9D"/><path d="m284 179 4 2c-1.654 3.583-3.68 6.81-6 10h-2l.938-1.813c1.61-3.316 2.38-6.585 3.062-10.187z" fill="#275AA1"/><path d="M408 152c2 3 2 3 2 5-1.287.697-2.58 1.382-3.875 2.063l-2.18 1.16L402 161l-2-1a90.488 90.488 0 0 1 4-4h2l2-4z" fill="#265CA7"/><path d="m284 211 2 3a679.453 679.453 0 0 1-3.875 4l-2.18 2.25C278 222 278 222 276 222c1.285-2.867 2.571-4.976 5-7h2l1-4z" fill="#E1F1FD"/><path d="m282 143 4 1c-3.625 3.172-7.512 4.429-12 6l-1-3 9-2v-2z" fill="#2F64A3"/><path d="m298 48 13 3v2l-5 1v-2l-8-2v-2z" fill="#0E3C74"/><path d="M226 302h6c-3.197 2.649-6.395 4.94-10 7l-1-5 5 1v-3z" fill="#26599D"/><path d="m201 285 2 1-3 7-4-1 1-4h2v-2l2-1z" fill="#185BB2"/><path d="m262 272 3 2c2.332.08 4.668.088 7 0v-2l2 1c-1.563 2.063-1.563 2.063-4 4-3.625-.063-3.625-.063-7-1l-2-3 1-1z" fill="#D2EAF7"/><path d="M232 266v3a97.457 97.457 0 0 1-5 3c-2.059 1.606-4.02 3.296-6 5l-2-1a1195.91 1195.91 0 0 1 5.375-5l1.54-1.445C229.772 266 229.772 266 232 266z" fill="#DCEFFB"/><path d="M203 233c1 2 1 2 .75 4-.75 2-.75 2-3.75 4v4l-4-1 7-11z" fill="#2E5DA1"/><path d="m300 233 4 1-5 7-2-4 3-4z" fill="#E1F3F8"/><path d="M135 395c0 3.204-.743 5.094-2 8-6.75 1.125-6.75 1.125-9 0l1-2 4 1 6-7z" fill="#2D5A9B"/><path d="M213 333h2c-1.75 5.75-1.75 5.75-4 8l-3-1c3.875-5.875 3.875-5.875 5-7z" fill="#1F57A1"/><path d="M333 255h2l-2 9h-2v3h-2c.477-1.626.957-3.25 1.438-4.875l.808-2.742C332 257 332 257 333 255z" fill="#DCEFF9"/><path d="M329 234h2c-1.557 4.671-4.084 8.087-7 12l-1-3 2-2c.707-1.65 1.38-3.316 2-5h2v-2z" fill="#DAF1FA"/><path d="M276 233c1.688 1.5 1.688 1.5 3 3-3 2-3 2-6 3v-3l-3-1c3-2 3-2 6-2z" fill="#1D5CBD"/><path d="m95 371 2 1c.73 2.314 1.401 4.648 2 7h-5l1-8z" fill="#175AA8"/><path d="M130.563 238.938 134 239l1 4-2-1c-4.051-.259-5.543-.304-9 2 2.414-4.99 2.414-4.99 6.563-5.063z" fill="#2A5A9F"/><path d="m281 260 2 1-7 10-2-2 7-9z" fill="#D8EDF9"/><path d="M232 238c2.296 3.445 2.54 5.938 3 10l-1-2h-3c-.042-2.333-.04-4.667 0-7l1-1z" fill="#2961A7"/><path d="m313 223 4 1a108.817 108.817 0 0 1-1 7l-2 1-1-9z" fill="#37619A"/><path d="M396 164c0 3.598-.895 4.222-3 7-.705 2.147-.705 2.147-1 4h-3c1.486-4.593 3.85-7.436 7-11z" fill="#2A589F"/><path d="m146 380 3 1-8 8-1-3h2l2-4h2v-2z" fill="#CDE4F6"/><path d="m227 320 3 1-9 6-2-2 2.313-1.375A152.725 152.725 0 0 0 227 320z" fill="#E1F2FC"/><path d="m201 278 3 1-7 6-1-4 5-1v-2z" fill="#E0EFFD"/><path d="M275 271c.75 1.75.75 1.75 1 4-1.938 2.25-1.938 2.25-4 4l-2-1 1-3h2l2-4z" fill="#2D5EA5"/><path d="M258 235h7l-5 6c-2-3-2-3-2-6z" fill="#EAF6FE"/><path d="m273 201 1 3c-1.363 2.043-1.363 2.043-3.313 4.188l-1.925 2.167C267 212 267 212 265 212c1.364-2.992 2.95-5.29 5.125-7.75l1.633-1.86L273 201z" fill="#D7E9F8"/><path d="m354 119 1 3c-4.308 3.938-4.308 3.938-7.813 4.25L345 126c2.963-2.387 5.943-4.735 9-7z" fill="#E3F3FC"/><path d="M100 337c3 1 3 1 4 2.75 0 2.25 0 2.25-2.438 5L99 347l1-10z" fill="#265DAB"/><path d="M446 308h2c-.284 1.44-.577 2.876-.875 4.313l-.492 2.425C446 317 446 317 444 320c-1.124-3.304-.896-5.05.438-8.25l.87-2.14L446 308z" fill="#053C7E"/><path d="m230 303 3 1-2 2h-3l-1 3-5 1c2.578-2.648 4.916-4.944 8-7z" fill="#DDEDFA"/><path d="m299 281 3 1c-1.563 2-1.563 2-4 4-3.75.25-3.75.25-7 0 3.75-2 3.75-2 6-2v-2l2-1z" fill="#DEEFF9"/><path d="M234 274c2.867.573 3.861.861 6 3l-4 4-2-7z" fill="#EAF3FC"/><path d="m182 257 1 2-1 2 2 1-3 3-2-2c0-3 0-3 1.5-4.688L182 257z" fill="#EBF3F7"/><path d="m277 240 1 2c-.89 1.945-.89 1.945-2.25 4.125l-1.328 2.195L273 250h-3l7-10z" fill="#DBEEFA"/><path d="m101 389 5 1v6a141.4 141.4 0 0 1-5-5v-2z" fill="#1D57AC"/><path d="m109 376 2 1c-1 3-1 3-3 4l-2 3c-.553-2.076-1-3.844-1-6 1.875-1.063 1.875-1.063 4-2z" fill="#ECF3F4"/><path d="m150 279 1 2-4 5-4-1 7-6z" fill="#DFF2FC"/><path d="m316 253 3 2-4 6-2-4 2-1 1-3z" fill="#E7F3FB"/><path d="M283 166v3h-3v2h-6c2.853-2.325 5.54-3.75 9-5z" fill="#2F5FA2"/><path d="m414 143 1 4-7 5c1.527-3.436 3.6-6.12 6-9z" fill="#DCF0FA"/><path d="M292.125 138.875 295 139c-2.353 2.724-4.625 3.814-8 5 0-4.269.9-4.956 5.125-5.125z" fill="#2C5FA2"/><path d="M378 88c2.468 1.152 4.048 2.048 6 4v3l3 1-2 2c-2.797-1.399-2.868-3.137-4-6a70.29 70.29 0 0 0-3-4z" fill="#164993"/><path d="m149 380 2 1c-1.444 3.807-3.35 5.266-7 7l-2-1 7-7z" fill="#1D5098"/><path d="m219 311 2 4c-2.906 1.257-4.796 2-8 2l6-6z" fill="#E5F3FC"/><path d="m108 297 2 1-1 8h-2c-.125-6.75-.125-6.75 1-9z" fill="#3867A9"/><path d="m298 243 1 2h-2l-.438 2.875C296 251 296 251 295 253h-2c.555-3.327 1.24-6.101 3-9l2-1z" fill="#175AAF"/><path d="m396 166 2 1v2h-2v2h-2v3h-2c.6-3.356 1.846-5.378 4-8z" fill="#145EB9"/><path d="m402 127 5 5-4 3-2-1 .5-2.375c.562-2.507.562-2.507.5-4.625z" fill="#E5F4F8"/><path d="m178 361 4 1-9 5v-3l5-1v-2z" fill="#DBEFFA"/><path d="M276 225c-.573 2.867-.861 3.861-3 6l-3-2c3.75-4 3.75-4 6-4z" fill="#3765AD"/><path d="m281 191 2 4h-2v2l-5 1 5-7z" fill="#D9ECF7"/><path d="M105 102c1 2 1 2 .375 4.063C104 108 104 108 101.375 108.75L99 109l6-7z" fill="#1C4F92"/><path d="m297 255 2 3-4 5-1-6 3 1v-3z" fill="#1E57A3"/><path d="m230 246 2 4-2 2c-2.125-.375-2.125-.375-4-1l4-5z" fill="#2961AB"/><path d="m292 175 2 1c-.75 2.438-.75 2.438-2 5-2.125.813-2.125.813-4 1l4-7z" fill="#DDF2FA"/><path d="m273 171-1 3-6 1v-2c4.75-2 4.75-2 7-2z" fill="#2658A3"/><path d="m86 125 3 1-2 1v3h-3v2l-2-1 4-6z" fill="#2058AE"/></svg>