<?xml version="1.0" encoding="UTF-8"?>
<svg version="1.1" xmlns="http://www.w3.org/2000/svg" width="500" height="500">
<path d="M0 0 C0.69770508 -0.00100708 1.39541016 -0.00201416 2.11425781 -0.00305176 C21.11115526 0.01533932 39.65986178 1.91557618 57.9375 7.25 C58.93265625 7.50007813 59.9278125 7.75015625 60.953125 8.0078125 C104.74414706 19.81533939 143.79666294 50.98036737 169.9375 87.25 C170.37852051 87.85118652 170.81954102 88.45237305 171.27392578 89.07177734 C176.67719615 96.44557837 181.0199281 103.99404286 184.9375 112.25 C185.57782609 113.5125582 186.22259709 114.77286898 186.87109375 116.03125 C193.1592621 128.25608348 198.69271284 140.24754198 201.2890625 153.85546875 C201.9215548 157.16652782 202.69291207 160.41519794 203.5 163.6875 C206.46489722 176.64898554 207.26357124 189.23468799 207.19824219 202.48266602 C207.18755524 205.04923352 207.19818691 207.61509462 207.2109375 210.18164062 C207.22402333 224.56804171 206.36026451 238.91218759 202.9375 252.9375 C202.7725 253.65615234 202.6075 254.37480469 202.4375 255.11523438 C195.51744588 284.82281046 181.1392844 312.8048095 162.23095703 336.57104492 C161.06696349 338.08195161 159.99546902 339.66304646 158.9375 341.25 C158.2775 341.25 157.6175 341.25 156.9375 341.25 C156.69386719 341.81074219 156.45023437 342.37148438 156.19921875 342.94921875 C153.62523099 347.64296114 149.57660302 351.36387177 145.9375 355.25 C145.04804687 356.20326172 145.04804687 356.20326172 144.140625 357.17578125 C139.45571936 362.02800495 134.26510679 366.12904322 128.9375 370.25 C127.81853007 371.15565684 126.70006906 372.06194271 125.58203125 372.96875 C95.43860652 396.96561047 58.21361936 410.20139711 20.04980469 413.08691406 C18.16946992 413.23209016 16.29147934 413.40693767 14.4140625 413.5859375 C-23.7961655 417.22032937 -67.58101979 408.32337447 -100.296875 387.953125 C-102.61268983 386.52700174 -104.93881546 385.2442241 -107.3359375 383.96484375 C-112.23138164 381.26380381 -116.55443583 378.01807649 -120.9375 374.5625 C-122.41352417 373.4120694 -123.8900653 372.26230167 -125.3671875 371.11328125 C-126.00640137 370.61094971 -126.64561523 370.10861816 -127.30419922 369.59106445 C-128.84518654 368.41574602 -130.44994975 367.3250335 -132.0625 366.25 C-132.0625 365.59 -132.0625 364.93 -132.0625 364.25 C-132.87074219 363.91548828 -132.87074219 363.91548828 -133.6953125 363.57421875 C-136.83135854 361.81989597 -139.32636876 359.49827505 -141.9375 357.0625 C-142.46762695 356.57144775 -142.99775391 356.08039551 -143.54394531 355.57446289 C-147.34780733 352.01082633 -150.88656977 348.39635335 -154.0625 344.25 C-154.0625 343.59 -154.0625 342.93 -154.0625 342.25 C-154.7225 342.25 -155.3825 342.25 -156.0625 342.25 C-158.02883236 339.89342629 -159.87164111 337.53170001 -161.6875 335.0625 C-162.50154297 333.96047241 -162.50154297 333.96047241 -163.33203125 332.83618164 C-178.6694756 311.8496578 -191.64292806 287.50031631 -198.0625 262.25 C-198.23523438 261.59128906 -198.40796875 260.93257813 -198.5859375 260.25390625 C-201.35462887 249.64058935 -203.04292144 239.16485674 -204.0625 228.25 C-204.17464844 227.17621094 -204.28679687 226.10242188 -204.40234375 224.99609375 C-205.32512108 215.09835881 -205.25090519 205.17935425 -205.0625 195.25 C-205.04993164 194.5497168 -205.03736328 193.84943359 -205.02441406 193.12792969 C-204.73700568 181.23860749 -202.5507194 169.84414101 -200.0625 158.25 C-199.91441895 157.53312012 -199.76633789 156.81624023 -199.61376953 156.07763672 C-195.92009499 138.42059138 -188.39910127 122.14606174 -180.0625 106.25 C-179.6190625 105.33734375 -179.175625 104.4246875 -178.71875 103.484375 C-171.40869932 88.9534206 -160.41116521 75.79705561 -149.0625 64.25 C-148.46808105 63.63656738 -147.87366211 63.02313477 -147.26123047 62.39111328 C-145.34881047 60.41940097 -143.42683655 58.45762062 -141.5 56.5 C-140.8915625 55.87826904 -140.283125 55.25653809 -139.65625 54.6159668 C-138.16364527 53.12103516 -136.61737084 51.68005808 -135.0625 50.25 C-134.4025 50.25 -133.7425 50.25 -133.0625 50.25 C-133.0625 49.59 -133.0625 48.93 -133.0625 48.25 C-131.75244141 47.0324707 -131.75244141 47.0324707 -129.9140625 45.67578125 C-129.24358887 45.17651123 -128.57311523 44.67724121 -127.88232422 44.1628418 C-126.79588623 43.37067261 -126.79588623 43.37067261 -125.6875 42.5625 C-124.95160645 42.02085205 -124.21571289 41.4792041 -123.45751953 40.92114258 C-121.98896748 39.84303249 -120.51813768 38.76801742 -119.04492188 37.69628906 C-117.44207316 36.52692013 -115.85181981 35.34029896 -114.265625 34.1484375 C-108.64891152 30.02071854 -102.67799475 26.87166168 -96.4140625 23.86328125 C-93.7193459 22.56617408 -91.08073726 21.20883912 -88.4375 19.8125 C-77.17500843 14.20917775 -65.26566804 9.21841727 -52.88671875 6.8203125 C-49.96038323 6.27193974 -49.96038323 6.27193974 -46.7578125 5.27734375 C-42.61024458 4.12426726 -38.49488046 3.37262588 -34.25 2.6875 C-33.50685547 2.56181641 -32.76371094 2.43613281 -31.99804688 2.30664062 C-21.32655077 0.55103705 -10.81379099 0.01089325 0 0 Z " fill="#185BB5" transform="translate(249.0625,42.75)"/>
<path d="M0 0 C2.46800047 1.15173355 4.04783565 2.04783565 6 4 C6 5.32 6 6.64 6 8 C6.763125 7.938125 7.52625 7.87625 8.3125 7.8125 C11 8 11 8 12.8125 9.375 C14 11 14 11 14 13 C14.99 13.33 15.98 13.66 17 14 C16.34 15.32 15.68 16.64 15 18 C15.66 18.66 16.32 19.32 17 20 C17.33 20.66 17.66 21.32 18 22 C18.66 21.67 19.32 21.34 20 21 C19.896875 22.093125 19.79375 23.18625 19.6875 24.3125 C19.790625 25.529375 19.89375 26.74625 20 28 C22.33942344 29.7536564 22.33942344 29.7536564 25 31 C26.3125 33.1875 26.3125 33.1875 27 35 C28.485 34.505 28.485 34.505 30 34 C30 33.236875 30 32.47375 30 31.6875 C30 29.79166667 30 27.89583333 30 26 C47.31567732 43.98635496 59.08215452 66.92290125 68 90 C68.52464844 91.17433594 69.04929687 92.34867187 69.58984375 93.55859375 C70.97302756 96.93417528 71.79709076 100.05187805 72.5 103.625 C73.4341473 108.25660991 74.43656446 112.84888832 75.5625 117.4375 C78.52631161 130.39952545 79.3260732 142.98428981 79.26074219 156.23266602 C79.25005524 158.79923352 79.26068691 161.36509462 79.2734375 163.93164062 C79.28652333 178.31804171 78.42276451 192.66218759 75 206.6875 C74.835 207.40615234 74.67 208.12480469 74.5 208.86523438 C67.57994588 238.57281046 53.2017844 266.5548095 34.29345703 290.32104492 C33.12946349 291.83195161 32.05796902 293.41304646 31 295 C30.34 295 29.68 295 29 295 C28.75636719 295.56074219 28.51273437 296.12148438 28.26171875 296.69921875 C25.68773099 301.39296114 21.63910302 305.11387177 18 309 C17.11054687 309.95326172 17.11054687 309.95326172 16.203125 310.92578125 C11.51821936 315.77800495 6.32760679 319.87904322 1 324 C-0.11896993 324.90565684 -1.23743094 325.81194271 -2.35546875 326.71875 C-32.49889348 350.71561047 -69.72388064 363.95139711 -107.88769531 366.83691406 C-109.76803008 366.98209016 -111.64602066 367.15693767 -113.5234375 367.3359375 C-151.7336655 370.97032937 -195.51851979 362.07337447 -228.234375 341.703125 C-230.55018983 340.27700174 -232.87631546 338.9942241 -235.2734375 337.71484375 C-240.16888164 335.01380381 -244.49193583 331.76807649 -248.875 328.3125 C-250.35102417 327.1620694 -251.8275653 326.01230167 -253.3046875 324.86328125 C-254.2635083 324.10978394 -254.2635083 324.10978394 -255.24169922 323.34106445 C-256.78268654 322.16574602 -258.38744975 321.0750335 -260 320 C-260 319.34 -260 318.68 -260 318 C-260.53882813 317.77699219 -261.07765625 317.55398438 -261.6328125 317.32421875 C-264.76885854 315.56989597 -267.26386876 313.24827505 -269.875 310.8125 C-270.40512695 310.32144775 -270.93525391 309.83039551 -271.48144531 309.32446289 C-275.28530733 305.76082633 -278.82406977 302.14635335 -282 298 C-282 297.34 -282 296.68 -282 296 C-282.66 296 -283.32 296 -284 296 C-285.78770907 293.8664718 -287.46872824 291.73155942 -289.125 289.5 C-289.59292969 288.87996094 -290.06085938 288.25992187 -290.54296875 287.62109375 C-291.70096609 286.08497483 -292.85121357 284.54301941 -294 283 C-293.01 283 -292.02 283 -291 283 C-288.71771882 285.28228118 -287.09497504 287.75961444 -285.31640625 290.44140625 C-283.98249383 292.29512154 -283.98249383 292.29512154 -281 293 C-280.67 292.34 -280.34 291.68 -280 291 C-280.99 290.67 -281.98 290.34 -283 290 C-282.67 288.02 -282.34 286.04 -282 284 C-282.99 283.67 -283.98 283.34 -285 283 C-285.144375 282.360625 -285.28875 281.72125 -285.4375 281.0625 C-285.80104993 278.79688294 -285.80104993 278.79688294 -288.0625 277.75 C-289.0215625 277.37875 -289.0215625 277.37875 -290 277 C-289.67 274.36 -289.34 271.72 -289 269 C-288.34 269.33 -287.68 269.66 -287 270 C-286.8659375 270.57621094 -286.731875 271.15242188 -286.59375 271.74609375 C-284.18871096 280.87574851 -273.20475794 292.85878291 -265.875 298.6875 C-263.36246686 300.70845057 -261.55579808 302.61170142 -259.5 305.0625 C-256.60923585 308.46832235 -253.84525775 310.74911741 -250 313 C-246.41791001 311.53888435 -244.7785949 309.71309573 -242.5 306.625 C-231.65719594 292.92882645 -221.21356477 285.9918791 -205.52783203 278.26318359 C-194.12706994 272.56610584 -185.3833287 264.39316434 -176.46484375 255.4609375 C-167.2123875 246.22314441 -157.39358102 238.32481748 -146.7890625 230.6875 C-138.56513707 224.68144936 -138.56513707 224.68144936 -132 217 C-132.06875133 214.8968607 -132.06875133 214.8968607 -133 213 C-135.78899698 210.71369353 -135.78899698 210.71369353 -138.8046875 211.125 C-142.56658725 212.15515348 -144.96491295 213.71903491 -148.125 216 C-148.67905518 216.39574219 -149.23311035 216.79148437 -149.80395508 217.19921875 C-154.81087779 220.79676968 -159.7352217 224.51057974 -164.63671875 228.25 C-168.34323407 230.99465928 -170.41517871 231.09967003 -175 231 C-175.66796875 228.7265625 -175.66796875 228.7265625 -176 226 C-174.98828125 224.1484375 -174.98828125 224.1484375 -173.3125 222.375 C-172.65894531 221.68277344 -172.00539063 220.99054688 -171.33203125 220.27734375 C-168.28340517 217.30020974 -165.15129965 214.42292538 -161.98339844 211.57324219 C-155.6299091 205.83194824 -149.64167156 199.72420167 -143.62158203 193.63769531 C-141.42259431 191.41685676 -139.211973 189.20789939 -137 187 C-135.68810584 185.90201339 -135.68810584 185.90201339 -135.75 183.1875 C-136.0257139 179.67214774 -136.38646658 178.34316789 -139 176 C-142.33514631 175.48733393 -143.6264491 175.73126273 -146.39453125 177.72265625 C-147.19246094 178.49480469 -147.99039063 179.26695312 -148.8125 180.0625 C-149.68519531 180.88878906 -150.55789062 181.71507812 -151.45703125 182.56640625 C-152.29621094 183.36949219 -153.13539063 184.17257812 -154 185 C-155.32541704 186.1756524 -156.65810361 187.34319277 -158 188.5 C-160.97391711 191.08653312 -163.89780743 193.72194125 -166.8125 196.375 C-168.53866629 197.92002538 -170.26797055 199.46155031 -172 201 C-172.9590625 201.86109375 -173.918125 202.7221875 -174.90625 203.609375 C-175.8653125 204.43953125 -176.824375 205.2696875 -177.8125 206.125 C-178.68519531 206.89070312 -179.55789062 207.65640625 -180.45703125 208.4453125 C-183 210 -183 210 -185.82421875 209.7421875 C-186.54222656 209.49726563 -187.26023437 209.25234375 -188 209 C-185.35995791 201.26146392 -179.22798111 195.05453352 -173.4375 189.4375 C-170.09984362 186.19868083 -167.25787153 182.68868258 -164.390625 179.03125 C-160.78216634 174.45581875 -157.08308529 169.95451994 -153.39208984 165.44555664 C-152.58312256 164.4535022 -152.58312256 164.4535022 -151.7578125 163.44140625 C-151.2745752 162.85045166 -150.79133789 162.25949707 -150.29345703 161.65063477 C-149.12180693 160.15544294 -148.05369132 158.58053698 -147 157 C-145.68 157 -144.36 157 -143 157 C-143 157.66 -143 158.32 -143 159 C-141.35 158.01 -139.7 157.02 -138 156 C-138 156.66 -138 157.32 -138 158 C-137.401875 158.12375 -136.80375 158.2475 -136.1875 158.375 C-134 159 -134 159 -131 161 C-126.72799408 160.75282719 -124.75743664 159.24589408 -121.8203125 156.24609375 C-121.05589844 155.47330078 -120.29148437 154.70050781 -119.50390625 153.90429688 C-118.71886719 153.09025391 -117.93382812 152.27621094 -117.125 151.4375 C-115.95904297 150.25704102 -115.95904297 150.25704102 -114.76953125 149.05273438 C-110.57099824 144.77305325 -106.54343854 140.38782136 -102.62597656 135.85083008 C-100.12503178 133.00403392 -97.4894637 130.3054448 -94.8125 127.625 C-94.30525391 127.10550781 -93.79800781 126.58601563 -93.27539062 126.05078125 C-88.42814104 121.18467077 -88.42814104 121.18467077 -85 120 C-82.25 120.375 -82.25 120.375 -80 121 C-80.38408623 126.5108025 -82.67268249 129.66440706 -86.125 133.75 C-87.14124058 134.99713774 -88.15556418 136.24583999 -89.16796875 137.49609375 C-89.65958496 138.09921387 -90.15120117 138.70233398 -90.65771484 139.32373047 C-92.93783087 142.17117984 -94.99062752 145.16004453 -97.05078125 148.16796875 C-98.65437869 150.49784479 -100.27861683 152.80860963 -101.91796875 155.11328125 C-102.44527588 155.85537842 -102.97258301 156.59747559 -103.51586914 157.36206055 C-104.5592363 158.82935993 -105.60391576 160.29572739 -106.65014648 161.76098633 C-109.10295862 165.21947971 -111.51389017 168.70349235 -113.83203125 172.25390625 C-114.23655518 172.87080322 -114.6410791 173.4877002 -115.05786133 174.12329102 C-116.80530699 177.60414482 -116.58355846 180.17445012 -116 184 C-113.88147457 186.51084495 -112.68554173 186.93311788 -109.4375 187.25 C-106.86312853 187.07536753 -106.86312853 187.07536753 -104 186 C-103.28452639 184.69220807 -102.62706813 183.35240814 -102 182 C-100.78418093 180.26717376 -99.52853219 178.56208571 -98.25 176.875 C-97.86658447 176.36783447 -97.48316895 175.86066895 -97.08813477 175.33813477 C-92.81629724 169.7112654 -88.4543735 164.15341213 -84.1003418 158.59008789 C-80.82426164 154.39198381 -77.63937301 150.15843348 -74.5625 145.8125 C-67.77496862 136.4087895 -67.77496862 136.4087895 -64 134 C-61.796875 134.328125 -61.796875 134.328125 -60 135 C-60.16290162 142.33057301 -64.01692342 147.06653261 -68 153 C-68.99146803 154.61752388 -69.97117298 156.2423321 -70.9375 157.875 C-72.56180501 160.61385473 -74.20783252 163.32963601 -75.90625 166.0234375 C-79.51932209 171.76266356 -82.94846841 177.53860967 -86.0625 183.5625 C-86.65160156 184.69816406 -87.24070312 185.83382812 -87.84765625 187.00390625 C-89.18154205 189.8223772 -89.18154205 189.8223772 -88.80859375 192.27734375 C-88.0239663 194.20246334 -88.0239663 194.20246334 -86 196 C-82.71618871 196.92007728 -82.71618871 196.92007728 -79 196 C-76.06011926 193.43968133 -74.10403354 190.25785839 -72 187 C-71.63003906 186.43152344 -71.26007813 185.86304688 -70.87890625 185.27734375 C-66.43942367 178.42161819 -62.23522413 171.43524918 -58.14013672 164.36938477 C-46.85175108 144.90116739 -46.85175108 144.90116739 -41 141 C-37.48275862 141.51724138 -37.48275862 141.51724138 -36 143 C-36.23684979 151.00354925 -39.51200093 157.99031192 -42.5 165.3125 C-43.01781387 166.59925287 -43.53474822 167.88636004 -44.05078125 169.17382812 C-44.99346789 171.52308283 -45.94028619 173.87068691 -46.89257812 176.21606445 C-48.88295238 181.21964419 -49.17211726 184.664365 -49 190 C-48.01732141 191.20561184 -48.01732141 191.20561184 -46.15234375 191.09765625 C-44.1015625 191.06510417 -42.05078125 191.03255208 -40 191 C-39.62875 190.01 -39.62875 190.01 -39.25 189 C-38 186 -38 186 -36.234375 182.546875 C-34.56459072 179.23148432 -33.06605211 175.87402711 -31.625 172.453125 C-24.65529464 155.92504266 -16.56979058 140.7553925 -6.1875 126.125 C0.33703916 116.83962511 4.75085391 107.67589863 7.5625 96.75 C10.85279189 84.06982289 17.12716511 75.48547574 27 67 C27.66 67 28.32 67 29 67 C29.309375 66.1646875 29.309375 66.1646875 29.625 65.3125 C31.55000774 62.07498698 34.03850902 60.31768859 37 58 C36.44791659 54.24238995 35.50547305 51.86575301 33.26171875 48.8125 C32.69469238 48.03745117 32.12766602 47.26240234 31.54345703 46.46386719 C30.93099121 45.65079102 30.31852539 44.83771484 29.6875 44 C29.05956543 43.15856445 28.43163086 42.31712891 27.78466797 41.45019531 C22.2888081 34.18795749 16.43699192 27.43699192 10 21 C9.21367187 20.21367188 8.42734375 19.42734375 7.6171875 18.6171875 C4.98651855 16.06668146 4.98651855 16.06668146 2 14 C-6.90006117 14.54825839 -17.38464175 26.47227318 -24 32 C-24.68707555 29.50935112 -25 27.62113708 -25 25 C-23.02 25.33 -21.04 25.66 -19 26 C-19 25.34 -19 24.68 -19 24 C-17.57421875 22.4921875 -17.57421875 22.4921875 -15.6875 20.875 C-15.07261719 20.33617188 -14.45773437 19.79734375 -13.82421875 19.2421875 C-12 18 -12 18 -9 18 C-9 17.01 -9 16.02 -9 15 C-7.02 14.67 -5.04 14.34 -3 14 C-3 13.01 -3 12.02 -3 11 C-1.515 10.01 -1.515 10.01 0 9 C1.20450304 6.44816596 1.20450304 6.44816596 2 4 C1.34 3.67 0.68 3.34 0 3 C0 2.01 0 1.02 0 0 Z " fill="#185AB5" transform="translate(377,89)"/>
<path d="M0 0 C4.03379958 1.60890098 6.91842565 4.88384507 10.046875 7.81640625 C10.65402344 8.35910156 11.26117188 8.90179688 11.88671875 9.4609375 C18.62546802 15.77228196 23.97172648 23.31751963 29.46313477 30.70166016 C30.55248095 32.15624882 31.65536827 33.60076313 32.76928711 35.03662109 C33.31593018 35.74512207 33.86257324 36.45362305 34.42578125 37.18359375 C35.1693689 38.13661377 35.1693689 38.13661377 35.92797852 39.10888672 C37.046875 40.81640625 37.046875 40.81640625 37.359375 43.44140625 C35.68270886 46.47537356 33.55619817 48.20925513 30.8671875 50.359375 C28.39920257 52.33482217 26.25535447 54.55534394 24.046875 56.81640625 C23.00853516 57.75226563 23.00853516 57.75226563 21.94921875 58.70703125 C13.78769713 66.28266734 9.79031334 74.29793689 7.171875 85.06640625 C4.02002946 97.6866531 -2.30512101 108.20398587 -9.7421875 118.76123047 C-18.78141614 131.6134946 -25.57765598 144.91198611 -31.62890625 159.40625 C-38.57641139 175.89859718 -38.57641139 175.89859718 -42.953125 178.81640625 C-46.078125 179.19140625 -46.078125 179.19140625 -48.953125 178.81640625 C-50.953125 176.81640625 -50.953125 176.81640625 -51.34375 173.43359375 C-51.18969605 167.54501427 -48.85654038 162.3485715 -46.703125 156.94140625 C-46.30738281 155.91660156 -45.91164063 154.89179688 -45.50390625 153.8359375 C-43.96821829 149.87335906 -42.42055625 145.9205111 -40.76367188 142.00683594 C-40.39822266 141.13704102 -40.03277344 140.26724609 -39.65625 139.37109375 C-39.32786133 138.61038574 -38.99947266 137.84967773 -38.66113281 137.06591797 C-37.86758566 134.54462713 -37.82686673 132.44408403 -37.953125 129.81640625 C-39.67789411 128.86138467 -39.67789411 128.86138467 -41.953125 128.81640625 C-45.86379366 132.23662801 -48.67226627 136.12075564 -51.390625 140.50390625 C-51.98073364 141.43843628 -51.98073364 141.43843628 -52.58276367 142.3918457 C-55.17079986 146.50712572 -57.67442237 150.66995224 -60.16015625 154.84765625 C-62.72179297 159.08914625 -65.32926192 163.30067712 -67.953125 167.50390625 C-68.45175049 168.31239014 -68.95037598 169.12087402 -69.46411133 169.95385742 C-75.98483758 180.35130992 -75.98483758 180.35130992 -79.953125 183.81640625 C-84.08521376 184.60007826 -85.92646148 184.48373754 -89.453125 182.19140625 C-90.953125 179.81640625 -90.953125 179.81640625 -90.83984375 177.21484375 C-89.66546858 172.71393451 -87.5854818 169.07369868 -85.265625 165.06640625 C-84.80865234 164.26291748 -84.35167969 163.45942871 -83.88085938 162.6315918 C-82.58119374 160.35418125 -81.26914415 158.08439388 -79.953125 155.81640625 C-79.41042969 154.86894531 -78.86773437 153.92148437 -78.30859375 152.9453125 C-74.90846312 147.13471462 -71.15981619 141.5589565 -67.37890625 135.99145508 C-62.8262696 129.45498046 -62.8262696 129.45498046 -61.953125 121.81640625 C-67.65466189 122.81230789 -71.0951878 127.17589951 -74.31640625 131.75390625 C-75.25095692 133.20948959 -76.18301348 134.66667572 -77.11328125 136.125 C-79.89543861 140.19486501 -83.02598837 143.96727097 -86.13183594 147.79248047 C-90.5301867 153.23140342 -94.73290217 158.79932523 -98.85595703 164.44946289 C-101.62813253 168.2081246 -104.3875136 171.76016791 -107.953125 174.81640625 C-111.47267919 174.81640625 -113.80232559 174.4474898 -116.890625 172.75390625 C-118.73644729 169.38799502 -118.77112143 166.45800519 -117.953125 162.81640625 C-116.03236599 158.8544446 -113.53024107 155.37718838 -110.953125 151.81640625 C-110.52467285 151.2234375 -110.0962207 150.63046875 -109.65478516 150.01953125 C-107.31697374 146.79243471 -104.95761501 143.5821874 -102.58203125 140.3828125 C-99.89978202 136.76296709 -97.33687293 133.06818548 -94.78515625 129.35546875 C-93.34704638 127.36235273 -91.87597306 125.44324599 -90.33984375 123.52734375 C-89.88359619 122.95387207 -89.42734863 122.38040039 -88.95727539 121.78955078 C-88.06156534 120.67042854 -87.15626992 119.55888711 -86.23999023 118.45654297 C-83.44721106 114.96051456 -82.31348457 112.27418765 -81.953125 107.81640625 C-88.43601373 107.97847847 -91.56541196 111.52670055 -95.953125 115.81640625 C-97.29503906 117.11771484 -97.29503906 117.11771484 -98.6640625 118.4453125 C-102.67644117 122.37816281 -106.62480032 126.34450145 -110.265625 130.62890625 C-113.7432114 134.64670025 -117.3454897 138.53720249 -121.015625 142.37890625 C-121.60577393 143.02384033 -122.19592285 143.66877441 -122.80395508 144.33325195 C-124.45395831 146.0330666 -125.97415207 147.5134319 -127.953125 148.81640625 C-132.03161884 148.86495975 -133.35639772 148.35193073 -136.390625 145.62890625 C-138.37296689 142.06069086 -137.96795379 140.70983594 -136.953125 136.81640625 C-135.45703125 134.4296875 -135.45703125 134.4296875 -133.515625 132.12890625 C-132.79375 131.2678125 -132.071875 130.40671875 -131.328125 129.51953125 C-128.0857011 125.82914089 -124.7754722 122.20467626 -121.44921875 118.58984375 C-118.29473135 115.08485775 -115.33615021 111.44504235 -112.37890625 107.7734375 C-110.08387113 104.975786 -107.7309798 102.24280269 -105.35351562 99.515625 C-100.98732667 94.49960964 -96.79208281 89.55149444 -93.26171875 83.89453125 C-92.32799077 82.41171548 -91.33332635 80.96656413 -90.30078125 79.55078125 C-86.66773989 74.52436167 -85.17949138 71.04148176 -84.953125 64.81640625 C-92.71668291 64.23335574 -98.45934274 65.68361667 -105.578125 68.69140625 C-126.46969163 77.25997633 -126.46969163 77.25997633 -137.015625 73.81640625 C-139.47766425 71.27494638 -139.84831366 69.37072069 -140.3984375 65.94921875 C-139.66668882 62.44452772 -137.674545 61.04040114 -134.953125 58.81640625 C-132.48211276 57.75166114 -130.19476222 56.90646398 -127.640625 56.12890625 C-120.3671991 53.72800075 -113.27385815 51.01131731 -106.203125 48.06640625 C-105.18492676 47.64319092 -104.16672852 47.21997559 -103.11767578 46.78393555 C-97.19764031 44.28693212 -91.40772624 41.6107235 -85.65478516 38.75146484 C-75.85272175 33.88579674 -66.70000754 30.75988904 -55.953125 28.81640625 C-42.69563882 26.37849585 -31.30551751 24.07348984 -21.04296875 14.6640625 C-18.03147946 12.00156823 -14.86702065 9.544369 -11.703125 7.06640625 C-11.08783936 6.58212158 -10.47255371 6.09783691 -9.83862305 5.59887695 C-2.40540657 -0.22610822 -2.40540657 -0.22610822 0 0 Z " fill="#F8FAFA" transform="translate(377.953125,102.18359375)"/>
<path d="M0 0 C2.63343037 0.92170063 4.3857093 2.07393755 6.5 3.875 C6.02072502 9.06282787 4.93956723 12.44130477 2.125 16.8125 C1.77630859 17.35825684 1.42761719 17.90401367 1.06835938 18.46630859 C-0.10296991 20.28186899 -1.29719201 22.08014839 -2.5 23.875 C-2.93731445 24.52774902 -3.37462891 25.18049805 -3.82519531 25.85302734 C-8.3998593 32.64328946 -13.08137866 39.34511181 -17.9375 45.9375 C-23.58234757 53.19808845 -23.58234757 53.19808845 -25.5 61.875 C-21.20318603 61.3860522 -19.49822846 60.30022306 -16.75 57 C-16.05648437 56.18015625 -15.36296875 55.3603125 -14.6484375 54.515625 C-13.25313436 52.8006706 -11.86224343 51.08211346 -10.4765625 49.359375 C-4.86021634 42.38591918 1.10468336 35.85982118 7.24609375 29.34765625 C10.30489918 26.09980877 13.27126001 22.78413075 16.16796875 19.390625 C20.08049285 14.93883804 20.08049285 14.93883804 23.375 14.4375 C27.31645726 14.98930402 28.88478226 15.87519141 31.5 18.875 C32.08986932 23.28042041 31.82600189 25.34406462 29.48046875 29.1640625 C28.56709537 30.29055633 27.63496159 31.40202194 26.6875 32.5 C26.19411133 33.09828613 25.70072266 33.69657227 25.19238281 34.31298828 C23.64451876 36.18132007 22.0738211 38.02851378 20.5 39.875 C19.5209455 41.04588106 18.54304833 42.21773097 17.56640625 43.390625 C11.89838315 50.17021637 6.15132725 56.89173391 0.1796875 63.40625 C-0.62210937 64.2828125 -1.42390625 65.159375 -2.25 66.0625 C-2.98734375 66.86042969 -3.7246875 67.65835938 -4.484375 68.48046875 C-8.17126773 72.68092332 -8.17126773 72.68092332 -9.5 77.875 C-3.24346429 77.64469807 -0.44833502 74.56036552 3.75 70.375 C5.07879613 69.09179423 6.40822402 67.80924233 7.73828125 66.52734375 C8.38104004 65.90069824 9.02379883 65.27405273 9.68603516 64.62841797 C13.51599892 60.92629149 17.51593242 57.40936683 21.5 53.875 C22.24121094 53.21628906 22.98242188 52.55757813 23.74609375 51.87890625 C32.61424731 44.05215054 32.61424731 44.05215054 36 43.375 C38.5 43.875 38.5 43.875 40.8125 46 C42.82893182 49.43540236 43.21924987 50.95908403 42.5 54.875 C40.01011455 58.53201925 37.19637576 61.17951702 33.84375 64.03515625 C29.3475517 67.94415681 25.17282386 72.12616842 21 76.375 C16.21047571 81.25176517 11.38968112 85.95836637 6.14648438 90.34960938 C4.2666836 91.97214402 4.2666836 91.97214402 2.5 94.875 C2.5 96.195 2.5 97.515 2.5 98.875 C7.0735164 99.17727264 9.35963283 98.78154816 13 96 C13.84949219 95.36835938 14.69898438 94.73671875 15.57421875 94.0859375 C17.02248047 92.99152344 17.02248047 92.99152344 18.5 91.875 C20.92771416 90.11124694 23.37038313 88.36872788 25.8125 86.625 C26.39902344 86.20105957 26.98554688 85.77711914 27.58984375 85.34033203 C36.62482509 78.839993 36.62482509 78.839993 40.625 79 C44.94571429 80.315 44.94571429 80.315 46.5 82.875 C45.92700256 89.07565088 42.00832827 91.99694789 37.5 95.875 C35.04103978 97.71527953 32.53618883 99.45529403 29.9921875 101.17578125 C22.98455922 105.95370963 16.54686872 111.46655336 10.10424805 116.96777344 C7.70183473 119.01907333 5.29199289 121.03725156 2.80078125 122.98046875 C0.70091806 124.70955813 -0.87372993 126.38340818 -2.5625 128.5 C-11.77924629 139.03619629 -22.07312637 145.10518045 -34.51513672 151.2331543 C-43.20218704 155.53636832 -50.2138594 160.29803293 -57.0625 167.1875 C-57.52720703 167.65462402 -57.99191406 168.12174805 -58.47070312 168.60302734 C-62.01701253 172.22926397 -65.12437488 176.06724671 -68.0625 180.1953125 C-69.5 181.875 -69.5 181.875 -72.5 182.875 C-78.52305077 179.47738162 -83.2048404 174.24930524 -87.578125 168.98828125 C-89.46154997 166.79349487 -89.46154997 166.79349487 -91.890625 165.03125 C-95.11330121 162.36820019 -97.47262876 159.37215282 -100 156.0625 C-100.69029297 155.17594727 -100.69029297 155.17594727 -101.39453125 154.27148438 C-102.31534835 153.08220369 -103.2282149 151.88672238 -104.1328125 150.68505859 C-105.06888989 149.44575899 -106.02305993 148.21997698 -106.9921875 147.00634766 C-110.55706553 142.39145549 -110.55706553 142.39145549 -110.27636719 139.85107422 C-108.7702262 136.01751914 -105.54265625 133.11081558 -102.80078125 130.09179688 C-95.94354165 122.31468367 -92.81555649 115.86983626 -92.875 105.4375 C-92.82783946 103.46985727 -92.77306046 101.50238343 -92.7109375 99.53515625 C-92.6809668 98.56980957 -92.65099609 97.60446289 -92.62011719 96.60986328 C-91.95194552 81.39673518 -87.05111975 67.01168683 -82.55859375 52.5859375 C-80.40576876 45.64317233 -78.5603151 38.91233193 -77.625 31.6875 C-76.87494073 27.12367784 -76.3191167 23.8454241 -72.5 20.875 C-69.625 20.125 -69.625 20.125 -66.5 20.875 C-63.56205955 22.7312442 -61.97243571 24.73279184 -60.5 27.875 C-59.19062706 36.10382343 -60.74845882 44.17506742 -62.42480469 52.22827148 C-63.45710046 57.24431301 -63.77322151 61.77486518 -63.5 66.875 C-54.85482899 65.5594305 -49.04705687 59.36932549 -43.953125 52.58984375 C-41.81391205 49.63480467 -39.75626581 46.62570746 -37.70263672 43.61083984 C-35.8765674 40.97516123 -33.93941938 38.42794397 -32 35.875 C-29.217895 32.19969286 -26.51182756 28.48799936 -23.86962891 24.7121582 C-19.99450099 19.18679437 -15.97140575 13.8527832 -11.625 8.6875 C-10.94655029 7.87647827 -10.94655029 7.87647827 -10.25439453 7.04907227 C-4.04810216 -0.20240511 -4.04810216 -0.20240511 0 0 Z " fill="#F8F9FA" transform="translate(199.5,220.125)"/>
<path d="M0 0 C-0.38408623 5.5108025 -2.67268249 8.66440706 -6.125 12.75 C-7.14124058 13.99713774 -8.15556418 15.24583999 -9.16796875 16.49609375 C-9.65958496 17.09921387 -10.15120117 17.70233398 -10.65771484 18.32373047 C-12.93783087 21.17117984 -14.99062752 24.16004453 -17.05078125 27.16796875 C-18.65437869 29.49784479 -20.27861683 31.80860963 -21.91796875 34.11328125 C-22.44527588 34.85537842 -22.97258301 35.59747559 -23.51586914 36.36206055 C-24.5592363 37.82935993 -25.60391576 39.29572739 -26.65014648 40.76098633 C-29.10331502 44.21998224 -31.51791034 47.7039396 -33.84375 51.25 C-34.25044922 51.86617188 -34.65714844 52.48234375 -35.07617188 53.1171875 C-36.72672449 56.48110446 -36.38072562 59.31965232 -36 63 C-35.67 63.66 -35.34 64.32 -35 65 C-35.99 64.67 -36.98 64.34 -38 64 C-38.33 60.04 -38.66 56.08 -39 52 C-38.01 52 -37.02 52 -36 52 C-36.2475 50.948125 -36.495 49.89625 -36.75 48.8125 C-37 45 -37 45 -35.25 42.0625 C-33 40 -33 40 -30 40 C-30 38.68 -30 37.36 -30 36 C-31.485 36.495 -31.485 36.495 -33 37 C-33.99 36.67 -34.98 36.34 -36 36 C-38.63804589 36.39397335 -38.63804589 36.39397335 -41 37 C-41.33 37.99 -41.66 38.98 -42 40 C-43.32 39.67 -44.64 39.34 -46 39 C-45.23707642 38.24493164 -45.23707642 38.24493164 -44.45874023 37.47460938 C-42.11559272 35.15248022 -39.77653398 32.8262723 -37.4375 30.5 C-36.23770508 29.31277344 -36.23770508 29.31277344 -35.01367188 28.1015625 C-30.70865619 23.8141183 -26.57590187 19.45522651 -22.61499023 14.84863281 C-20.12363907 11.99685488 -17.48755131 9.30352992 -14.8125 6.625 C-14.30525391 6.10550781 -13.79800781 5.58601562 -13.27539062 5.05078125 C-8.7929305 0.55087965 -6.32012644 -1.75559068 0 0 Z " fill="#1D59AB" transform="translate(297,210)"/>
<path d="M0 0 C1.53445094 3.06890187 0.54984289 5.70094266 0 9 C1.32 9 2.64 9 4 9 C4.33 8.34 4.66 7.68 5 7 C5 7.66 5 8.32 5 9 C5.99 9 6.98 9 8 9 C8.33 8.01 8.66 7.02 9 6 C9.66 6 10.32 6 11 6 C11.33 5.01 11.66 4.02 12 3 C15.47325181 1.8422494 18.36067448 1.93133348 22 2 C22.495 3.485 22.495 3.485 23 5 C23.65484375 5.28617188 24.3096875 5.57234375 24.984375 5.8671875 C27 7 27 7 27.828125 9.3828125 C27.96734375 10.28773438 28.1065625 11.19265625 28.25 12.125 C28.39953125 13.03507813 28.5490625 13.94515625 28.703125 14.8828125 C28.85007812 15.93082031 28.85007812 15.93082031 29 17 C28.505 16.01 28.505 16.01 28 15 C27.01 15 26.02 15 25 15 C24.9175 13.906875 24.835 12.81375 24.75 11.6875 C24.32656162 8.05330115 24.32656162 8.05330115 22.3125 6.0625 C19.03317716 4.5557841 17.59300485 4.23994128 14 5 C10.99687643 7.36702408 8.52046993 10.13426022 6 13 C5.43410156 13.63550781 4.86820313 14.27101562 4.28515625 14.92578125 C3.15111521 16.21458554 2.02513924 17.5105198 0.90625 18.8125 C-1.30945648 21.35511399 -3.59098592 23.83110198 -5.875 26.3125 C-9.25973236 30.02081072 -12.52025421 33.79184164 -15.6875 37.6875 C-16.41839844 38.58597656 -17.14929688 39.48445313 -17.90234375 40.41015625 C-19.25468365 42.07980496 -20.60147933 43.75396705 -21.94140625 45.43359375 C-22.53824219 46.15675781 -23.13507813 46.87992187 -23.75 47.625 C-24.26046875 48.25664062 -24.7709375 48.88828125 -25.296875 49.5390625 C-27.44945125 51.38553846 -29.22353788 51.6505813 -32 52 C-33.09872776 48.69774641 -33.15716765 47.34737355 -31.69921875 44.125 C-31.03535156 43.09375 -30.37148437 42.0625 -29.6875 41 C-29.32430664 40.43095947 -28.96111328 39.86191895 -28.58691406 39.27563477 C-25.65546753 34.77235207 -22.3766333 30.58259962 -19.01025391 26.39550781 C-14.39252372 20.50045813 -10.71539127 14.04008522 -7.02246094 7.53881836 C-6.54196289 6.70616455 -6.06146484 5.87351074 -5.56640625 5.015625 C-5.14302979 4.26571289 -4.71965332 3.51580078 -4.28344727 2.74316406 C-3 1 -3 1 0 0 Z " fill="#1E5BAE" transform="translate(206,231)"/>
<path d="M0 0 C1.75 0.8125 1.75 0.8125 2.75 1.8125 C2.51315021 9.81604925 -0.76200093 16.80281192 -3.75 24.125 C-4.26781387 25.41175287 -4.78474822 26.69886004 -5.30078125 27.98632812 C-6.24346789 30.33558283 -7.19028619 32.68318691 -8.14257812 35.02856445 C-10.13295238 40.03214419 -10.42211726 43.476865 -10.25 48.8125 C-9.26732141 50.01811184 -9.26732141 50.01811184 -7.40234375 49.91015625 C-5.3515625 49.87760417 -3.30078125 49.84505208 -1.25 49.8125 C-0.981875 49.049375 -0.71375 48.28625 -0.4375 47.5 C0.69424112 44.93869116 1.66223401 43.61557062 3.75 41.8125 C3.75 43.4625 3.75 45.1125 3.75 46.8125 C3.09 46.8125 2.43 46.8125 1.75 46.8125 C0.76 49.2875 0.76 49.2875 -0.25 51.8125 C-1.24 51.8125 -2.23 51.8125 -3.25 51.8125 C-3.58 53.4625 -3.91 55.1125 -4.25 56.8125 C-5.57 56.8125 -6.89 56.8125 -8.25 56.8125 C-8.4975 55.843125 -8.745 54.87375 -9 53.875 C-9.4125 52.864375 -9.825 51.85375 -10.25 50.8125 C-12.27554603 50.07654798 -12.27554603 50.07654798 -14.25 49.8125 C-14.10892253 48.35369891 -13.96197585 46.89546449 -13.8125 45.4375 C-13.73128906 44.62539063 -13.65007812 43.81328125 -13.56640625 42.9765625 C-13.25 40.8125 -13.25 40.8125 -12.25 38.8125 C-12.91 38.8125 -13.57 38.8125 -14.25 38.8125 C-14.25 40.1325 -14.25 41.4525 -14.25 42.8125 C-14.91 42.8125 -15.57 42.8125 -16.25 42.8125 C-16.25 41.8225 -16.25 40.8325 -16.25 39.8125 C-17.24 39.8125 -18.23 39.8125 -19.25 39.8125 C-19.91 38.8225 -20.57 37.8325 -21.25 36.8125 C-22.6421875 37.740625 -22.6421875 37.740625 -24.0625 38.6875 C-26.125 40.0625 -28.1875 41.4375 -30.25 42.8125 C-28.56786939 37.96681694 -25.9434705 33.83047835 -23.25 29.5 C-22.76450684 28.71544434 -22.27901367 27.93088867 -21.77880859 27.12255859 C-20.77026286 25.49377196 -19.76032021 23.86584951 -18.74902344 22.23876953 C-17.30839408 19.90701473 -15.88948722 17.56346341 -14.4765625 15.21484375 C-13.60957708 13.78893961 -12.74239834 12.36315299 -11.875 10.9375 C-11.483125 10.27838623 -11.09125 9.61927246 -10.6875 8.94018555 C-4.94360076 -0.41196673 -4.94360076 -0.41196673 0 0 Z " fill="#1D5BB0" transform="translate(338.25,230.1875)"/>
<path d="M0 0 C0.66 0.33 1.32 0.66 2 1 C2.1340625 1.57621094 2.268125 2.15242188 2.40625 2.74609375 C4.81128904 11.87574851 15.79524206 23.85878291 23.125 29.6875 C25.63753314 31.70845057 27.44420192 33.61170142 29.5 36.0625 C32.39076415 39.46832235 35.15474225 41.74911741 39 44 C42.81684226 42.44499019 45.19195732 39.96404505 48 37 C47.690625 37.763125 47.38125 38.52625 47.0625 39.3125 C46.32106407 41.18789677 45.63771783 43.08684652 45 45 C38.46107784 46.13173653 38.46107784 46.13173653 35.8125 45.375 C34.9153125 45.189375 34.9153125 45.189375 34 45 C32.64664105 45.97272675 31.31337396 46.9739266 30 48 C24.86193064 48 23.11153884 45.81363261 19.625 42.4375 C19.04790283 41.8904541 18.47080566 41.3434082 17.8762207 40.77978516 C13.98390993 37.05229536 10.26864292 33.29593069 7 29 C7 28.34 7 27.68 7 27 C6.34 27 5.68 27 5 27 C3.21229093 24.8664718 1.53127176 22.73155942 -0.125 20.5 C-0.59292969 19.87996094 -1.06085938 19.25992187 -1.54296875 18.62109375 C-2.70096609 17.08497483 -3.85121357 15.54301941 -5 14 C-4.01 14 -3.02 14 -2 14 C0.28228118 16.28228118 1.90502496 18.75961444 3.68359375 21.44140625 C5.01750617 23.29512154 5.01750617 23.29512154 8 24 C8.33 23.34 8.66 22.68 9 22 C8.01 21.67 7.02 21.34 6 21 C6.33 19.02 6.66 17.04 7 15 C6.01 14.67 5.02 14.34 4 14 C3.855625 13.360625 3.71125 12.72125 3.5625 12.0625 C3.19895007 9.79688294 3.19895007 9.79688294 0.9375 8.75 C0.298125 8.5025 -0.34125 8.255 -1 8 C-0.67 5.36 -0.34 2.72 0 0 Z " fill="#1B5BB3" transform="translate(88,358)"/>
<path d="M0 0 C0.66 0.33 1.32 0.66 2 1 C1.34 1.99 0.68 2.98 0 4 C0.99 4.33 1.98 4.66 3 5 C1.35 5.99 -0.3 6.98 -2 8 C-1.34 8 -0.68 8 0 8 C0.495 9.98 0.495 9.98 1 12 C2.65 12 4.3 12 6 12 C1.17403252 17.96895977 -4.2222234 22.96019486 -10 28 C-10.68320313 28.598125 -11.36640625 29.19625 -12.0703125 29.8125 C-13.35290709 30.93412118 -14.63935759 32.05134885 -15.9296875 33.1640625 C-17.48494953 34.54325713 -19.00555105 35.96169524 -20.5078125 37.3984375 C-21.37148437 38.21570313 -22.23515625 39.03296875 -23.125 39.875 C-23.91132813 40.63554687 -24.69765625 41.39609375 -25.5078125 42.1796875 C-28.38372556 44.28027604 -30.48920242 44.68453703 -34 45 C-34.495 43.515 -34.495 43.515 -35 42 C-31.98904477 36.3315495 -26.85359447 31.54377977 -22.55859375 26.8359375 C-14.72722602 18.15567342 -7.20942846 9.20262338 0 0 Z " fill="#1F5AAC" transform="translate(224,254)"/>
<path d="M0 0 C0.59296875 0.22171875 1.1859375 0.4434375 1.796875 0.671875 C1.63397338 8.00244801 -2.22004842 12.73840761 -6.203125 18.671875 C-7.19459303 20.28939888 -8.17429798 21.9142071 -9.140625 23.546875 C-11.49757647 27.50882828 -13.90325812 31.43875402 -16.328125 35.359375 C-19.03930943 39.75336356 -21.68692874 44.16369004 -24.203125 48.671875 C-24.863125 47.351875 -25.523125 46.031875 -26.203125 44.671875 C-25.543125 44.011875 -24.883125 43.351875 -24.203125 42.671875 C-24.52511466 39.57260681 -24.52511466 39.57260681 -25.203125 36.671875 C-24.213125 36.671875 -23.223125 36.671875 -22.203125 36.671875 C-21.543125 35.681875 -20.883125 34.691875 -20.203125 33.671875 C-19.543125 34.001875 -18.883125 34.331875 -18.203125 34.671875 C-18.203125 33.351875 -18.203125 32.031875 -18.203125 30.671875 C-18.533125 31.331875 -18.863125 31.991875 -19.203125 32.671875 C-21.265625 33.296875 -21.265625 33.296875 -23.203125 33.671875 C-23.533125 33.011875 -23.863125 32.351875 -24.203125 31.671875 C-24.863125 31.671875 -25.523125 31.671875 -26.203125 31.671875 C-26.533125 33.651875 -26.863125 35.631875 -27.203125 37.671875 C-28.688125 38.166875 -28.688125 38.166875 -30.203125 38.671875 C-32.0961057 40.75932472 -32.0961057 40.75932472 -33.890625 43.234375 C-34.51324219 44.06066406 -35.13585937 44.88695312 -35.77734375 45.73828125 C-36.24785156 46.37636719 -36.71835937 47.01445312 -37.203125 47.671875 C-37.863125 47.341875 -38.523125 47.011875 -39.203125 46.671875 C-33.79676919 39.04924911 -28.11871612 31.66734385 -22.35473633 24.3137207 C-19.05992341 20.0989708 -15.85557718 15.85126649 -12.765625 11.484375 C-4.04178822 -0.60196846 -4.04178822 -0.60196846 0 0 Z " fill="#245DA9" transform="translate(315.203125,223.328125)"/>
<path d="M0 0 C2.46800047 1.15173355 4.04783565 2.04783565 6 4 C6 5.32 6 6.64 6 8 C6.763125 7.938125 7.52625 7.87625 8.3125 7.8125 C11 8 11 8 12.8125 9.375 C14 11 14 11 14 13 C14.99 13.33 15.98 13.66 17 14 C16.34 15.32 15.68 16.64 15 18 C15.66 18.66 16.32 19.32 17 20 C17.495 20.99 17.495 20.99 18 22 C18.66 21.67 19.32 21.34 20 21 C19.896875 22.093125 19.79375 23.18625 19.6875 24.3125 C19.8421875 26.1378125 19.8421875 26.1378125 20 28 C22.33942344 29.7536564 22.33942344 29.7536564 25 31 C26.3125 33.1875 26.3125 33.1875 27 35 C27.99 34.67 28.98 34.34 30 34 C30 33.236875 30 32.47375 30 31.6875 C30 29.79166667 30 27.89583333 30 26 C36.39187384 32.81517674 41.66479905 40.35681473 47 48 C46.505 48.99 46.505 48.99 46 50 C45.32453125 49.10796875 44.6490625 48.2159375 43.953125 47.296875 C43.05224025 46.11446376 42.1511898 44.93217876 41.25 43.75 C40.8065625 43.16347656 40.363125 42.57695312 39.90625 41.97265625 C37.4487493 38.75622151 34.95317252 35.78757406 32 33 C32.495 34.98 32.495 34.98 33 37 C32.34 37 31.68 37 31 37 C31.2475 38.6396875 31.2475 38.6396875 31.5 40.3125 C32 44 32 44 32 47 C31.33355469 46.12859375 30.66710937 45.2571875 29.98046875 44.359375 C17.67410329 27.34744855 17.67410329 27.34744855 2 14 C-6.88572419 14.52804509 -17.39683699 26.4824634 -24 32 C-24.68707555 29.50935112 -25 27.62113708 -25 25 C-23.02 25.33 -21.04 25.66 -19 26 C-19 25.34 -19 24.68 -19 24 C-17.57421875 22.4921875 -17.57421875 22.4921875 -15.6875 20.875 C-15.07261719 20.33617188 -14.45773437 19.79734375 -13.82421875 19.2421875 C-12 18 -12 18 -9 18 C-9 17.01 -9 16.02 -9 15 C-7.02 14.67 -5.04 14.34 -3 14 C-3 13.01 -3 12.02 -3 11 C-2.01 10.34 -1.02 9.68 0 9 C1.20450304 6.44816596 1.20450304 6.44816596 2 4 C1.34 3.67 0.68 3.34 0 3 C0 2.01 0 1.02 0 0 Z " fill="#195BB4" transform="translate(377,89)"/>
<path d="M0 0 C0.69770508 -0.00100708 1.39541016 -0.00201416 2.11425781 -0.00305176 C21.13185148 0.01535935 39.62447608 1.97698922 57.9375 7.25 C59.26917196 7.58990981 60.6016826 7.92676517 61.9375 8.25 C61.9375 8.91 61.9375 9.57 61.9375 10.25 C60.2875 10.58 58.6375 10.91 56.9375 11.25 C56.9375 10.59 56.9375 9.93 56.9375 9.25 C54.1270434 8.61448511 51.31459551 7.9917179 48.5 7.375 C47.73623047 7.20097656 46.97246094 7.02695312 46.18554688 6.84765625 C31.91668823 3.75320498 17.68639298 2.89771339 3.12670898 2.93432617 C0.50527545 2.93749363 -2.11503205 2.913879 -4.73632812 2.88867188 C-16.89520205 2.84442468 -29.42691391 3.3714713 -41.0625 7.25 C-42.95161359 7.47039659 -44.84106763 7.69022902 -46.734375 7.87109375 C-49.93281293 8.39164489 -52.95704992 9.32791514 -56.0625 10.25 C-57.21105469 10.57097656 -58.35960937 10.89195313 -59.54296875 11.22265625 C-73.62638518 15.36309164 -87.49984292 20.97268697 -99.89453125 28.9140625 C-102.31955829 30.40840349 -104.80940136 31.63901817 -107.375 32.875 C-111.01204179 34.6392793 -113.96170583 36.63370492 -117.0625 39.25 C-117.7225 39.25 -118.3825 39.25 -119.0625 39.25 C-119.0625 39.91 -119.0625 40.57 -119.0625 41.25 C-120.0525 40.92 -121.0425 40.59 -122.0625 40.25 C-112.7635494 33.04787159 -103.76191387 27.21147482 -93.0625 22.25 C-91.518691 21.441578 -89.97686144 20.62935905 -88.4375 19.8125 C-77.17500843 14.20917775 -65.26566804 9.21841727 -52.88671875 6.8203125 C-49.96038323 6.27193974 -49.96038323 6.27193974 -46.7578125 5.27734375 C-42.61024458 4.12426726 -38.49488046 3.37262588 -34.25 2.6875 C-33.50685547 2.56181641 -32.76371094 2.43613281 -31.99804688 2.30664062 C-21.32655077 0.55103705 -10.81379099 0.01089325 0 0 Z " fill="#194A84" transform="translate(249.0625,42.75)"/>
<path d="M0 0 C8.19256018 -0.4726477 8.19256018 -0.4726477 11.5625 1.5 C13 3 13 3 13 6.5625 C12.52519054 10.5145905 11.25402614 12.12391378 8.25 14.6875 C6.83371279 15.79215335 5.41706769 16.89634804 4 18 C3.04509186 18.96219751 2.10453331 19.93913958 1.1875 20.9375 C-1 23 -1 23 -4 23 C-4.495 24.485 -4.495 24.485 -5 26 C-6.31647119 26.69937532 -7.65022151 27.36729133 -9 28 C-9.33 28.66 -9.66 29.32 -10 30 C-12 31 -14 32 -16 33 C-16.495 33.99 -16.495 33.99 -17 35 C-17.99 35 -18.98 35 -20 35 C-20.28875 35.94875 -20.5775 36.8975 -20.875 37.875 C-22 41 -22 41 -24 43 C-24.721875 43.061875 -25.44375 43.12375 -26.1875 43.1875 C-30.58172289 44.45694217 -33.21163542 47.45841486 -36 51 C-37.26784124 54.13350717 -37.26784124 54.13350717 -38 57 C-39.82818405 59.69416596 -40.96936193 59.9921903 -44.1875 60.8125 C-48.97241344 62.30288287 -52.17670135 64.84205463 -56 68 C-56 67.01 -56 66.02 -56 65 C-54.03472548 63.3403017 -52.09271919 61.85654323 -50 60.375 C-44.97207004 56.67833263 -40.83697728 52.86779146 -36.8046875 48.07421875 C-33.84793234 44.67587029 -30.44557617 41.88683408 -27 39 C-25.5459375 37.7315625 -25.5459375 37.7315625 -24.0625 36.4375 C-18.66723215 31.75126796 -13.24058486 27.37366101 -7.3125 23.375 C3.18090619 16.92381707 3.18090619 16.92381707 9.765625 7.234375 C9.84296875 6.49703125 9.9203125 5.7596875 10 5 C7.44931155 2.64551835 6.28982642 2.01672076 2.75 1.8125 C1.8425 1.874375 0.935 1.93625 0 2 C0 1.34 0 0.68 0 0 Z " fill="#2B5B9E" transform="translate(235,298)"/>
<path d="M0 0 C4.69710468 1.48329621 4.69710468 1.48329621 6.0625 3.8125 C6.371875 4.534375 6.68125 5.25625 7 6 C7.70125 6.86625 8.4025 7.7325 9.125 8.625 C11 11 11 11 11 13 C11.66 13 12.32 13 13 13 C15.38167248 15.78389041 17.58018465 18.68617174 19.80859375 21.59375 C20.53175781 22.3878125 21.25492188 23.181875 22 24 C22.99 24 23.98 24 25 24 C25.99 24.33 26.98 24.66 28 25 C28.33 23.35 28.66 21.7 29 20 C33.3769202 21.89998127 36.35382022 24.97716195 39.78125 28.22265625 C42.07666251 30.31471053 42.07666251 30.31471053 46 31 C47.98 28.69 49.96 26.38 52 24 C52 27.20395416 51.25664978 29.09399739 50 32 C43.46107784 33.13173653 43.46107784 33.13173653 40.8125 32.375 C39.9153125 32.189375 39.9153125 32.189375 39 32 C37.64664105 32.97272675 36.31337396 33.9739266 35 35 C29.86193064 35 28.11153884 32.81363261 24.625 29.4375 C24.04790283 28.8904541 23.47080566 28.3434082 22.8762207 27.77978516 C18.98390993 24.05229536 15.26864292 20.29593069 12 16 C12 15.34 12 14.68 12 14 C11.34 14 10.68 14 10 14 C8.20849615 11.88837497 6.53029747 9.77651833 4.875 7.5625 C4.40707031 6.95083984 3.93914062 6.33917969 3.45703125 5.70898438 C0 1.14832362 0 1.14832362 0 0 Z " fill="#184E97" transform="translate(83,371)"/>
<path d="M0 0 C4.13758731 1.71558498 4.13758731 1.71558498 5.5625 4.0625 C5.20666103 8.3468012 3.82957946 10.2736122 0.75 13.1875 C0.06292969 13.85007812 -0.62414062 14.51265625 -1.33203125 15.1953125 C-5.38100962 18.78605769 -5.38100962 18.78605769 -7.4375 20.0625 C-8.4275 19.7325 -9.4175 19.4025 -10.4375 19.0625 C-10.1075 18.299375 -9.7775 17.53625 -9.4375 16.75 C-8.26313314 14.07180865 -8.26313314 14.07180865 -8.4375 11.0625 C-7.7775 10.7325 -7.1175 10.4025 -6.4375 10.0625 C-6.1075 9.0725 -5.7775 8.0825 -5.4375 7.0625 C-7.7475 7.0625 -10.0575 7.0625 -12.4375 7.0625 C-12.7675 8.0525 -13.0975 9.0425 -13.4375 10.0625 C-15.0875 10.3925 -16.7375 10.7225 -18.4375 11.0625 C-13.71296139 5.7080229 -7.38592544 0.13428955 0 0 Z " fill="#F1F7FA" transform="translate(240.4375,298.9375)"/>
<path d="M0 0 C0.33 0 0.66 0 1 0 C2.79027196 10.79362711 3.31463228 21.30437659 3.26074219 32.23266602 C3.25005524 34.79923352 3.26068691 37.36509462 3.2734375 39.93164062 C3.28652333 54.31804171 2.42276451 68.66218759 -1 82.6875 C-1.165 83.40615234 -1.33 84.12480469 -1.5 84.86523438 C-2.92332601 90.97552846 -4.6132167 96.99359479 -6.625 102.9375 C-6.88539063 103.70964844 -7.14578125 104.48179687 -7.4140625 105.27734375 C-7.60742188 105.84582031 -7.80078125 106.41429687 -8 107 C-8.66 106.34 -9.32 105.68 -10 105 C-9.81824219 104.41734375 -9.63648438 103.8346875 -9.44921875 103.234375 C-5.52278062 91.3205917 -5.52278062 91.3205917 -4 79 C-3.34 79 -2.68 79 -2 79 C-1.94013916 78.27006836 -1.88027832 77.54013672 -1.81860352 76.78808594 C-1.38767627 71.57023694 -0.94531737 66.35416196 -0.46484375 61.140625 C1.12405511 43.64807984 1.17232889 27.02452946 -0.37597656 9.51806641 C-0.46975586 8.43058105 -0.56353516 7.3430957 -0.66015625 6.22265625 C-0.74918213 5.24047119 -0.83820801 4.25828613 -0.92993164 3.24633789 C-0.96461548 2.13440063 -0.96461548 2.13440063 -1 1 C-0.67 0.67 -0.34 0.34 0 0 Z " fill="#103E7E" transform="translate(453,213)"/>
<path d="M0 0 C0 3.31934673 -0.43709146 4.02487607 -2.3125 6.625 C-2.74175781 7.23601562 -3.17101562 7.84703125 -3.61328125 8.4765625 C-5 10 -5 10 -8 11 C-8.33 11.99 -8.66 12.98 -9 14 C-11.21063854 15.62228855 -13.52257831 16.98871086 -15.87109375 18.40234375 C-18.14381124 20.1079244 -18.96779049 21.38845354 -20 24 C-17.69 24 -15.38 24 -13 24 C-12.87625 23.4225 -12.7525 22.845 -12.625 22.25 C-11.99351176 19.97664233 -11.11141809 18.0746471 -10 16 C-8.02 16.33 -6.04 16.66 -4 17 C-3.67 15.35 -3.34 13.7 -3 12 C-0.525 12.495 -0.525 12.495 2 13 C2.33 12.01 2.66 11.02 3 10 C4.65 10 6.3 10 8 10 C4.00823151 13.1979509 0.01022573 16.38773796 -4 19.5625 C-4.60328125 20.04396484 -5.2065625 20.52542969 -5.828125 21.02148438 C-15.25478657 28.47059629 -15.25478657 28.47059629 -22 28 C-22.66796875 25.7265625 -22.66796875 25.7265625 -23 23 C-21.98828125 21.1484375 -21.98828125 21.1484375 -20.3125 19.375 C-19.3534375 18.35792969 -19.3534375 18.35792969 -18.375 17.3203125 C-14.59155849 13.62398971 -10.7067073 10.04719156 -6.76953125 6.515625 C-4.44219343 4.40165384 -2.19878998 2.24601936 0 0 Z " fill="#245CA4" transform="translate(224,292)"/>
<path d="M0 0 C1.32 0 2.64 0 4 0 C4.625 1.8125 4.625 1.8125 5 4 C4.01 5.485 4.01 5.485 3 7 C2.34 7 1.68 7 1 7 C1 7.99 1 8.98 1 10 C-0.32 9.67 -1.64 9.34 -3 9 C-3.33 11.31 -3.66 13.62 -4 16 C-5.32 16.33 -6.64 16.66 -8 17 C-8.33 18.98 -8.66 20.96 -9 23 C-9.66 22.34 -10.32 21.68 -11 21 C-13.82957829 21.36276645 -16.29084291 22.09694764 -19 23 C-18.67 21.68 -18.34 20.36 -18 19 C-17.34 19 -16.68 19 -16 19 C-15.67 18.34 -15.34 17.68 -15 17 C-8.72990354 8.08681672 -8.72990354 8.08681672 -5 5 C-4.01 5 -3.02 5 -2 5 C-1.34 3.35 -0.68 1.7 0 0 Z " fill="#185AB4" transform="translate(288,213)"/>
<path d="M0 0 C-0.38405116 5.51029931 -2.67187883 8.66505052 -6.125 12.75 C-7.12579901 13.97484874 -8.12448898 15.20142367 -9.12109375 16.4296875 C-9.61077637 17.03006836 -10.10045898 17.63044922 -10.60498047 18.24902344 C-13.60761833 22.01782266 -16.30513184 26.00828403 -19 30 C-19.66 29.01 -20.32 28.02 -21 27 C-20.01 27 -19.02 27 -18 27 C-17.67 24.69 -17.34 22.38 -17 20 C-16.01 19.67 -15.02 19.34 -14 19 C-12.77030122 15.48809191 -12.77030122 15.48809191 -12 12 C-10.68 12.33 -9.36 12.66 -8 13 C-8 12.01 -8 11.02 -8 10 C-7.505 9.525625 -7.01 9.05125 -6.5 8.5625 C-4.53831211 6.88006936 -4.53831211 6.88006936 -5 3 C-6.32 3 -7.64 3 -9 3 C-9.226875 3.763125 -9.45375 4.52625 -9.6875 5.3125 C-11.29949457 8.61325079 -12.82534664 9.26149935 -16 11 C-17.36984198 12.29579647 -18.7151049 13.61992749 -20 15 C-20.66 14.67 -21.32 14.34 -22 14 C-19.92276313 11.86873096 -17.83868836 9.74499632 -15.75 7.625 C-15.16347656 7.02171875 -14.57695312 6.4184375 -13.97265625 5.796875 C-13.39902344 5.21679688 -12.82539063 4.63671875 -12.234375 4.0390625 C-11.71069336 3.50490723 -11.18701172 2.97075195 -10.64746094 2.42041016 C-6.97078664 -0.74954999 -4.68432893 -1.30120248 0 0 Z " fill="#2C60A4" transform="translate(297,210)"/>
<path d="M0 0 C-26.23449438 12.95886111 -54.28028216 22.65645963 -84 22 C-81.03742644 19.03742644 -77.61999835 19.43697298 -73.625 19.125 C-51.88324063 17.1101834 -30.68026189 11.92683348 -10.92578125 2.5390625 C-9.44658203 1.83910156 -9.44658203 1.83910156 -7.9375 1.125 C-7.05964844 0.69445312 -6.18179688 0.26390625 -5.27734375 -0.1796875 C-3 -1 -3 -1 0 0 Z " fill="#104077" transform="translate(346,434)"/>
<path d="M0 0 C0.66 0.33 1.32 0.66 2 1 C1.38253906 1.78761719 0.76507813 2.57523438 0.12890625 3.38671875 C-5.20799057 10.23844139 -10.27378751 17.1895141 -15.08984375 24.41796875 C-17 27 -17 27 -20 29 C-20 27.35 -20 25.7 -20 24 C-20.66 24 -21.32 24 -22 24 C-22 23.34 -22 22.68 -22 22 C-21.34 22 -20.68 22 -20 22 C-19.9175 21.4225 -19.835 20.845 -19.75 20.25 C-18.75159139 17.25477417 -17.51886469 15.88914852 -15 14 C-12.25 14.25 -12.25 14.25 -10 15 C-10.66 12.69 -11.32 10.38 -12 8 C-11.05125 7.731875 -10.1025 7.46375 -9.125 7.1875 C-5.48134338 5.80291049 -4.70308072 4.40616144 -3 1 C-2.01 0.67 -1.02 0.34 0 0 Z " fill="#1F5AAC" transform="translate(182,234)"/>
<path d="M0 0 C2.1796875 0.34765625 2.1796875 0.34765625 4 1 C3.82836574 8.72354191 -0.50238325 15.29664108 -5.7265625 20.828125 C-6.14679688 21.21484375 -6.56703125 21.6015625 -7 22 C-7.33 20.02 -7.66 18.04 -8 16 C-7.34 16 -6.68 16 -6 16 C-5.87625 15.443125 -5.7525 14.88625 -5.625 14.3125 C-4.94023145 11.77885636 -4.00866237 9.42078968 -3 7 C-5.8087774 9.58103869 -7.84627918 11.69255836 -9.5625 15.125 C-11.04390787 18.08781574 -12.22623835 19.27835484 -15 21 C-15.66 20.67 -16.32 20.34 -17 20 C-15.948125 18.7625 -15.948125 18.7625 -14.875 17.5 C-12.83650669 15.06529249 -10.93261014 12.56585032 -9.0625 10 C-6.28089546 6.2888104 -3.54730836 3.00750057 0 0 Z " fill="#2259A6" transform="translate(313,223)"/>
<path d="M0 0 C0.66 0 1.32 0 2 0 C1.52449439 1.48034764 1.04448784 2.95925021 0.5625 4.4375 C0.29566406 5.26121094 0.02882813 6.08492187 -0.24609375 6.93359375 C-1 9 -1 9 -2 10 C-1.979375 10.94875 -1.95875 11.8975 -1.9375 12.875 C-2 16 -2 16 -4 19 C-4.99 19 -5.98 19 -7 19 C-7 19.66 -7 20.32 -7 21 C-7.99 21.33 -8.98 21.66 -10 22 C-10 21.34 -10 20.68 -10 20 C-10.45375 20.495 -10.9075 20.99 -11.375 21.5 C-13 23 -13 23 -15 23 C-14.4432292 19.65937521 -13.9118658 16.82227809 -12 14 C-11.05125 13.4225 -10.1025 12.845 -9.125 12.25 C-5.58636397 9.70218206 -4.53911973 7.70935726 -2.859375 3.8046875 C-2 2 -2 2 0 0 Z " fill="#1A5AB3" transform="translate(308,230)"/>
<path d="M0 0 C0.66 0.33 1.32 0.66 2 1 C2.1340625 1.57621094 2.268125 2.15242188 2.40625 2.74609375 C5.1363018 13.10951405 17.50180318 25.68082801 26 32 C25.01 32.66 24.02 33.32 23 34 C22.34 33.67 21.68 33.34 21 33 C21 32.01 21 31.02 21 30 C20.1028125 29.566875 20.1028125 29.566875 19.1875 29.125 C15.4758654 27.21615935 13.64892808 25.80521864 12 22 C11.01 22 10.02 22 9 22 C8.01 21.67 7.02 21.34 6 21 C6.33 19.02 6.66 17.04 7 15 C6.01 14.67 5.02 14.34 4 14 C3.855625 13.360625 3.71125 12.72125 3.5625 12.0625 C3.19895007 9.79688294 3.19895007 9.79688294 0.9375 8.75 C0.298125 8.5025 -0.34125 8.255 -1 8 C-0.67 5.36 -0.34 2.72 0 0 Z " fill="#2B5CA3" transform="translate(88,358)"/>
<path d="M0 0 C5.15136786 3.53125781 8.28064219 8.21011372 11.8125 13.25 C12.40998047 14.09046875 13.00746094 14.9309375 13.62304688 15.796875 C15.08845194 17.86016533 16.54714694 19.92786156 18 22 C17.67 22.66 17.34 23.32 17 24 C16.32453125 23.10796875 15.6490625 22.2159375 14.953125 21.296875 C14.05224025 20.11446376 13.1511898 18.93217876 12.25 17.75 C11.8065625 17.16347656 11.363125 16.57695312 10.90625 15.97265625 C8.4487493 12.75622151 5.95317252 9.78757406 3 7 C3.33 8.32 3.66 9.64 4 11 C3.34 11 2.68 11 2 11 C2.165 12.093125 2.33 13.18625 2.5 14.3125 C3 18 3 18 3 21 C1.20697179 18.73023018 -0.58446793 16.45923756 -2.375 14.1875 C-3.13683594 13.22360352 -3.13683594 13.22360352 -3.9140625 12.24023438 C-4.40390625 11.61826172 -4.89375 10.99628906 -5.3984375 10.35546875 C-5.84880371 9.78465576 -6.29916992 9.21384277 -6.76318359 8.62573242 C-7.90263341 7.12798345 -8.95610229 5.56584656 -10 4 C-9.01 3.67 -8.02 3.34 -7 3 C-3.125 6.75 -3.125 6.75 -2 9 C-1.01 8.67 -0.02 8.34 1 8 C1.08226668 4.95613276 0.97608217 2.92824652 0 0 Z " fill="#1C4E93" transform="translate(406,115)"/>
<path d="M0 0 C1.32 0.33 2.64 0.66 4 1 C-0.70496444 4.80291583 -6.0795926 6.75917782 -11.625 9.0625 C-12.66785156 9.50916016 -13.71070313 9.95582031 -14.78515625 10.41601562 C-21.1269071 13.06434978 -27.19837927 14.97568236 -34 16 C-33.67 15.34 -33.34 14.68 -33 14 C-30.4375 13.375 -30.4375 13.375 -28 13 C-28 12.34 -28 11.68 -28 11 C-28.66 10.67 -29.32 10.34 -30 10 C-28.68 9.34 -27.36 8.68 -26 8 C-25.67 8.99 -25.34 9.98 -25 11 C-23.96875 10.38125 -22.9375 9.7625 -21.875 9.125 C-18.67703711 7.29296863 -15.54482838 6.04733566 -12 5 C-11.01 4.67 -10.02 4.34 -9 4 C-7.44091346 3.63109697 -5.87806959 3.27784121 -4.3125 2.9375 C-3.50425781 2.76089844 -2.69601562 2.58429688 -1.86328125 2.40234375 C-1.24839844 2.26957031 -0.63351562 2.13679687 0 2 C0 1.34 0 0.68 0 0 Z " fill="#255BA5" transform="translate(282,143)"/>
<path d="M0 0 C0 3.96018245 -1.18721244 6.5039097 -3 10 C-5.1875 10.9375 -5.1875 10.9375 -7 11 C-7 13.31 -7 15.62 -7 18 C-6.01 18 -5.02 18 -4 18 C-3.67 16.68 -3.34 15.36 -3 14 C-2.01 14.33 -1.02 14.66 0 15 C-1.04714924 16.32477959 -2.11344669 17.63443746 -3.1875 18.9375 C-3.77917969 19.66839844 -4.37085938 20.39929688 -4.98046875 21.15234375 C-7.32505203 23.29738803 -8.88391498 23.66094412 -12 24 C-13.20310864 20.52650892 -13.12485613 19.26391547 -11.5234375 15.87890625 C-10.81445312 14.78449219 -10.10546875 13.69007813 -9.375 12.5625 C-9.00761719 11.98991455 -8.64023438 11.4173291 -8.26171875 10.82739258 C-5.75140017 6.97108081 -3.10181375 3.39260878 0 0 Z " fill="#2259A7" transform="translate(186,259)"/>
<path d="M0 0 C0 3.20395416 -0.74335022 5.09399739 -2 8 C-1.34 8.33 -0.68 8.66 0 9 C-1.9375 9.5625 -1.9375 9.5625 -4 10 C-4.33 9.67 -4.66 9.34 -5 9 C-5.29132813 9.49628906 -5.58265625 9.99257813 -5.8828125 10.50390625 C-12.98800165 22.27885809 -12.98800165 22.27885809 -18.625 25.5 C-21.15969823 26.03362068 -22.58967173 25.89271417 -25 25 C-24.67 24.34 -24.34 23.68 -24 23 C-23.23171875 22.87367188 -22.4634375 22.74734375 -21.671875 22.6171875 C-18.34023392 21.84759789 -17.41773961 20.7281403 -15.25 18.125 C-14.57195312 17.32191406 -13.89390625 16.51882813 -13.1953125 15.69140625 C-12.47085938 14.80324219 -11.74640625 13.91507812 -11 13 C-10.19304687 12.01902344 -9.38609375 11.03804688 -8.5546875 10.02734375 C-6.99063717 8.11880002 -5.43282437 6.20511869 -3.8828125 4.28515625 C-2 2 -2 2 0 0 Z " fill="#E5F4FB" transform="translate(198,259)"/>
<path d="M0 0 C2.97 0.33 5.94 0.66 9 1 C8.67 1.99 8.34 2.98 8 4 C7.13890625 3.74347656 6.2778125 3.48695312 5.390625 3.22265625 C0.93448101 2.93002928 -1.02707846 4.67947473 -4.25 7.4375 C-4.80776123 7.89108887 -5.36552246 8.34467773 -5.94018555 8.81201172 C-7.08168088 9.7420708 -8.21738522 10.67928285 -9.34716797 11.62353516 C-11.80124441 13.66726972 -14.30944116 15.64177984 -16.8125 17.625 C-18.2093692 18.74871354 -19.60563685 19.87317831 -21 21 C-21.68707555 18.50935112 -22 16.62113708 -22 14 C-19.03 14.495 -19.03 14.495 -16 15 C-16 14.34 -16 13.68 -16 13 C-14.57421875 11.4921875 -14.57421875 11.4921875 -12.6875 9.875 C-12.07261719 9.33617188 -11.45773437 8.79734375 -10.82421875 8.2421875 C-9 7 -9 7 -6 7 C-6 6.01 -6 5.02 -6 4 C-4.02 3.67 -2.04 3.34 0 3 C0 2.01 0 1.02 0 0 Z " fill="#265AA2" transform="translate(374,100)"/>
<path d="M0 0 C0 3.59760476 -0.89512296 4.2215623 -3 7 C-3.165 7.680625 -3.33 8.36125 -3.5 9.0625 C-4.11939447 11.46265358 -5.27185846 12.27185846 -7 14 C-8.0400836 17.11336282 -8.1054586 19.98514672 -8.0625 23.25 C-8.04896484 24.58804688 -8.04896484 24.58804688 -8.03515625 25.953125 C-8.02355469 26.62859375 -8.01195312 27.3040625 -8 28 C-8.99 28 -9.98 28 -11 28 C-11.0825 28.845625 -11.165 29.69125 -11.25 30.5625 C-12.15733853 34.72113491 -13.76541273 37.39582699 -16 41 C-16.66 40.67 -17.32 40.34 -18 40 C-17.68546875 39.30777344 -17.3709375 38.61554688 -17.046875 37.90234375 C-14.51836084 32.12179481 -12.54264838 26.51418084 -11.0625 20.375 C-9.06723416 12.47504502 -6.01192105 5.63729096 0 0 Z " fill="#2E60A0" transform="translate(396,164)"/>
<path d="M0 0 C1.13138886 3.87904753 2.02527052 7.94829383 2 12 C1.04701223 13.36733028 0.04625409 14.70264493 -1 16 C-1.25063732 19.66714849 -1.25063732 19.66714849 -1 23 C-1.66 23 -2.32 23 -3 23 C-3.20496094 23.89203125 -3.40992188 24.7840625 -3.62109375 25.703125 C-3.89050781 26.87359375 -4.15992188 28.0440625 -4.4375 29.25 C-4.70433594 30.41015625 -4.97117187 31.5703125 -5.24609375 32.765625 C-5.80968 35.18349761 -6.38669951 37.59443304 -7 40 C-7.66 39.67 -8.32 39.34 -9 39 C-3.01923077 6.03846154 -3.01923077 6.03846154 0 0 Z " fill="#174C8C" transform="translate(54,183)"/>
<path d="M0 0 C0.66 0.33 1.32 0.66 2 1 C-3.14260954 12.58636124 -8.29966482 24.14956036 -14.4375 35.25 C-14.83759277 35.9807373 -15.23768555 36.71147461 -15.64990234 37.46435547 C-17.73599973 41.15744233 -19.7831008 44.15681802 -23 47 C-22.3525226 43.53080009 -20.94987544 41.08757953 -19.0625 38.125 C-16.79987003 34.46708154 -15.30216958 31.10684253 -14 27 C-13.29339233 26.29580933 -13.29339233 26.29580933 -12.57250977 25.57739258 C-10.86916464 23.86875838 -10.0425489 22.37816313 -9.02734375 20.19921875 C-8.68509766 19.46896484 -8.34285156 18.73871094 -7.99023438 17.98632812 C-7.64283203 17.22771484 -7.29542969 16.46910156 -6.9375 15.6875 C-6.58623047 14.94048828 -6.23496094 14.19347656 -5.87304688 13.42382812 C-3.97659019 9.34053102 -2.38961629 5.28852874 -1 1 C-0.67 0.67 -0.34 0.34 0 0 Z " fill="#133C78" transform="translate(442,321)"/>
<path d="M0 0 C2.75006109 2.97830502 4.74766607 6.13766171 6 10 C5.2109375 12.203125 5.2109375 12.203125 4 14 C3.67 14.66 3.34 15.32 3 16 C2.01 16.33 1.02 16.66 0 17 C-1.2065625 18.2375 -1.2065625 18.2375 -2.4375 19.5 C-4.83695476 21.84093148 -5.77134114 22.64126013 -9 23 C-6.22169429 19.3984926 -3.2594334 16.17134061 0 13 C1.31189416 11.90201339 1.31189416 11.90201339 1.25 9.1875 C0.9742861 5.67214774 0.61353342 4.34316789 -2 2 C-5.1408885 1.60738894 -6.97923697 1.99307899 -10 3 C-10 2.34 -10 1.68 -10 1 C-6.64158931 -0.67920534 -3.54408913 -1.14430922 0 0 Z " fill="#295CA2" transform="translate(240,263)"/>
<path d="M0 0 C0.33 0.33 0.66 0.66 1 1 C0.71269945 3.33944736 0.38063221 5.6739143 0 8 C-0.33 8 -0.66 8 -1 8 C-1.33 6.02 -1.66 4.04 -2 2 C-2.99 2.66 -3.98 3.32 -5 4 C-5.99 4 -6.98 4 -8 4 C-8 6.97 -8 9.94 -8 13 C-10.31 13.33 -12.62 13.66 -15 14 C-13.66117477 10.22451284 -11.98364112 7.38612311 -9.5 4.25 C-8.58734375 3.08210937 -8.58734375 3.08210937 -7.65625 1.890625 C-5.00495846 -1.13584931 -3.69686677 -1.19253767 0 0 Z " fill="#2258A5" transform="translate(340,231)"/>
<path d="M0 0 C1.98 0.66 3.96 1.32 6 2 C1.43492321 8.40900977 -3.66917468 14.2190161 -9 20 C-9.66 18.68 -10.32 17.36 -11 16 C-9.1875 13.5 -9.1875 13.5 -7 11 C-6.01 11 -5.02 11 -4 11 C-4 10.34 -4 9.68 -4 9 C-3.01 9 -2.02 9 -1 9 C-0.67 6.03 -0.34 3.06 0 0 Z " fill="#255CA4" transform="translate(258,210)"/>
<path d="M0 0 C1.65 0 3.3 0 5 0 C5 0.99 5 1.98 5 3 C-5.92711678 5.89723015 -16.84371036 8.17743783 -28 10 C-28.33 9.34 -28.66 8.68 -29 8 C-26.98177083 7.54427083 -24.96354167 7.08854167 -22.9453125 6.6328125 C-20.79280036 6.09525572 -20.79280036 6.09525572 -19 4 C-19 4.66 -19 5.32 -19 6 C-16.0183929 5.38517411 -13.04009328 4.75872174 -10.0625 4.125 C-9.21236328 3.95097656 -8.36222656 3.77695313 -7.48632812 3.59765625 C-6.67744141 3.42363281 -5.86855469 3.24960938 -5.03515625 3.0703125 C-3.91185913 2.83465576 -3.91185913 2.83465576 -2.76586914 2.59423828 C-0.78565771 2.1588839 -0.78565771 2.1588839 0 0 Z " fill="#2D5DA2" transform="translate(339,124)"/>
<path d="M0 0 C0.61875 0.350625 1.2375 0.70125 1.875 1.0625 C2.57625 1.371875 3.2775 1.68125 4 2 C4.66 1.67 5.32 1.34 6 1 C6 1.66 6 2.32 6 3 C8.97 3.495 8.97 3.495 12 4 C12.33 4.99 12.66 5.98 13 7 C13.66 6.67 14.32 6.34 15 6 C15 8.97 15 11.94 15 15 C9.72997792 10.60831493 4.64697949 6.0573621 0 1 C0 0.67 0 0.34 0 0 Z " fill="#1C57A4" transform="translate(382,104)"/>
<path d="M0 0 C0 3.31934673 -0.43709146 4.02487607 -2.3125 6.625 C-2.74175781 7.23601562 -3.17101562 7.84703125 -3.61328125 8.4765625 C-5 10 -5 10 -8 11 C-8.33 11.99 -8.66 12.98 -9 14 C-11.21430916 15.58598269 -13.52338627 16.92545646 -15.87109375 18.3046875 C-18.38734118 20.30845151 -19.05909519 21.96648177 -20 25 C-20.99 24.67 -21.98 24.34 -23 24 C-21.0476126 20.49071269 -19.04173112 17.83726808 -16.09375 15.1171875 C-15.34996094 14.42496094 -14.60617188 13.73273438 -13.83984375 13.01953125 C-13.06769531 12.31183594 -12.29554688 11.60414063 -11.5 10.875 C-9.96850072 9.45599816 -8.43724125 8.03673745 -6.90625 6.6171875 C-6.22884766 5.99440918 -5.55144531 5.37163086 -4.85351562 4.72998047 C-3.19912809 3.18585638 -1.58856643 1.61141906 0 0 Z " fill="#305FA0" transform="translate(224,292)"/>
<path d="M0 0 C0.33 0.99 0.66 1.98 1 3 C1.98226562 3.42925781 1.98226562 3.42925781 2.984375 3.8671875 C5 5 5 5 5.828125 7.3828125 C5.96734375 8.28773438 6.1065625 9.19265625 6.25 10.125 C6.39953125 11.03507813 6.5490625 11.94515625 6.703125 12.8828125 C6.85007813 13.93082031 6.85007813 13.93082031 7 15 C6.67 14.34 6.34 13.68 6 13 C5.01 13 4.02 13 3 13 C2.9175 11.906875 2.835 10.81375 2.75 9.6875 C2.32656162 6.05330115 2.32656162 6.05330115 0.3125 4.0625 C-2.80517625 2.63005415 -4.59505052 2.45520808 -8 3 C-10.26783513 4.48440117 -12.02170272 6.11590735 -14 8 C-13.67 6.68 -13.34 5.36 -13 4 C-12.34 4 -11.68 4 -11 4 C-10.67 3.01 -10.34 2.02 -10 1 C-6.52674819 -0.1577506 -3.63932552 -0.06866652 0 0 Z " fill="#295A9D" transform="translate(228,233)"/>
<path d="M0 0 C4.04282679 1.64635597 6.93485461 4.4876092 10.0625 7.4375 C10.62670654 7.96375977 11.19091309 8.49001953 11.7722168 9.03222656 C17.30938745 14.2274434 22.67962907 19.58367048 28 25 C27.67 25.66 27.34 26.32 27 27 C26.34 27 25.68 27 25 27 C24.608125 26.319375 24.21625 25.63875 23.8125 24.9375 C21.80359122 21.68168232 19.50833542 19.34993198 16.765625 16.7109375 C15.24582555 15.23821148 13.80195412 13.68785451 12.375 12.125 C10.1826535 9.79335764 10.1826535 9.79335764 7.3125 9.5 C6.549375 9.335 5.78625 9.17 5 9 C3.875 6.6875 3.875 6.6875 3 4 C2.04175747 2.63634717 1.05278825 1.29205831 0 0 Z " fill="#123C74" transform="translate(378,88)"/>
<path d="M0 0 C10.52281903 0.32883809 19.90389464 2.21486749 30 5 C31.33208028 5.3383061 32.66469693 5.67464697 34 6 C34 6.66 34 7.32 34 8 C32.35 8.33 30.7 8.66 29 9 C29 8.34 29 7.68 29 7 C14.61728168 3.76039879 14.61728168 3.76039879 0 2 C0 1.34 0 0.68 0 0 Z " fill="#144885" transform="translate(277,45)"/>
<path d="M0 0 C0.45375 0.61875 0.9075 1.2375 1.375 1.875 C3.52797643 4.69043072 4.58108581 5.86036194 8 7 C8.99 7 9.98 7 11 7 C10.649375 7.515625 10.29875 8.03125 9.9375 8.5625 C7.96239639 13.69776938 10.18805509 19.04735058 12 24 C9.62236081 21.82615846 8.18141167 19.74774658 6.73828125 16.875 C6.34189453 16.08609375 5.94550781 15.2971875 5.53710938 14.484375 C5.13298828 13.66453125 4.72886719 12.8446875 4.3125 12 C3.89677734 11.18015625 3.48105469 10.3603125 3.05273438 9.515625 C2.66021484 8.72671875 2.26769531 7.9378125 1.86328125 7.125 C1.50532471 6.40570313 1.14736816 5.68640625 0.77856445 4.9453125 C0 3 0 3 0 0 Z " fill="#184992" transform="translate(61,330)"/>
<path d="M0 0 C0 3.1474213 -0.600266 4.28801537 -2 7 C-2 7.66 -2 8.32 -2 9 C0.31 9.66 2.62 10.32 5 11 C4.67 12.65 4.34 14.3 4 16 C3.34 16 2.68 16 2 16 C1.34 14.35 0.68 12.7 0 11 C-1.65 11 -3.3 11 -5 11 C-5.33 12.32 -5.66 13.64 -6 15 C-6.66 15 -7.32 15 -8 15 C-8.6875 13.1875 -8.6875 13.1875 -9 11 C-7.75 9.5625 -7.75 9.5625 -6 8 C-5.505 7.175 -5.01 6.35 -4.5 5.5 C-3.16687258 3.27812096 -1.90632582 1.72477098 0 0 Z " fill="#1F5BA8" transform="translate(230,286)"/>
<path d="M0 0 C0.66 0.33 1.32 0.66 2 1 C1.01 2.485 1.01 2.485 0 4 C0.99 4.33 1.98 4.66 3 5 C2.44570312 5.24234375 1.89140625 5.4846875 1.3203125 5.734375 C0.23363281 6.23710937 0.23363281 6.23710937 -0.875 6.75 C-1.59429687 7.07484375 -2.31359375 7.3996875 -3.0546875 7.734375 C-5.36629455 9.23831212 -5.91200277 10.51034868 -7 13 C-8.33333333 14.33333333 -9.66666667 15.66666667 -11 17 C-11.33 17.721875 -11.66 18.44375 -12 19.1875 C-13 21 -13 21 -15.125 21.75 C-16.053125 21.87375 -16.053125 21.87375 -17 22 C-14.61632822 17.69167431 -11.70868619 14.13557466 -8.5 10.4375 C-4.10157914 5.33874896 -4.10157914 5.33874896 0 0 Z " fill="#285B9F" transform="translate(224,254)"/>
<path d="M0 0 C0 3.20395416 -0.74335022 5.09399739 -2 8 C-8.53892216 9.13173653 -8.53892216 9.13173653 -11.1875 8.375 C-11.785625 8.25125 -12.38375 8.1275 -13 8 C-14.34789347 8.98028616 -15.68212715 9.97971135 -17 11 C-17.99 10.67 -18.98 10.34 -20 10 C-18.68 8.02 -17.36 6.04 -16 4 C-12.44219804 4.60990891 -9.3171411 5.5783681 -6 7 C-4.02 4.69 -2.04 2.38 0 0 Z " fill="#215DB0" transform="translate(135,395)"/>
<path d="M0 0 C0.66 0.33 1.32 0.66 2 1 C1.525625 1.7425 1.05125 2.485 0.5625 3.25 C-0.77869327 5.61050015 -1.512312 7.36648477 -2 10 C-2.99 10 -3.98 10 -5 10 C-5.020625 11.051875 -5.04125 12.10375 -5.0625 13.1875 C-6.20368743 17.8283289 -7.61770738 18.72053721 -11.50390625 21.15234375 C-11.99761719 21.43207031 -12.49132812 21.71179688 -13 22 C-11.32887344 17.14895833 -8.67263602 13.05193955 -5.9375 8.75 C-5.47794922 8.0178125 -5.01839844 7.285625 -4.54492188 6.53125 C-1.15472274 1.15472274 -1.15472274 1.15472274 0 0 Z " fill="#2759A2" transform="translate(321,251)"/>
<path d="M0 0 C0 7.27272727 0 7.27272727 -2 10 C-5.125 10.75 -5.125 10.75 -8 11 C-8.33 11.99 -8.66 12.98 -9 14 C-10.32 13.67 -11.64 13.34 -13 13 C-8.71 8.71 -4.42 4.42 0 0 Z " fill="#275FA6" transform="translate(264,236)"/>
<path d="M0 0 C0.66 0.66 1.32 1.32 2 2 C1.505 2.53625 1.01 3.0725 0.5 3.625 C-1.37489544 6.59358445 -1.23501425 8.55312427 -1 12 C-2.32 12 -3.64 12 -5 12 C-7.25065102 13.91666921 -7.25065102 13.91666921 -9 16 C-9.66 15.67 -10.32 15.34 -11 15 C-9.72954304 13.24972675 -8.45861894 11.49979256 -7.1875 9.75 C-6.12595703 8.28820312 -6.12595703 8.28820312 -5.04296875 6.796875 C-3.37845179 4.51810991 -1.69998177 2.25234178 0 0 Z " fill="#EDF8FA" transform="translate(281,235)"/>
<path d="M0 0 C3.87368865 0.63243896 5.48080549 1.53864454 8.0625 4.5 C8.625 8 8.625 8 8.0625 11.5 C6.0625 13.9375 6.0625 13.9375 4.0625 15.5 C4.206875 14.943125 4.35125 14.38625 4.5 13.8125 C5.09019128 11.38615805 5.585929 8.95093655 6.0625 6.5 C4.42540685 4.81135412 4.42540685 4.81135412 2.0625 3.5 C-1.00064844 3.74662241 -1.00064844 3.74662241 -3.9375 4.5 C-4.9275 4.5 -5.9175 4.5 -6.9375 4.5 C-4.70476097 1.7520135 -3.54657583 0.60367248 0 0 Z " fill="#DEF4FD" transform="translate(222.9375,234.5)"/>
<path d="M0 0 C-1 3 -1 3 -2.92578125 4.0625 C-3.71339844 4.371875 -4.50101563 4.68125 -5.3125 5 C-9.99089745 6.94549181 -9.99089745 6.94549181 -14 10 C-14.33 10.99 -14.66 11.98 -15 13 C-17.4375 14.75 -17.4375 14.75 -20 16 C-20.66 15.67 -21.32 15.34 -22 15 C-8.5 0 -8.5 0 0 0 Z " fill="#25599C" transform="translate(164,372)"/>
<path d="M0 0 C2.8125 0.1875 2.8125 0.1875 6 1 C8.82199293 4.40585354 9.49580031 7.66388269 10 12 C5.34352424 9.24844614 2.7274296 6.82545236 0 2 C0 1.34 0 0.68 0 0 Z " fill="#194F9E" transform="translate(77,361)"/>
<path d="M0 0 C1.32 0.66 2.64 1.32 4 2 C2.38113585 3.67262717 0.7547271 5.33795537 -0.875 7 C-2.23238281 8.3921875 -2.23238281 8.3921875 -3.6171875 9.8125 C-6 12 -6 12 -8 12 C-7.56802365 7.2482602 -6.67230705 5.07999946 -3 2 C-3 2.66 -3 3.32 -3 4 C-1.68 3.67 -0.36 3.34 1 3 C0.67 2.01 0.34 1.02 0 0 Z " fill="#285CA5" transform="translate(208,281)"/>
<path d="M0 0 C0.66 0.33 1.32 0.66 2 1 C1.43410156 1.69867188 0.86820313 2.39734375 0.28515625 3.1171875 C-0.44832031 4.02726562 -1.18179688 4.93734375 -1.9375 5.875 C-3.03384766 7.23238281 -3.03384766 7.23238281 -4.15234375 8.6171875 C-6.0036252 10.84502747 -6.0036252 10.84502747 -7 13 C-6.34 13.33 -5.68 13.66 -5 14 C-5.33 14.66 -5.66 15.32 -6 16 C-7.32 16 -8.64 16 -10 16 C-10 16.99 -10 17.98 -10 19 C-11.32 19.33 -12.64 19.66 -14 20 C-12.4210953 16.54105929 -10.37400025 13.62198902 -8.125 10.5625 C-7.44695312 9.63566406 -6.76890625 8.70882813 -6.0703125 7.75390625 C-4.09550245 5.12703628 -2.06753002 2.55428037 0 0 Z " fill="#E0F1FA" transform="translate(168,256)"/>
<path d="M0 0 C0.66 0.33 1.32 0.66 2 1 C0.31344228 9.91722537 -2.07924393 18.41297716 -5 27 C-5.66 26.34 -6.32 25.68 -7 25 C-6.82984375 24.45214844 -6.6596875 23.90429688 -6.484375 23.33984375 C-4.12202576 15.61194598 -2.05258427 7.81440711 0 0 Z " fill="#072A6A" transform="translate(450,293)"/>
<path d="M0 0 C0.33 0 0.66 0 1 0 C1 2.97 1 5.94 1 9 C4.465 8.505 4.465 8.505 8 8 C8 7.34 8 6.68 8 6 C9.32 6.33 10.64 6.66 12 7 C5.92560175 11.90153173 5.92560175 11.90153173 2.0625 12.3125 C1.0415625 12.1578125 1.0415625 12.1578125 0 12 C-1.49498913 9.01002175 -1.11577446 6.29957225 -1 3 C-0.67 2.01 -0.34 1.02 0 0 Z " fill="#3363A1" transform="translate(136,275)"/>
<path d="M0 0 C0.99 0.33 1.98 0.66 3 1 C2.09603522 8.60577261 -0.04664124 13.22738343 -5 19 C-6.00817691 20.32716129 -7.0104283 21.65890879 -8 23 C-8.66 22.67 -9.32 22.34 -10 22 C-9.36191406 21.07058594 -8.72382813 20.14117187 -8.06640625 19.18359375 C-7.23110803 17.93533911 -6.39650957 16.68661601 -5.5625 15.4375 C-5.14162109 14.82841797 -4.72074219 14.21933594 -4.28710938 13.59179688 C-1.37597434 9.1901607 0 5.41991085 0 0 Z " fill="#E2F4FC" transform="translate(316,223)"/>
<path d="M0 0 C2.97 0.495 2.97 0.495 6 1 C2.61227103 5.69159716 -0.78185183 10.0299782 -5 14 C-4.28269264 10.76834156 -3.18684926 7.81292078 -1.9375 4.75 C-1.57527344 3.85796875 -1.21304688 2.9659375 -0.83984375 2.046875 C-0.56269531 1.37140625 -0.28554687 0.6959375 0 0 Z " fill="#E6F3FC" transform="translate(220,251)"/>
<path d="M0 0 C0.33 1.65 0.66 3.3 1 5 C0.67 4.01 0.34 3.02 0 2 C-1.216875 2.165 -2.43375 2.33 -3.6875 2.5 C-6.81607836 2.89454541 -9.84168804 3.09869725 -13 3 C-13 3.66 -13 4.32 -13 5 C-14.98 5 -16.96 5 -19 5 C-12.83432006 -0.02388736 -7.71255046 -0.26956487 0 0 Z " fill="#23569F" transform="translate(293,166)"/>
<path d="M0 0 C1.2077558 3.62326739 0.54311128 4.64146369 -1 8 C-1.66 8 -2.32 8 -3 8 C-3.33 8.99 -3.66 9.98 -4 11 C-4.66 10.67 -5.32 10.34 -6 10 C-5.67 8.68 -5.34 7.36 -5 6 C-6.98 6.33 -8.96 6.66 -11 7 C-7.54319097 4.23455278 -3.85658398 2.15078722 0 0 Z " fill="#2159AA" transform="translate(175,365)"/>
<path d="M0 0 C0 3.95348446 -1.42309243 5.34084082 -3.75 8.5 C-4.79414063 9.93859375 -4.79414063 9.93859375 -5.859375 11.40625 C-7.77374517 13.72585182 -9.51293514 15.34195676 -12 17 C-12 15.68 -12 14.36 -12 13 C-11.01 12.67 -10.02 12.34 -9 12 C-8.6278958 10.67696283 -8.29369827 9.34262065 -8 8 C-7.34 7.67 -6.68 7.34 -6 7 C-5.525625 6.195625 -5.05125 5.39125 -4.5625 4.5625 C-3 2 -3 2 0 0 Z " fill="#2B5A9E" transform="translate(160,264)"/>
<path d="M0 0 C1.4606285 2.64738916 2 3.89448334 2 7 C-1.75 9 -1.75 9 -4 9 C-4.99 9.33 -5.98 9.66 -7 10 C-5.6062718 5.56541027 -3.39417765 3.12621626 0 0 Z " fill="#1E5AA8" transform="translate(380,204)"/>
<path d="M0 0 C1.32 0 2.64 0 4 0 C4.85276722 2.41707906 5.12087895 3.64003451 4.29296875 6.10546875 C3.74576172 7.13607422 3.74576172 7.13607422 3.1875 8.1875 C2.83042969 8.88230469 2.47335937 9.57710937 2.10546875 10.29296875 C1 12 1 12 -1 13 C-1 12.01 -1 11.02 -1 10 C-1.66 10 -2.32 10 -3 10 C-2.67 9.34 -2.34 8.68 -2 8 C-1.01 8 -0.02 8 1 8 C1.33 7.34 1.66 6.68 2 6 C1.01 6 0.02 6 -1 6 C-0.67 4.02 -0.34 2.04 0 0 Z " fill="#215BAB" transform="translate(289,168)"/>
<path d="M0 0 C0.66 0.33 1.32 0.66 2 1 C-0.6544698 5.97713087 -2.50286535 7.49289997 -7.828125 9.14453125 C-11.70817075 10.67282265 -14.80210444 13.37194221 -18 16 C-18 13 -18 13 -16.2421875 11.2109375 C-11.68828772 7.67903503 -8.76778302 5.823969 -3 5 C-1.08255407 2.55690423 -1.08255407 2.55690423 0 0 Z " fill="#245CA3" transform="translate(197,350)"/>
<path d="M0 0 C1 2 1 2 0.25 5.0625 C-0.1625 6.031875 -0.575 7.00125 -1 8 C-1.99 8.33 -2.98 8.66 -4 9 C-5.8929807 11.08744972 -5.8929807 11.08744972 -7.6875 13.5625 C-8.31011719 14.38878906 -8.93273437 15.21507812 -9.57421875 16.06640625 C-10.04472656 16.70449219 -10.51523437 17.34257812 -11 18 C-11.66 17.67 -12.32 17.34 -13 17 C-8.83031167 11.1851989 -4.68279275 5.41447912 0 0 Z " fill="#27579F" transform="translate(289,253)"/>
<path d="M0 0 C0.66 0 1.32 0 2 0 C1.53029274 2.1919672 1.0204734 3.96266615 -0.0625 5.9375 C-1.19063924 8.41940633 -1.14977637 10.30402539 -1 13 C-1.99 13.33 -2.98 13.66 -4 14 C-4.33 14.66 -4.66 15.32 -5 16 C-6.25348607 13.04893565 -6.01044806 12.02593537 -4.78515625 8.984375 C-4.21667969 7.91703125 -3.64820313 6.8496875 -3.0625 5.75 C-2.49660156 4.67234375 -1.93070312 3.5946875 -1.34765625 2.484375 C-0.90292969 1.66453125 -0.45820313 0.8446875 0 0 Z " fill="#DDEFF9" transform="translate(293,267)"/>
<path d="M0 0 C0.66 0.66 1.32 1.32 2 2 C1.48703094 4.78890076 0.88187968 7.40305381 0.125 10.125 C-0.07480469 10.87910156 -0.27460937 11.63320313 -0.48046875 12.41015625 C-0.97651886 14.27624952 -1.48692568 16.13851549 -2 18 C-2.66 18 -3.32 18 -4 18 C-4.25182442 12.20803845 -3.72678334 6.56407966 -2 1 C-1.34 0.67 -0.68 0.34 0 0 Z " fill="#2A5BA4" transform="translate(111,288)"/>
<path d="M0 0 C3.04316701 1.34257368 4.89180832 3.51820901 7.125 5.9375 C5.97 5.751875 4.815 5.56625 3.625 5.375 C-0.73889648 4.8139276 -4.54233065 5.24117814 -8.875 5.9375 C-3.03754037 -0.10125135 -3.03754037 -0.10125135 0 0 Z " fill="#E1F0F9" transform="translate(377.875,102.0625)"/>
<path d="M0 0 C1.32 0.33 2.64 0.66 4 1 C4.33 2.32 4.66 3.64 5 5 C4.01 5.495 4.01 5.495 3 6 C2.34444881 8.52733235 2.34444881 8.52733235 2 11 C1.34 11 0.68 11 0 11 C-1.625 9 -1.625 9 -3 7 C-2.01 6.67 -1.02 6.34 0 6 C-0.185625 5.38125 -0.37125 4.7625 -0.5625 4.125 C-1 2 -1 2 0 0 Z " fill="#1B5AB9" transform="translate(196,246)"/>
<path d="M0 0 C3.40424844 1.13474948 4.21653709 1.96811304 6 5 C5.67 5.99 5.34 6.98 5 8 C3.68 8 2.36 8 1 8 C0.67 9.32 0.34 10.64 0 12 C-1.16063604 7.74433453 -0.76173392 4.3164922 0 0 Z " fill="#1B5CBA" transform="translate(409,122)"/>
<path d="M0 0 C7.48291572 6.15034169 7.48291572 6.15034169 10 10 C8.35 10.33 6.7 10.66 5 11 C4.731875 10.38125 4.46375 9.7625 4.1875 9.125 C3.04443152 6.7004767 3.04443152 6.7004767 0 5 C-0.1875 2.375 -0.1875 2.375 0 0 Z " fill="#E1ECF9" transform="translate(386,109)"/>
<path d="M0 0 C0.99 0 1.98 0 3 0 C3 0.66 3 1.32 3 2 C3.99 2 4.98 2 6 2 C6.474375 2.66 6.94875 3.32 7.4375 4 C8.2109375 4.99 8.2109375 4.99 9 6 C10.32 6 11.64 6 13 6 C13 5.34 13 4.68 13 4 C13.66 4 14.32 4 15 4 C15.33 3.01 15.66 2.02 16 1 C16.66 1.33 17.32 1.66 18 2 C16.02 4.31 14.04 6.62 12 9 C7.09198451 7.51272258 3.59508707 4.55364515 0 1 C0 0.67 0 0.34 0 0 Z " fill="#DEEFFC" transform="translate(117,394)"/>
<path d="M0 0 C0.33 0 0.66 0 1 0 C1 1.65 1 3.3 1 5 C0.34 5 -0.32 5 -1 5 C-1.226875 5.804375 -1.45375 6.60875 -1.6875 7.4375 C-2.3371875 8.7059375 -2.3371875 8.7059375 -3 10 C-5.625 10.8125 -5.625 10.8125 -8 11 C-8 11.66 -8 12.32 -8 13 C-8.66 13 -9.32 13 -10 13 C-10.66 11.68 -11.32 10.36 -12 9 C-9.36 8.67 -6.72 8.34 -4 8 C-3.71125 7.236875 -3.4225 6.47375 -3.125 5.6875 C-2 3 -2 3 0 0 Z " fill="#275AA1" transform="translate(341,272)"/>
<path d="M0 0 C0.66 0.33 1.32 0.66 2 1 C1.79375 2.11375 1.5875 3.2275 1.375 4.375 C1.25125 5.57125 1.1275 6.7675 1 8 C2.89755144 10.34973818 2.89755144 10.34973818 6.125 10.125 C7.548125 10.063125 7.548125 10.063125 9 10 C9 10.66 9 11.32 9 12 C6.23749964 13.38125018 4.05268901 13.19079306 1 13 C-1 11 -1 11 -1.1875 7.0625 C-1.16190316 4.32363845 -0.88664156 2.65992468 0 0 Z " fill="#DDF1FB" transform="translate(328,268)"/>
<path d="M0 0 C1.32 0.66 2.64 1.32 4 2 C3.71601983 8.67353409 0.92194468 12.71077185 -3 18 C-3.66 17.01 -4.32 16.02 -5 15 C-4.01 14.67 -3.02 14.34 -2 14 C-0.84979475 11.75256244 -0.84979475 11.75256244 0 9 C0.37125 7.906875 0.7425 6.81375 1.125 5.6875 C1.558125 4.3571875 1.558125 4.3571875 2 3 C1.34 3 0.68 3 0 3 C0 2.01 0 1.02 0 0 Z " fill="#DEF1FC" transform="translate(202,222)"/>
<path d="M0 0 C2.25 -0.3125 2.25 -0.3125 5 0 C7.99540173 2.75253132 8.94165078 4.22687285 9.25 8.3125 C9.1675 9.199375 9.085 10.08625 9 11 C8.67 11 8.34 11 8 11 C7.67 9.35 7.34 7.7 7 6 C5.02 6.66 3.04 7.32 1 8 C1 6.68 1 5.36 1 4 C1.99 4 2.98 4 4 4 C3.04134491 1.66924071 3.04134491 1.66924071 0 0 Z " fill="#E4F4FB" transform="translate(233,264)"/>
<path d="M0 0 C1.32 0 2.64 0 4 0 C6 2 6 2 6.125 5.125 C6.08375 6.07375 6.0425 7.0225 6 8 C4.68 8.33 3.36 8.66 2 9 C0.14223235 5.86501708 -0.20140476 3.62528568 0 0 Z " fill="#155DB8" transform="translate(105,388)"/>
<path d="M0 0 C0.33 1.32 0.66 2.64 1 4 C0.34 4 -0.32 4 -1 4 C-1.28875 4.9075 -1.5775 5.815 -1.875 6.75 C-2.76531776 9.32202908 -3.71494413 11.61346766 -5 14 C-6.32 13.67 -7.64 13.34 -9 13 C-6.03 8.71 -3.06 4.42 0 0 Z " fill="#295AA3" transform="translate(372,214)"/>
<path d="M0 0 C0.33 0.99 0.66 1.98 1 3 C0.67 3.66 0.34 4.32 0 5 C-0.85064093 8.31749961 -1.10732122 9.67803635 0 13 C0.66 13.33 1.32 13.66 2 14 C-1 14 -1 14 -2.75 12.375 C-4.45467876 9.13611035 -4.01184859 7.46919515 -3 4 C-1.4375 1.625 -1.4375 1.625 0 0 Z " fill="#D8ECF9" transform="translate(244,235)"/>
<path d="M0 0 C0.99 0.103125 1.98 0.20625 3 0.3125 C3.66 1.3025 4.32 2.2925 5 3.3125 C4.36191406 3.43367187 3.72382813 3.55484375 3.06640625 3.6796875 C1.82697266 3.93105469 1.82697266 3.93105469 0.5625 4.1875 C-0.26121094 4.34992188 -1.08492187 4.51234375 -1.93359375 4.6796875 C-2.61550781 4.88851562 -3.29742187 5.09734375 -4 5.3125 C-4.33 5.9725 -4.66 6.6325 -5 7.3125 C-5.66 7.3125 -6.32 7.3125 -7 7.3125 C-4.47776511 0.46643387 -4.47776511 0.46643387 0 0 Z " fill="#DEF4F9" transform="translate(130,240.6875)"/>
<path d="M0 0 C1.75 0.8125 1.75 0.8125 2.75 1.8125 C2.46269945 4.15194736 2.13063221 6.4864143 1.75 8.8125 C1.42 8.8125 1.09 8.8125 0.75 8.8125 C0.42 6.8325 0.09 4.8525 -0.25 2.8125 C-1.24 3.4725 -2.23 4.1325 -3.25 4.8125 C-5.4375 4.4375 -5.4375 4.4375 -7.25 3.8125 C-2.83333333 -0.23611111 -2.83333333 -0.23611111 0 0 Z " fill="#3964A1" transform="translate(338.25,230.1875)"/>
<path d="M0 0 C1 3 1 3 0.0625 5.1875 C-0.288125 5.785625 -0.63875 6.38375 -1 7 C-1.66 7 -2.32 7 -3 7 C-3 7.66 -3 8.32 -3 9 C-3.66 9 -4.32 9 -5 9 C-5.33 9.66 -5.66 10.32 -6 11 C-8.0625 11.625 -8.0625 11.625 -10 12 C-3.84965831 3.55353075 -3.84965831 3.55353075 0 0 Z " fill="#E1F2FB" transform="translate(256,221)"/>
<path d="M0 0 C0.66 0.33 1.32 0.66 2 1 C1.67 2.65 1.34 4.3 1 6 C1.66 6.33 2.32 6.66 3 7 C3 8.65 3 10.3 3 12 C2.34 12 1.68 12 1 12 C-3.0504451 6.90801187 -3.0504451 6.90801187 -2.875 3.75 C-2 2 -2 2 0 0 Z " fill="#DCF0F9" transform="translate(92,356)"/>
<path d="M0 0 C0 4.13997696 -2.16832917 6.45607031 -4.5 9.6875 C-4.92925781 10.29400391 -5.35851562 10.90050781 -5.80078125 11.52539062 C-6.86093138 13.02138026 -7.92965571 14.511287 -9 16 C-9.66 15.67 -10.32 15.34 -11 15 C-9.3718356 11.24269753 -6.98598083 8.383177 -4.375 5.25 C-3.55773437 4.26515625 -2.74046875 3.2803125 -1.8984375 2.265625 C-1.27195313 1.51796875 -0.64546875 0.7703125 0 0 Z " fill="#E2F0FC" transform="translate(192,224)"/>
<path d="M0 0 C0.33 0.99 0.66 1.98 1 3 C0.67 3.66 0.34 4.32 0 5 C-0.66 5 -1.32 5 -2 5 C-1.67 5.99 -1.34 6.98 -1 8 C-1.804375 8.45375 -2.60875 8.9075 -3.4375 9.375 C-6.08856572 10.74725665 -6.08856572 10.74725665 -7 13 C-7.66 13 -8.32 13 -9 13 C-7.50923566 9.7173068 -5.61379679 7.06922559 -3.375 4.25 C-2.74335938 3.45078125 -2.11171875 2.6515625 -1.4609375 1.828125 C-0.97882813 1.22484375 -0.49671875 0.6215625 0 0 Z " fill="#E2F1FB" transform="translate(292,220)"/>
<path d="M0 0 C0.33 0.66 0.66 1.32 1 2 C0.0625 4.625 0.0625 4.625 -1 7 C1.31 6.34 3.62 5.68 6 5 C3.75 7.5625 3.75 7.5625 1 10 C-1.3125 9.8125 -1.3125 9.8125 -3 9 C-2.5020163 5.26512223 -2.12508244 3.18762365 0 0 Z " fill="#305C94" transform="translate(176,273)"/>
<path d="M0 0 C0.33 0 0.66 0 1 0 C1.36795695 3.2828659 1.3231932 4.58663012 -0.75 7.23828125 C-1.4925 7.92277344 -2.235 8.60726563 -3 9.3125 C-3.7425 10.00988281 -4.485 10.70726562 -5.25 11.42578125 C-5.8275 11.94527344 -6.405 12.46476562 -7 13 C-7.66 12.67 -8.32 12.34 -9 12 C-8.27683594 11.07767578 -8.27683594 11.07767578 -7.5390625 10.13671875 C-6.90742188 9.32847656 -6.27578125 8.52023437 -5.625 7.6875 C-4.99851562 6.88699219 -4.37203125 6.08648437 -3.7265625 5.26171875 C-2.42243282 3.55336788 -1.19218183 1.78827274 0 0 Z " fill="#2D5BA0" transform="translate(307,273)"/>
<path d="M0 0 C0.66 0.33 1.32 0.66 2 1 C-2.455 6.94 -2.455 6.94 -7 13 C-7.33 11.68 -7.66 10.36 -8 9 C-7.34 8.67 -6.68 8.34 -6 8 C-5.835 7.175 -5.67 6.35 -5.5 5.5 C-5.335 4.675 -5.17 3.85 -5 3 C-4.34 2.67 -3.68 2.34 -3 2 C-2.01 1.34 -1.02 0.68 0 0 Z " fill="#3060A2" transform="translate(182,234)"/>
<path d="M0 0 C0.99 0.33 1.98 0.66 3 1 C-0.63 4.3 -4.26 7.6 -8 11 C-8.33 9.68 -8.66 8.36 -9 7 C-8.34 7 -7.68 7 -7 7 C-7 6.34 -7 5.68 -7 5 C-2.61538462 2 -2.61538462 2 0 2 C0 1.34 0 0.68 0 0 Z " fill="#E3F4FD" transform="translate(211,332)"/>
<path d="M0 0 C0.33 0.99 0.66 1.98 1 3 C-1.16116434 6.24174651 -2.72037695 7.04784342 -6 9 C-7.36984198 10.29579647 -8.7151049 11.61992749 -10 13 C-10.66 12.67 -11.32 12.34 -12 12 C-8.04 8.04 -4.08 4.08 0 0 Z " fill="#26589B" transform="translate(287,212)"/>
<path d="M0 0 C0.33 1.32 0.66 2.64 1 4 C-4.29230769 8.92307692 -4.29230769 8.92307692 -7.875 9.3125 C-8.926875 9.1578125 -8.926875 9.1578125 -10 9 C-6.85281112 5.7317654 -3.50647501 2.8689341 0 0 Z " fill="#DFEEF8" transform="translate(365,110)"/>
<path d="M0 0 C0.33 0 0.66 0 1 0 C1.22134176 2.12368444 1.42670007 4.24904024 1.625 6.375 C1.74101563 7.55835938 1.85703125 8.74171875 1.9765625 9.9609375 C1.98429687 10.96382813 1.99203125 11.96671875 2 13 C1.34 13.66 0.68 14.32 0 15 C-0.6425235 17.06874034 -0.6425235 17.06874034 -1 19 C-1.66 19 -2.32 19 -3 19 C-2.01 12.73 -1.02 6.46 0 0 Z " fill="#D7E8F5" transform="translate(122,249)"/>
<path d="M0 0 C1.125 1.75 1.125 1.75 2 4 C1.5 6.125 1.5 6.125 0 8 C-3.125 9.25 -3.125 9.25 -6 10 C-5.18957164 8.51969728 -4.37659652 7.04078858 -3.5625 5.5625 C-2.88380859 4.32693359 -2.88380859 4.32693359 -2.19140625 3.06640625 C-1 1 -1 1 0 0 Z " fill="#E4F1FA" transform="translate(301,254)"/>
<path d="M0 0 C0.66 0.33 1.32 0.66 2 1 C1.071875 2.36125 1.071875 2.36125 0.125 3.75 C-1.95030749 6.74692805 -1.95030749 6.74692805 -3 9.1875 C-4.26283598 11.47639021 -5.84693131 12.56462087 -8 14 C-8.66 13.67 -9.32 13.34 -10 13 C-9.278125 12.154375 -8.55625 11.30875 -7.8125 10.4375 C-5.01293965 7.08602633 -2.50367486 3.57667837 0 0 Z " fill="#315E9D" transform="translate(306,230)"/>
<path d="M0 0 C5.53846154 0.61538462 5.53846154 0.61538462 7.875 2.5625 C8.431875 3.2740625 8.431875 3.2740625 9 4 C8.67 4.99 8.34 5.98 8 7 C7.34 6.01 6.68 5.02 6 4 C2.91634129 3.7497843 2.91634129 3.7497843 0 4 C-0.33 3.34 -0.66 2.68 -1 2 C-0.67 1.34 -0.34 0.68 0 0 Z " fill="#D9EBF7" transform="translate(237,299)"/>
<path d="M0 0 C0 3.96018245 -1.18721244 6.5039097 -3 10 C-5.1875 10.9375 -5.1875 10.9375 -7 11 C-7 11.66 -7 12.32 -7 13 C-7.66 12.67 -8.32 12.34 -9 12 C-7.68858144 10.18671738 -6.37583526 8.37439486 -5.0625 6.5625 C-3.96615234 5.04849609 -3.96615234 5.04849609 -2.84765625 3.50390625 C-1 1 -1 1 0 0 Z " fill="#2A5C9D" transform="translate(186,259)"/>
<path d="M0 0 C1.32 0.66 2.64 1.32 4 2 C2.34643078 5.58273331 0.32019297 8.80973467 -2 12 C-2.66 12 -3.32 12 -4 12 C-3.690625 11.401875 -3.38125 10.80375 -3.0625 10.1875 C-1.45156028 6.8708594 -0.68138413 3.60160181 0 0 Z " fill="#275AA1" transform="translate(284,179)"/>
<path d="M0 0 C2 3 2 3 2 5 C0.71349294 5.69710731 -0.57940665 6.38242876 -1.875 7.0625 C-2.95394531 7.63677734 -2.95394531 7.63677734 -4.0546875 8.22265625 C-4.69664062 8.47917969 -5.33859375 8.73570312 -6 9 C-6.66 8.67 -7.32 8.34 -8 8 C-6.71034824 6.62437146 -5.37310707 5.29233607 -4 4 C-3.34 4 -2.68 4 -2 4 C-1.34 2.68 -0.68 1.36 0 0 Z " fill="#265CA7" transform="translate(408,152)"/>
<path d="M0 0 C0.66 0.99 1.32 1.98 2 3 C0.71451591 4.33929505 -0.57858155 5.67128643 -1.875 7 C-2.59429687 7.7425 -3.31359375 8.485 -4.0546875 9.25 C-6 11 -6 11 -8 11 C-6.71480435 8.13302508 -5.42870746 6.02392288 -3 4 C-2.34 4 -1.68 4 -1 4 C-0.67 2.68 -0.34 1.36 0 0 Z " fill="#E1F1FD" transform="translate(284,211)"/>
<path d="M0 0 C1.32 0.33 2.64 0.66 4 1 C0.37464179 4.17218843 -3.51150278 5.42902597 -8 7 C-8.33 6.01 -8.66 5.02 -9 4 C-6.03 3.34 -3.06 2.68 0 2 C0 1.34 0 0.68 0 0 Z " fill="#2F64A3" transform="translate(282,143)"/>
<path d="M0 0 C4.29 0.99 8.58 1.98 13 3 C13 3.66 13 4.32 13 5 C11.35 5.33 9.7 5.66 8 6 C8 5.34 8 4.68 8 4 C5.36 3.34 2.72 2.68 0 2 C0 1.34 0 0.68 0 0 Z " fill="#0E3C74" transform="translate(298,48)"/>
<path d="M0 0 C1.98 0 3.96 0 6 0 C2.80331012 2.6486859 -0.39486597 4.93992341 -4 7 C-4.33 5.35 -4.66 3.7 -5 2 C-2.525 2.495 -2.525 2.495 0 3 C0 2.01 0 1.02 0 0 Z " fill="#26599D" transform="translate(226,302)"/>
<path d="M0 0 C0.66 0.33 1.32 0.66 2 1 C1.01 3.31 0.02 5.62 -1 8 C-2.32 7.67 -3.64 7.34 -5 7 C-4.67 5.68 -4.34 4.36 -4 3 C-3.34 3 -2.68 3 -2 3 C-2 2.34 -2 1.68 -2 1 C-1.34 0.67 -0.68 0.34 0 0 Z " fill="#185BB2" transform="translate(201,285)"/>
<path d="M0 0 C1.485 0.99 1.485 0.99 3 2 C5.33199388 2.07905064 7.66832622 2.08798769 10 2 C10 1.34 10 0.68 10 0 C10.66 0.33 11.32 0.66 12 1 C10.4375 3.0625 10.4375 3.0625 8 5 C4.375 4.9375 4.375 4.9375 1 4 C0.34 3.01 -0.32 2.02 -1 1 C-0.67 0.67 -0.34 0.34 0 0 Z " fill="#D2EAF7" transform="translate(262,272)"/>
<path d="M0 0 C0 0.99 0 1.98 0 3 C-1.63183107 4.05589069 -3.30792999 5.0436126 -5 6 C-7.05881333 7.60558511 -9.01993602 9.29622401 -11 11 C-11.66 10.67 -12.32 10.34 -13 10 C-11.21371169 8.32722165 -9.4214925 6.66175557 -7.625 5 C-6.86316406 4.28457031 -6.86316406 4.28457031 -6.0859375 3.5546875 C-2.2265625 0 -2.2265625 0 0 0 Z " fill="#DCEFFB" transform="translate(232,266)"/>
<path d="M0 0 C1 2 1 2 0.75 4 C0 6 0 6 -3 8 C-3 9.32 -3 10.64 -3 12 C-4.32 11.67 -5.64 11.34 -7 11 C-4.69 7.37 -2.38 3.74 0 0 Z " fill="#2E5DA1" transform="translate(203,233)"/>
<path d="M0 0 C1.32 0.33 2.64 0.66 4 1 C1.525 4.465 1.525 4.465 -1 8 C-1.66 6.68 -2.32 5.36 -3 4 C-2.01 2.68 -1.02 1.36 0 0 Z " fill="#E1F3F8" transform="translate(300,233)"/>
<path d="M0 0 C0 3.20395416 -0.74335022 5.09399739 -2 8 C-8.75 9.125 -8.75 9.125 -11 8 C-10.67 7.34 -10.34 6.68 -10 6 C-8.02 6.495 -8.02 6.495 -6 7 C-4.02 4.69 -2.04 2.38 0 0 Z " fill="#2D5A9B" transform="translate(135,395)"/>
<path d="M0 0 C0.66 0 1.32 0 2 0 C0.25 5.75 0.25 5.75 -2 8 C-2.99 7.67 -3.98 7.34 -5 7 C-1.125 1.125 -1.125 1.125 0 0 Z " fill="#1F57A1" transform="translate(213,333)"/>
<path d="M0 0 C0.66 0 1.32 0 2 0 C1.34 2.97 0.68 5.94 0 9 C-0.66 9 -1.32 9 -2 9 C-2 9.99 -2 10.98 -2 12 C-2.66 12 -3.32 12 -4 12 C-3.52309796 10.37433394 -3.04340334 8.74948689 -2.5625 7.125 C-2.29566406 6.22007812 -2.02882813 5.31515625 -1.75390625 4.3828125 C-1 2 -1 2 0 0 Z " fill="#DCEFF9" transform="translate(333,255)"/>
<path d="M0 0 C0.66 0 1.32 0 2 0 C0.44298069 4.67105792 -2.08447373 8.08705685 -5 12 C-5.33 11.01 -5.66 10.02 -6 9 C-5.34 8.34 -4.68 7.68 -4 7 C-3.29289322 5.35008418 -2.62056011 3.68437744 -2 2 C-1.34 2 -0.68 2 0 2 C0 1.34 0 0.68 0 0 Z " fill="#DAF1FA" transform="translate(329,234)"/>
<path d="M0 0 C1.6875 1.5 1.6875 1.5 3 3 C0 5 0 5 -3 6 C-3 5.01 -3 4.02 -3 3 C-3.99 2.67 -4.98 2.34 -6 2 C-3 0 -3 0 0 0 Z " fill="#1D5CBD" transform="translate(276,233)"/>
<path d="M0 0 C0.66 0.33 1.32 0.66 2 1 C2.73075648 3.3140622 3.40138258 5.64828869 4 8 C2.35 8 0.7 8 -1 8 C-0.67 5.36 -0.34 2.72 0 0 Z " fill="#175AA8" transform="translate(95,371)"/>
<path d="M0 0 C1.134375 0.020625 2.26875 0.04125 3.4375 0.0625 C3.7675 1.3825 4.0975 2.7025 4.4375 4.0625 C3.7775 3.7325 3.1175 3.4025 2.4375 3.0625 C-1.61392119 2.80389865 -3.10587669 2.75808446 -6.5625 5.0625 C-4.14811644 0.07277397 -4.14811644 0.07277397 0 0 Z " fill="#2A5A9F" transform="translate(130.5625,238.9375)"/>
<path d="M0 0 C0.66 0.33 1.32 0.66 2 1 C-0.31 4.3 -2.62 7.6 -5 11 C-5.66 10.34 -6.32 9.68 -7 9 C-4.69 6.03 -2.38 3.06 0 0 Z " fill="#D8EDF9" transform="translate(281,260)"/>
<path d="M0 0 C2.29633824 3.44450737 2.54016485 5.93812283 3 10 C2.67 9.34 2.34 8.68 2 8 C1.01 8 0.02 8 -1 8 C-1.04241723 5.66705225 -1.04092937 3.33297433 -1 1 C-0.67 0.67 -0.34 0.34 0 0 Z " fill="#2961A7" transform="translate(232,238)"/>
<path d="M0 0 C1.32 0.33 2.64 0.66 4 1 C3.74438677 3.3431213 3.40729228 5.67843403 3 8 C2.01 8.495 2.01 8.495 1 9 C0.67 6.03 0.34 3.06 0 0 Z " fill="#37619A" transform="translate(313,223)"/>
<path d="M0 0 C0 3.59760476 -0.89512296 4.2215623 -3 7 C-3.70514846 9.14733927 -3.70514846 9.14733927 -4 11 C-4.99 11 -5.98 11 -7 11 C-5.5140084 6.40693504 -3.14985318 3.56430755 0 0 Z " fill="#2A589F" transform="translate(396,164)"/>
<path d="M0 0 C0.99 0.33 1.98 0.66 3 1 C0.36 3.64 -2.28 6.28 -5 9 C-5.33 8.01 -5.66 7.02 -6 6 C-5.34 6 -4.68 6 -4 6 C-3.34 4.68 -2.68 3.36 -2 2 C-1.34 2 -0.68 2 0 2 C0 1.34 0 0.68 0 0 Z " fill="#CDE4F6" transform="translate(146,380)"/>
<path d="M0 0 C0.99 0.33 1.98 0.66 3 1 C-1.455 3.97 -1.455 3.97 -6 7 C-6.66 6.34 -7.32 5.68 -8 5 C-7.236875 4.54625 -6.47375 4.0925 -5.6875 3.625 C-3.76367186 2.46175508 -1.87058776 1.2470585 0 0 Z " fill="#E1F2FC" transform="translate(227,320)"/>
<path d="M0 0 C0.99 0.33 1.98 0.66 3 1 C-0.465 3.97 -0.465 3.97 -4 7 C-4.33 5.68 -4.66 4.36 -5 3 C-3.35 2.67 -1.7 2.34 0 2 C0 1.34 0 0.68 0 0 Z " fill="#E0EFFD" transform="translate(201,278)"/>
<path d="M0 0 C0.75 1.75 0.75 1.75 1 4 C-0.9375 6.25 -0.9375 6.25 -3 8 C-3.66 7.67 -4.32 7.34 -5 7 C-4.67 6.01 -4.34 5.02 -4 4 C-3.34 4 -2.68 4 -2 4 C-1.34 2.68 -0.68 1.36 0 0 Z " fill="#2D5EA5" transform="translate(275,271)"/>
<path d="M0 0 C2.31 0 4.62 0 7 0 C5.35 1.98 3.7 3.96 2 6 C0 3 0 3 0 0 Z " fill="#EAF6FE" transform="translate(258,235)"/>
<path d="M0 0 C0.33 0.99 0.66 1.98 1 3 C-0.36328125 5.04296875 -0.36328125 5.04296875 -2.3125 7.1875 C-2.94800781 7.90292969 -3.58351563 8.61835938 -4.23828125 9.35546875 C-6 11 -6 11 -8 11 C-6.63629701 8.00779732 -5.05091917 5.70973471 -2.875 3.25 C-2.33617187 2.63640625 -1.79734375 2.0228125 -1.2421875 1.390625 C-0.62730469 0.70226562 -0.62730469 0.70226562 0 0 Z " fill="#D7E9F8" transform="translate(273,201)"/>
<path d="M0 0 C0.33 0.99 0.66 1.98 1 3 C-3.30769231 6.93846154 -3.30769231 6.93846154 -6.8125 7.25 C-7.534375 7.1675 -8.25625 7.085 -9 7 C-6.03716687 4.61327331 -3.05729491 2.2646629 0 0 Z " fill="#E3F3FC" transform="translate(354,119)"/>
<path d="M0 0 C3 1 3 1 4 2.75 C4 5 4 5 1.5625 7.75 C0.2940625 8.86375 0.2940625 8.86375 -1 10 C-0.67 6.7 -0.34 3.4 0 0 Z " fill="#265DAB" transform="translate(100,337)"/>
<path d="M0 0 C0.66 0 1.32 0 2 0 C1.71640113 1.4391134 1.42278601 2.87625518 1.125 4.3125 C0.88136719 5.51326172 0.88136719 5.51326172 0.6328125 6.73828125 C0 9 0 9 -2 12 C-3.12377697 8.69564916 -2.89554742 6.9493138 -1.5625 3.75 C-1.27503906 3.04359375 -0.98757813 2.3371875 -0.69140625 1.609375 C-0.46324219 1.07828125 -0.23507812 0.5471875 0 0 Z " fill="#053C7E" transform="translate(446,308)"/>
<path d="M0 0 C0.99 0.33 1.98 0.66 3 1 C2.34 1.66 1.68 2.32 1 3 C0.01 3 -0.98 3 -2 3 C-2.33 3.99 -2.66 4.98 -3 6 C-4.65 6.33 -6.3 6.66 -8 7 C-5.42215154 4.35247996 -3.08351902 2.05567935 0 0 Z " fill="#DDEDFA" transform="translate(230,303)"/>
<path d="M0 0 C0.99 0.33 1.98 0.66 3 1 C1.4375 3 1.4375 3 -1 5 C-4.75 5.25 -4.75 5.25 -8 5 C-4.25 3 -4.25 3 -2 3 C-2 2.34 -2 1.68 -2 1 C-1.34 0.67 -0.68 0.34 0 0 Z " fill="#DEEFF9" transform="translate(299,281)"/>
<path d="M0 0 C2.86724686 0.57344937 3.8614515 0.8614515 6 3 C4.68 4.32 3.36 5.64 2 7 C1.34 4.69 0.68 2.38 0 0 Z " fill="#EAF3FC" transform="translate(234,274)"/>
<path d="M0 0 C0.33 0.66 0.66 1.32 1 2 C0.67 2.66 0.34 3.32 0 4 C0.66 4.33 1.32 4.66 2 5 C1.01 5.99 0.02 6.98 -1 8 C-1.66 7.34 -2.32 6.68 -3 6 C-3 3 -3 3 -1.5 1.3125 C-0.7575 0.6628125 -0.7575 0.6628125 0 0 Z " fill="#EBF3F7" transform="translate(182,257)"/>
<path d="M0 0 C0.33 0.66 0.66 1.32 1 2 C0.109375 3.9453125 0.109375 3.9453125 -1.25 6.125 C-1.68828125 6.84945312 -2.1265625 7.57390625 -2.578125 8.3203125 C-3.04734375 8.87460938 -3.5165625 9.42890625 -4 10 C-4.99 10 -5.98 10 -7 10 C-3.535 5.05 -3.535 5.05 0 0 Z " fill="#DBEEFA" transform="translate(277,240)"/>
<path d="M0 0 C2.475 0.495 2.475 0.495 5 1 C5 2.98 5 4.96 5 7 C3.29115995 5.37660195 1.62553283 3.70680947 0 2 C0 1.34 0 0.68 0 0 Z " fill="#1D57AC" transform="translate(101,389)"/>
<path d="M0 0 C0.66 0.33 1.32 0.66 2 1 C1 4 1 4 -1 5 C-1.66 5.99 -2.32 6.98 -3 8 C-3.5534764 5.92446352 -4 4.15634036 -4 2 C-2.125 0.9375 -2.125 0.9375 0 0 Z " fill="#ECF3F4" transform="translate(109,376)"/>
<path d="M0 0 C0.33 0.66 0.66 1.32 1 2 C-0.32 3.65 -1.64 5.3 -3 7 C-4.32 6.67 -5.64 6.34 -7 6 C-4.69 4.02 -2.38 2.04 0 0 Z " fill="#DFF2FC" transform="translate(150,279)"/>
<path d="M0 0 C0.99 0.66 1.98 1.32 3 2 C1.02 4.97 1.02 4.97 -1 8 C-1.66 6.68 -2.32 5.36 -3 4 C-2.34 3.67 -1.68 3.34 -1 3 C-0.67 2.01 -0.34 1.02 0 0 Z " fill="#E7F3FB" transform="translate(316,253)"/>
<path d="M0 0 C0 0.99 0 1.98 0 3 C-0.99 3 -1.98 3 -3 3 C-3 3.66 -3 4.32 -3 5 C-4.98 5 -6.96 5 -9 5 C-6.14693203 2.67527795 -3.45925163 1.2491742 0 0 Z " fill="#2F5FA2" transform="translate(283,166)"/>
<path d="M0 0 C0.33 1.32 0.66 2.64 1 4 C-1.31 5.65 -3.62 7.3 -6 9 C-4.47291037 5.56404834 -2.40072955 2.88087546 0 0 Z " fill="#DCF0FA" transform="translate(414,143)"/>
<path d="M0 0 C0.94875 0.04125 1.8975 0.0825 2.875 0.125 C0.52222731 2.84926311 -1.74996331 3.9391763 -5.125 5.125 C-5.125 0.85616396 -4.22482433 0.16899297 0 0 Z " fill="#2C5FA2" transform="translate(292.125,138.875)"/>
<path d="M0 0 C2.46800047 1.15173355 4.04783565 2.04783565 6 4 C6 4.99 6 5.98 6 7 C6.99 7.33 7.98 7.66 9 8 C8.34 8.66 7.68 9.32 7 10 C4.20296548 8.60148274 4.13191945 6.86309036 3 4 C2.04175747 2.63634717 1.05278825 1.29205831 0 0 Z " fill="#164993" transform="translate(378,88)"/>
<path d="M0 0 C0.66 0.33 1.32 0.66 2 1 C0.55609075 4.80666984 -1.34952803 6.26602582 -5 8 C-5.66 7.67 -6.32 7.34 -7 7 C-4.69 4.69 -2.38 2.38 0 0 Z " fill="#1D5098" transform="translate(149,380)"/>
<path d="M0 0 C0.66 1.32 1.32 2.64 2 4 C-0.90600261 5.25664978 -2.79604584 6 -6 6 C-4 4 -2 2 0 0 Z " fill="#E5F3FC" transform="translate(219,311)"/>
<path d="M0 0 C0.66 0.33 1.32 0.66 2 1 C1.67 3.64 1.34 6.28 1 9 C0.34 9 -0.32 9 -1 9 C-1.125 2.25 -1.125 2.25 0 0 Z " fill="#3867A9" transform="translate(108,297)"/>
<path d="M0 0 C0.33 0.66 0.66 1.32 1 2 C0.34 2 -0.32 2 -1 2 C-1.2165625 3.423125 -1.2165625 3.423125 -1.4375 4.875 C-2 8 -2 8 -3 10 C-3.66 10 -4.32 10 -5 10 C-4.4454626 6.67277559 -3.75986957 3.8986087 -2 1 C-1.34 0.67 -0.68 0.34 0 0 Z " fill="#175AAF" transform="translate(298,243)"/>
<path d="M0 0 C0.66 0.33 1.32 0.66 2 1 C2 1.66 2 2.32 2 3 C1.34 3 0.68 3 0 3 C0 3.66 0 4.32 0 5 C-0.66 5 -1.32 5 -2 5 C-2 5.99 -2 6.98 -2 8 C-2.66 8 -3.32 8 -4 8 C-3.40072174 4.64404172 -2.15377564 2.62198774 0 0 Z " fill="#145EB9" transform="translate(396,166)"/>
<path d="M0 0 C1.65 1.65 3.3 3.3 5 5 C3.68 5.99 2.36 6.98 1 8 C0.34 7.67 -0.32 7.34 -1 7 C-0.835 6.21625 -0.67 5.4325 -0.5 4.625 C0.0623707 2.11791961 0.0623707 2.11791961 0 0 Z " fill="#E5F4F8" transform="translate(402,127)"/>
<path d="M0 0 C1.32 0.33 2.64 0.66 4 1 C1.03 2.65 -1.94 4.3 -5 6 C-5 5.01 -5 4.02 -5 3 C-3.35 2.67 -1.7 2.34 0 2 C0 1.34 0 0.68 0 0 Z " fill="#DBEFFA" transform="translate(178,361)"/>
<path d="M0 0 C-0.57344937 2.86724686 -0.8614515 3.8614515 -3 6 C-3.99 5.34 -4.98 4.68 -6 4 C-2.25 0 -2.25 0 0 0 Z " fill="#3765AD" transform="translate(276,225)"/>
<path d="M0 0 C0.66 1.32 1.32 2.64 2 4 C1.34 4 0.68 4 0 4 C0 4.66 0 5.32 0 6 C-1.65 6.33 -3.3 6.66 -5 7 C-3.35 4.69 -1.7 2.38 0 0 Z " fill="#D9ECF7" transform="translate(281,191)"/>
<path d="M0 0 C1 2 1 2 0.375 4.0625 C-1 6 -1 6 -3.625 6.75 C-4.800625 6.87375 -4.800625 6.87375 -6 7 C-4.02 4.69 -2.04 2.38 0 0 Z " fill="#1C4F92" transform="translate(105,102)"/>
<path d="M0 0 C0.66 0.99 1.32 1.98 2 3 C0.68 4.65 -0.64 6.3 -2 8 C-2.33 6.02 -2.66 4.04 -3 2 C-2.01 2.33 -1.02 2.66 0 3 C0 2.01 0 1.02 0 0 Z " fill="#1E57A3" transform="translate(297,255)"/>
<path d="M0 0 C0.66 1.32 1.32 2.64 2 4 C1.34 4.66 0.68 5.32 0 6 C-2.125 5.625 -2.125 5.625 -4 5 C-2.68 3.35 -1.36 1.7 0 0 Z " fill="#2961AB" transform="translate(230,246)"/>
<path d="M0 0 C0.66 0.33 1.32 0.66 2 1 C1.25 3.4375 1.25 3.4375 0 6 C-2.125 6.8125 -2.125 6.8125 -4 7 C-2.68 4.69 -1.36 2.38 0 0 Z " fill="#DDF2FA" transform="translate(292,175)"/>
<path d="M0 0 C-0.33 0.99 -0.66 1.98 -1 3 C-2.98 3.33 -4.96 3.66 -7 4 C-7 3.34 -7 2.68 -7 2 C-2.25 0 -2.25 0 0 0 Z " fill="#2658A3" transform="translate(273,171)"/>
<path d="M0 0 C0.99 0.33 1.98 0.66 3 1 C2.01 1.495 2.01 1.495 1 2 C1 2.99 1 3.98 1 5 C0.01 5 -0.98 5 -2 5 C-2 5.66 -2 6.32 -2 7 C-2.66 6.67 -3.32 6.34 -4 6 C-2.68 4.02 -1.36 2.04 0 0 Z " fill="#2058AE" transform="translate(86,125)"/>
</svg>
