<svg width="20" height="20" viewBox="0 0 20 20" fill="none" xmlns="http://www.w3.org/2000/svg">
<mask id="mask0_5183_5718" style="mask-type:alpha" maskUnits="userSpaceOnUse" x="0" y="0" width="20" height="20">
<rect width="20" height="20" fill="#D9D9D9"/>
</mask>
<g mask="url(#mask0_5183_5718)">
<path d="M13.9167 12.0837L17.0833 9.37533L17.625 9.41699C17.8611 9.44477 18.0451 9.54199 18.1771 9.70866C18.309 9.87533 18.375 10.0559 18.375 10.2503C18.375 10.3614 18.3542 10.4725 18.3125 10.5837C18.2708 10.6948 18.1944 10.792 18.0833 10.8753L15.9167 12.7712L16.5625 15.5837C16.5764 15.6114 16.5833 15.6427 16.5833 15.6774V15.7712C16.5833 16.0073 16.5 16.2052 16.3333 16.3649C16.1667 16.5246 15.9722 16.6045 15.75 16.6045C15.6806 16.6045 15.6076 16.5941 15.5312 16.5732C15.4549 16.5524 15.3819 16.5212 15.3125 16.4795L14.875 16.2087L13.9167 12.0837ZM11.9583 6.00033L11.0833 3.95866L11.2708 3.50033C11.3403 3.33366 11.4479 3.20519 11.5938 3.11491C11.7396 3.02463 11.8889 2.97949 12.0417 2.97949C12.1944 2.97949 12.3438 3.02116 12.4896 3.10449C12.6354 3.18783 12.7431 3.31283 12.8125 3.47949L13.9583 6.18783L11.9583 6.00033ZM4.04167 15.5837L4.95833 11.6462L1.89583 9.00033C1.78472 8.91699 1.71181 8.81977 1.67708 8.70866C1.64236 8.59755 1.625 8.48644 1.625 8.37533C1.625 8.18088 1.69097 8.00033 1.82292 7.83366C1.95486 7.66699 2.13889 7.56977 2.375 7.54199L6.41667 7.18783L7.97917 3.47949C8.04861 3.31283 8.15625 3.18783 8.30208 3.10449C8.44792 3.02116 8.59722 2.97949 8.75 2.97949C8.90278 2.97949 9.05208 3.02116 9.19792 3.10449C9.34375 3.18783 9.45139 3.31283 9.52083 3.47949L11.0833 7.18783L15.125 7.54199C15.3611 7.56977 15.5451 7.66699 15.6771 7.83366C15.809 8.00033 15.875 8.18088 15.875 8.37533C15.875 8.48644 15.8576 8.59755 15.8229 8.70866C15.7882 8.81977 15.7153 8.91699 15.6042 9.00033L12.5417 11.6462L13.4583 15.5837C13.4722 15.6253 13.4792 15.6878 13.4792 15.7712C13.4792 16.0073 13.3958 16.2052 13.2292 16.3649C13.0625 16.5246 12.8681 16.6045 12.6458 16.6045C12.6042 16.6045 12.4583 16.5628 12.2083 16.4795L8.75 14.3962L5.29167 16.4795C5.22222 16.5212 5.14931 16.5524 5.07292 16.5732C4.99653 16.5941 4.92361 16.6045 4.85417 16.6045C4.60417 16.6045 4.38889 16.5038 4.20833 16.3024C4.02778 16.101 3.97222 15.8614 4.04167 15.5837Z" fill="white"/>
</g>
</svg>
