<svg width="25" height="25" viewBox="0 0 25 25" fill="none" xmlns="http://www.w3.org/2000/svg">
<path d="M2.80522 12.0696L2.80522 12.5696L2.80522 12.0696ZM1.67833 8.94831L1.98587 9.34254L1.67833 8.94831ZM23.3217 8.94831L23.0141 9.34254L23.3217 8.94831ZM22.1948 12.0696V11.5696V12.0696ZM13.6269 1.38529L13.3194 1.77952L13.6269 1.38529ZM11.3731 1.38529L11.0656 0.991064V0.991064L11.3731 1.38529ZM12.5 17.2683V17.7683V17.2683ZM15.6625 20.3062H16.1625H15.6625ZM9.3375 20.3062H8.8375H9.3375ZM8.8375 24C8.8375 24.2761 9.06136 24.5 9.3375 24.5C9.61364 24.5 9.8375 24.2761 9.8375 24H9.3375H8.8375ZM15.1625 24C15.1625 24.2761 15.3864 24.5 15.6625 24.5C15.9386 24.5 16.1625 24.2761 16.1625 24H15.6625H15.1625ZM21.3281 11.886H20.8281V22.2467H21.3281H21.8281V11.886H21.3281ZM19.5265 24V23.5H5.83386V24V24.5H19.5265V24ZM4.0322 22.2467H4.5322V11.886H4.0322H3.5322V22.2467H4.0322ZM5.83386 24V23.5C5.10205 23.5 4.5322 22.9261 4.5322 22.2467H4.0322H3.5322C3.5322 23.5039 4.5756 24.5 5.83386 24.5V24ZM21.3281 22.2467H20.8281C20.8281 22.9261 20.2583 23.5 19.5265 23.5V24V24.5C20.7847 24.5 21.8281 23.5039 21.8281 22.2467H21.3281ZM13.6269 1.38529L13.3194 1.77952L23.0141 9.34254L23.3217 8.94831L23.6292 8.55408L13.9344 0.991064L13.6269 1.38529ZM22.1948 12.0696V11.5696L2.80522 11.5696L2.80522 12.0696L2.80522 12.5696L22.1948 12.5696V12.0696ZM1.67833 8.94831L1.98587 9.34254L11.6806 1.77952L11.3731 1.38529L11.0656 0.991064L1.37078 8.55408L1.67833 8.94831ZM2.80522 12.0696L2.80522 11.5696C1.54747 11.5696 1.05739 10.0669 1.98587 9.34254L1.67833 8.94831L1.37078 8.55408C-0.356945 9.9019 0.658639 12.5696 2.80522 12.5696L2.80522 12.0696ZM23.3217 8.94831L23.0141 9.34254C23.9426 10.0669 23.4525 11.5696 22.1948 11.5696V12.0696V12.5696C24.3414 12.5696 25.3569 9.9019 23.6292 8.55408L23.3217 8.94831ZM13.6269 1.38529L13.9344 0.991064C13.0951 0.336312 11.9049 0.336312 11.0656 0.991064L11.3731 1.38529L11.6806 1.77952C12.1584 1.40683 12.8416 1.40683 13.3194 1.77952L13.6269 1.38529ZM12.5 17.2683V17.7683C13.9896 17.7683 15.1625 18.9233 15.1625 20.3062H15.6625H16.1625C16.1625 18.3335 14.5036 16.7683 12.5 16.7683V17.2683ZM9.3375 20.3062H9.8375C9.8375 18.9233 11.0104 17.7683 12.5 17.7683V17.2683V16.7683C10.4964 16.7683 8.8375 18.3335 8.8375 20.3062H9.3375ZM9.3375 24H9.8375V20.3062H9.3375H8.8375V24H9.3375ZM15.6625 20.3062H15.1625L15.1625 24H15.6625H16.1625L16.1625 20.3062H15.6625Z" fill="#00278C"/>
</svg>
