<svg width="25" height="21" viewBox="0 0 25 21" fill="none" xmlns="http://www.w3.org/2000/svg">
<path d="M21.875 8.75C21.875 14.875 12.5 20.125 12.5 20.125C12.5 20.125 3.125 14.875 3.125 8.75C3.125 6.66142 4.11272 4.65838 5.87087 3.18153C7.62903 1.70469 10.0136 0.875 12.5 0.875C14.9864 0.875 17.371 1.70469 19.1291 3.18153C20.8873 4.65838 21.875 6.66142 21.875 8.75Z" stroke="white" stroke-linecap="round" stroke-linejoin="round"/>
<path d="M12.5 11.375C14.2259 11.375 15.625 10.1997 15.625 8.75C15.625 7.30025 14.2259 6.125 12.5 6.125C10.7741 6.125 9.375 7.30025 9.375 8.75C9.375 10.1997 10.7741 11.375 12.5 11.375Z" stroke="white" stroke-linecap="round" stroke-linejoin="round"/>
</svg>
