<svg width="29" height="31" fill="none" xmlns="http://www.w3.org/2000/svg"><g filter="url(#a)"><path d="M12.548 1V.5a.5.5 0 0 0-.5.5h.5zm3.904 0h.5a.5.5 0 0 0-.5-.5V1zm0 21v.5a.5.5 0 0 0 .5-.5h-.5zm-3.904 0h-.5a.5.5 0 0 0 .5.5V22zM24 9.342h.5a.5.5 0 0 0-.5-.5v.5zm0 4.316v.5a.5.5 0 0 0 .5-.5H24zm-19 0h-.5a.5.5 0 0 0 .5.5v-.5zm0-4.316v-.5a.5.5 0 0 0-.5.5H5zM19.837 2.55l.371-.336a.5.5 0 0 0-.74-.002l.37.338zm2.76 3.051.373.333a.5.5 0 0 0-.001-.668l-.371.335zM9.164 20.451l-.371.335a.5.5 0 0 0 .74.002l-.37-.338zm-2.76-3.052-.373-.334a.5.5 0 0 0 .001.67l.371-.336zm16.195 0 .37.335a.5.5 0 0 0 .007-.664l-.377.329zm-2.76 3.051-.374.333a.5.5 0 0 0 .744.003l-.37-.336zM6.401 5.601l-.37-.335a.5.5 0 0 0 0 .67l.37-.335zm2.76-3.051.372-.336a.5.5 0 0 0-.742 0l.37.336zm11.635 11.107v-.5h-.37l-.108.354.478.147zm-.457 1.151-.448-.222-.148.3.219.25.377-.328zm-2.847 3.008.374-.332-.264-.296-.348.189.238.44zm-1.04.446-.154-.476-.347.112v.364h.5zm-3.905-.09h.5v-.347l-.325-.122-.175.469zm-.911-.428.249-.434-.348-.2-.27.296.369.338zm-2.786-3.08.373.334.22-.247-.14-.3-.453.213zm-.387-1.006.478-.146-.108-.354h-.37v.5zm-.082-4.316v.5h.385l.098-.372-.483-.128zm.39-1.121.458.2.13-.296-.217-.24-.37.336zm2.68-3.142-.371.336.28.31.354-.22-.264-.426zm1.096-.539.175.469.325-.121V4.54h-.5zm3.904-.09h-.5v.364l.347.112.153-.476zm1.171.519-.248.433.347.2.27-.296-.369-.337zm2.786 3.079-.372-.333-.22.246.14.3.452-.213zm.47 1.294-.484.128.098.372h.386v-.5zM12.547 1v.5h3.904v-1h-3.904V1zm3.904 21v-.5h-3.904v1h3.904V22zM24 9.342h-.5v4.316h1V9.341H24zM5 13.658h.5V9.341h-1v4.316H5zM19.837 2.55l-.37.335 2.76 3.051.37-.335.372-.335-2.761-3.052-.37.336zM9.163 20.45l.37-.335-2.76-3.051-.37.335-.372.335 2.761 3.052.37-.336zM22.598 17.4l-.37-.335-2.762 3.05.371.336.371.336 2.76-3.052-.37-.335zM6.402 5.601l.37.335 2.762-3.05-.371-.336-.371-.336-2.76 3.052.37.335zm14.395 8.056-.479-.146a7.062 7.062 0 0 1-.426 1.075l.448.222.448.222c.193-.39.357-.8.487-1.226l-.478-.146zm-3.304 4.16-.238-.44a5.603 5.603 0 0 1-.956.41l.153.475.153.476a6.612 6.612 0 0 0 1.127-.482l-.239-.44zm-4.945.355.175-.469a5.647 5.647 0 0 1-.837-.393l-.249.434-.249.433c.315.18.644.336.985.463l.175-.468zM8.85 14.664l.453-.212a7.075 7.075 0 0 1-.362-.94l-.478.146-.479.146c.114.37.252.73.413 1.073l.453-.213zm-.47-5.322.484.128c.096-.363.219-.714.365-1.048l-.457-.201-.458-.201a8.116 8.116 0 0 0-.417 1.195l.484.127zm3.07-4.263.264.425c.32-.198.657-.364 1.008-.495l-.175-.469-.175-.468a6.68 6.68 0 0 0-1.185.582l.263.425zm5.001-.629-.153.476c.374.12.734.28 1.076.476l.248-.433.25-.434a6.62 6.62 0 0 0-1.268-.56l-.153.475zm3.957 3.598-.452.212c.18.383.327.788.438 1.21l.483-.128.484-.127a8.1 8.1 0 0 0-.5-1.38l-.453.213zM12.548 4.54h.5V1h-1v3.54h.5zM16.452 1h-.5v3.45h1V1h-.5zm-7.29 1.55-.37.335 2.289 2.53.37-.336.371-.335-2.288-2.53-.371.336zm-.39 5.67.371-.335-2.37-2.62-.37.336-.372.335 2.37 2.62.372-.335zm8.851-3.251.37.337 2.213-2.419-.369-.337-.369-.338-2.214 2.42.37.337zm4.975.632-.373-.333-2.189 2.447.373.333.373.333 2.189-2.447-.373-.333zm-1.72 3.741v.5H24v-1h-3.122v.5zM24 13.658v-.5h-3.203v1H24v-.5zm-3.66 1.15-.377.329 2.258 2.59.377-.328.377-.329-2.258-2.59-.377.328zm-.503 5.642.374-.332-2.344-2.634-.374.332-.373.333 2.344 2.634.373-.333zm-3.385-2.188h-.5V22h1v-3.738h-.5zM12.548 22h.5v-3.828h-1V22h.5zm-.911-4.256-.37-.338-2.473 2.707.369.337.369.338 2.474-2.707-.369-.337zm-5.235-.345.373.334 2.449-2.735-.373-.334-.372-.333-2.45 2.735.373.333zm2.062-3.742v-.5H5v1h3.464v-.5zM5 9.343v.5h3.382v-1H5v.5zm12.196 1.524-.492.089c.261 1.44-.588 2.725-1.776 2.951l.094.492.093.49c1.817-.346 2.915-2.224 2.573-4.111l-.492.089zm-2.174 3.532-.094-.492c-1.183.226-2.42-.653-2.68-2.092l-.492.09-.492.088c.342 1.89 2.03 3.244 3.851 2.897l-.093-.491zm-3.266-2.495.492-.089c-.261-1.44.588-2.725 1.776-2.951l-.093-.492-.094-.49c-1.817.346-2.915 2.224-2.573 4.111l.492-.089zm2.175-3.532.093.492c1.184-.226 2.42.653 2.68 2.092l.492-.09.492-.088c-.342-1.89-2.03-3.244-3.851-2.897l.094.491z" fill="#fff"/></g><defs><filter id="a" x=".5" y=".5" width="28" height="30" filterUnits="userSpaceOnUse" color-interpolation-filters="sRGB"><feFlood flood-opacity="0" result="BackgroundImageFix"/><feColorMatrix in="SourceAlpha" values="0 0 0 0 0 0 0 0 0 0 0 0 0 0 0 0 0 0 127 0" result="hardAlpha"/><feOffset dy="4"/><feGaussianBlur stdDeviation="2"/><feComposite in2="hardAlpha" operator="out"/><feColorMatrix values="0 0 0 0 0 0 0 0 0 0 0 0 0 0 0 0 0 0 0.25 0"/><feBlend in2="BackgroundImageFix" result="effect1_dropShadow_67_535"/><feBlend in="SourceGraphic" in2="effect1_dropShadow_67_535" result="shape"/></filter></defs></svg>