<svg width="29" height="31" viewBox="0 0 29 31" fill="none" xmlns="http://www.w3.org/2000/svg">
<g filter="url(#filter0_d_67_535)">
<path d="M12.5479 1V0.5C12.2718 0.5 12.0479 0.723858 12.0479 1H12.5479ZM16.4521 1H16.9521C16.9521 0.723858 16.7282 0.5 16.4521 0.5V1ZM16.4521 22V22.5C16.7282 22.5 16.9521 22.2761 16.9521 22H16.4521ZM12.5479 22H12.0479C12.0479 22.2761 12.2718 22.5 12.5479 22.5V22ZM24 9.34247H24.5C24.5 9.06632 24.2761 8.84247 24 8.84247V9.34247ZM24 13.6575L24 14.1575C24.1326 14.1575 24.2598 14.1049 24.3536 14.0111C24.4473 13.9173 24.5 13.7901 24.5 13.6575H24ZM5 13.6575H4.5C4.5 13.9337 4.72386 14.1575 5 14.1575L5 13.6575ZM5 9.34247V8.84247C4.72386 8.84247 4.5 9.06632 4.5 9.34247H5ZM19.8372 2.54977L20.208 2.21432C20.1135 2.10992 19.9794 2.05018 19.8386 2.04977C19.6978 2.04937 19.5634 2.10834 19.4684 2.2122L19.8372 2.54977ZM22.5978 5.60099L22.9705 5.93432C23.141 5.7437 23.1402 5.45517 22.9686 5.26553L22.5978 5.60099ZM9.1628 20.4502L8.79203 20.7857C8.88652 20.8901 9.02068 20.9499 9.16152 20.9502C9.30236 20.9506 9.43682 20.8915 9.53184 20.7876L9.1628 20.4502ZM6.40217 17.399L6.0297 17.0655C5.85902 17.2561 5.85975 17.5447 6.03141 17.7345L6.40217 17.399ZM22.5978 17.399L22.9686 17.7345C23.1385 17.5467 23.1412 17.2614 22.9748 17.0705L22.5978 17.399ZM19.8372 20.4502L19.4637 20.7826C19.5581 20.8887 19.6931 20.9496 19.8351 20.9502C19.9771 20.9508 20.1127 20.891 20.208 20.7857L19.8372 20.4502ZM6.40218 5.60098L6.03141 5.26553C5.8591 5.45598 5.8591 5.74599 6.03141 5.93644L6.40218 5.60098ZM9.1628 2.54977L9.53357 2.21431C9.43878 2.10955 9.30409 2.04977 9.1628 2.04977C9.02151 2.04977 8.88682 2.10955 8.79203 2.21431L9.1628 2.54977ZM20.7967 13.6575L20.7967 13.1575L20.4266 13.1575L20.3185 13.5115L20.7967 13.6575ZM20.3398 14.8082L19.8919 14.5861L19.7435 14.8851L19.9629 15.1367L20.3398 14.8082ZM17.4932 17.8162L17.8667 17.4838L17.6032 17.1877L17.2548 17.3767L17.4932 17.8162ZM16.4521 18.2622L16.2989 17.7862L15.9521 17.8978V18.2622H16.4521ZM12.5479 18.1718H13.0479V17.8247L12.7227 17.7034L12.5479 18.1718ZM11.637 17.7436L11.8858 17.3098L11.5382 17.1105L11.2679 17.4062L11.637 17.7436ZM8.85106 14.6644L9.22354 14.9979L9.44431 14.7514L9.30365 14.4519L8.85106 14.6644ZM8.46357 13.6575L8.94177 13.5115L8.83367 13.1575L8.46357 13.1575L8.46357 13.6575ZM8.3818 9.34247V9.84247H8.76717L8.86531 9.46981L8.3818 9.34247ZM8.77254 8.22086L9.23037 8.42183L9.36048 8.12543L9.1433 7.8854L8.77254 8.22086ZM11.4515 5.07941L11.0808 5.41487L11.3605 5.72411L11.715 5.50437L11.4515 5.07941ZM12.5479 4.54048L12.7227 5.00894L13.0479 4.88761V4.54048H12.5479ZM16.4521 4.45011H15.9521V4.81448L16.2989 4.92608L16.4521 4.45011ZM17.6233 4.96877L17.3745 5.40248L17.7218 5.6017L17.9921 5.30634L17.6233 4.96877ZM20.4092 8.04795L20.0365 7.71461L19.8161 7.96111L19.9566 8.26046L20.4092 8.04795ZM20.8785 9.34247L20.395 9.46981L20.4931 9.84247H20.8785V9.34247ZM12.5479 1V1.5H16.4521V1V0.5H12.5479V1ZM16.4521 22V21.5H12.5479V22V22.5H16.4521V22ZM24 9.34247H23.5V13.6575H24H24.5V9.34247H24ZM5 13.6575H5.5V9.34247H5H4.5V13.6575H5ZM19.8372 2.54977L19.4664 2.88523L22.2271 5.93644L22.5978 5.60099L22.9686 5.26553L20.208 2.21432L19.8372 2.54977ZM9.1628 20.4502L9.53356 20.1148L6.77294 17.0636L6.40217 17.399L6.03141 17.7345L8.79203 20.7857L9.1628 20.4502ZM22.5978 17.399L22.2271 17.0636L19.4664 20.1148L19.8372 20.4502L20.208 20.7857L22.9686 17.7345L22.5978 17.399ZM6.40218 5.60098L6.77294 5.93644L9.53357 2.88523L9.1628 2.54977L8.79203 2.21431L6.03141 5.26553L6.40218 5.60098ZM20.7967 13.6575L20.3185 13.5115C20.2042 13.8859 20.0609 14.2452 19.8919 14.5861L20.3398 14.8082L20.7877 15.0304C20.9811 14.6404 21.1446 14.2302 21.2749 13.8036L20.7967 13.6575ZM17.4932 17.8162L17.2548 17.3767C16.9493 17.5424 16.6297 17.6798 16.2989 17.7862L16.4521 18.2622L16.6052 18.7382C16.9963 18.6124 17.3728 18.4502 17.7316 18.2557L17.4932 17.8162ZM12.5479 18.1718L12.7227 17.7034C12.4337 17.5956 12.154 17.4637 11.8858 17.3098L11.637 17.7436L11.3882 18.1773C11.7028 18.3578 12.0319 18.513 12.3732 18.6403L12.5479 18.1718ZM8.85106 14.6644L9.30365 14.4519C9.16251 14.1513 9.04121 13.8371 8.94177 13.5115L8.46357 13.6575L7.98537 13.8036C8.09868 14.1746 8.23709 14.5332 8.39847 14.8769L8.85106 14.6644ZM8.3818 9.34247L8.86531 9.46981C8.96099 9.10651 9.08357 8.75625 9.23037 8.42183L8.77254 8.22086L8.3147 8.01988C8.14696 8.40201 8.00722 8.80151 7.89829 9.21512L8.3818 9.34247ZM11.4515 5.07941L11.715 5.50437C12.0347 5.30616 12.3718 5.13987 12.7227 5.00894L12.5479 4.54048L12.3732 4.07202C11.9588 4.2266 11.5625 4.42235 11.1881 4.65445L11.4515 5.07941ZM16.4521 4.45011L16.2989 4.92608C16.6732 5.04651 17.0331 5.20663 17.3745 5.40248L17.6233 4.96877L17.8721 4.53506C17.4716 4.30533 17.0478 4.11652 16.6052 3.97414L16.4521 4.45011ZM20.4092 8.04795L19.9566 8.26046C20.1363 8.64304 20.2838 9.04761 20.395 9.46981L20.8785 9.34247L21.362 9.21512C21.2354 8.73446 21.0672 8.27286 20.8618 7.83543L20.4092 8.04795ZM12.5479 4.54048H13.0479V1H12.5479H12.0479V4.54048H12.5479ZM16.4521 1H15.9521V4.45011H16.4521H16.9521V1H16.4521ZM9.1628 2.54977L8.79203 2.88523L11.0808 5.41487L11.4515 5.07941L11.8223 4.74396L9.53357 2.21431L9.1628 2.54977ZM8.77254 8.22086L9.1433 7.8854L6.77294 5.26553L6.40218 5.60098L6.03141 5.93644L8.40177 8.55631L8.77254 8.22086ZM17.6233 4.96877L17.9921 5.30634L20.206 2.88734L19.8372 2.54977L19.4684 2.2122L17.2544 4.6312L17.6233 4.96877ZM22.5978 5.60099L22.2251 5.26765L20.0365 7.71461L20.4092 8.04795L20.7819 8.38128L22.9705 5.93432L22.5978 5.60099ZM20.8785 9.34247V9.84247H24V9.34247V8.84247H20.8785V9.34247ZM24 13.6575L24 13.1575L20.7967 13.1575L20.7967 13.6575L20.7967 14.1575L24 14.1575L24 13.6575ZM20.3398 14.8082L19.9629 15.1367L22.2209 17.7275L22.5978 17.399L22.9748 17.0705L20.7167 14.4797L20.3398 14.8082ZM19.8372 20.4502L20.2107 20.1178L17.8667 17.4838L17.4932 17.8162L17.1196 18.1486L19.4637 20.7826L19.8372 20.4502ZM16.4521 18.2622H15.9521V22H16.4521H16.9521V18.2622H16.4521ZM12.5479 22H13.0479V18.1718H12.5479H12.0479V22H12.5479ZM11.637 17.7436L11.2679 17.4062L8.79375 20.1129L9.1628 20.4502L9.53184 20.7876L12.006 18.0809L11.637 17.7436ZM6.40217 17.399L6.77465 17.7326L9.22354 14.9979L8.85106 14.6644L8.47859 14.3308L6.0297 17.0655L6.40217 17.399ZM8.46357 13.6575L8.46357 13.1575L5 13.1575L5 13.6575L5 14.1575L8.46357 14.1575L8.46357 13.6575ZM5 9.34247V9.84247H8.3818V9.34247V8.84247H5V9.34247ZM17.1964 10.8656L16.7044 10.9547C16.9654 12.3958 16.1163 13.6797 14.928 13.9064L15.0217 14.3975L15.1154 14.8887C16.9318 14.5422 18.0301 12.6635 17.6884 10.7765L17.1964 10.8656ZM15.0217 14.3975L14.928 13.9064C13.7446 14.1321 12.5084 13.2532 12.2478 11.8143L11.7558 11.9033L11.2638 11.9924C11.6059 13.8817 13.294 15.2361 15.1154 14.8887L15.0217 14.3975ZM11.7558 11.9033L12.2478 11.8143C11.9869 10.3731 12.836 9.08919 14.0243 8.86252L13.9306 8.37138L13.8369 7.88023C12.0204 8.22672 10.9222 10.1054 11.2638 11.9924L11.7558 11.9033ZM13.9306 8.37138L14.0243 8.86252C15.2077 8.63679 16.4439 9.51575 16.7044 10.9547L17.1964 10.8656L17.6884 10.7765C17.3464 8.88724 15.6583 7.53282 13.8369 7.88023L13.9306 8.37138Z" fill="white"/>
</g>
<defs>
<filter id="filter0_d_67_535" x="0.5" y="0.5" width="28" height="30" filterUnits="userSpaceOnUse" color-interpolation-filters="sRGB">
<feFlood flood-opacity="0" result="BackgroundImageFix"/>
<feColorMatrix in="SourceAlpha" type="matrix" values="0 0 0 0 0 0 0 0 0 0 0 0 0 0 0 0 0 0 127 0" result="hardAlpha"/>
<feOffset dy="4"/>
<feGaussianBlur stdDeviation="2"/>
<feComposite in2="hardAlpha" operator="out"/>
<feColorMatrix type="matrix" values="0 0 0 0 0 0 0 0 0 0 0 0 0 0 0 0 0 0 0.25 0"/>
<feBlend mode="normal" in2="BackgroundImageFix" result="effect1_dropShadow_67_535"/>
<feBlend mode="normal" in="SourceGraphic" in2="effect1_dropShadow_67_535" result="shape"/>
</filter>
</defs>
</svg>
